<ttFont>
<head>
    <!-- Most of this table will be recalculated by the compiler -->
    <tableVersion value="1.0"/>
    <fontRevision value="0.06999"/>
    <checkSumAdjustment value="0x8883fc0b"/>
    <magicNumber value="0x5f0f3cf5"/>
    <flags value="00100000 00001111"/>
    <unitsPerEm value="1024"/>
    <created value="Thu Jul 20 15:49:28 2023"/>
    <modified value="Thu Aug  3 19:41:56 2023"/>
    <xMin value="-192"/>
    <yMin value="-202"/>
    <xMax value="796"/>
    <yMax value="954"/>
    <macStyle value="00000000 00000000"/>
    <lowestRecPPEM value="7"/>
    <fontDirectionHint value="2"/>
    <indexToLocFormat value="0"/>
    <glyphDataFormat value="0"/>
  </head>
    <TTGlyph name=".notdef" xMin="34" yMin="-30" xMax="414" yMax="670">
      <contour>
        <pt x="34" y="670" on="1"/>
        <pt x="414" y="670" on="1"/>
        <pt x="414" y="-30" on="1"/>
        <pt x="34" y="-30" on="1"/>
      </contour>
      <contour>
        <pt x="252" y="-10" on="0"/>
        <pt x="288" y="24" on="0"/>
        <pt x="288" y="54" on="1"/>
        <pt x="288" y="84" on="0"/>
        <pt x="251" y="118" on="0"/>
        <pt x="224" y="118" on="1"/>
        <pt x="197" y="118" on="0"/>
        <pt x="160" y="84" on="0"/>
        <pt x="160" y="54" on="1"/>
        <pt x="160" y="24" on="0"/>
        <pt x="196" y="-10" on="0"/>
        <pt x="224" y="-10" on="1"/>
      </contour>
      <contour>
        <pt x="256" y="256" on="0"/>
        <pt x="294" y="332" on="0"/>
        <pt x="330" y="371" on="1"/>
        <pt x="360" y="405" on="0"/>
        <pt x="388" y="455" on="0"/>
        <pt x="388" y="494" on="1"/>
        <pt x="388" y="566" on="0"/>
        <pt x="257" y="640" on="0"/>
        <pt x="96" y="645" on="1"/>
        <pt x="93" y="581" on="1"/>
        <pt x="190" y="576" on="0"/>
        <pt x="288" y="548" on="0"/>
        <pt x="316" y="512" on="0"/>
        <pt x="316" y="488" on="1"/>
        <pt x="316" y="462" on="0"/>
        <pt x="294" y="426" on="0"/>
        <pt x="269" y="398" on="1"/>
        <pt x="244" y="371" on="0"/>
        <pt x="211" y="325" on="0"/>
        <pt x="186" y="249" on="0"/>
        <pt x="185" y="195" on="1"/>
        <pt x="255" y="192" on="1"/>
      </contour>
    </TTGlyph>
    <TTGlyph name="A" xMin="35" yMin="0" xMax="413" yMax="643">
      <contour>
        <pt x="50" y="187" on="0"/>
        <pt x="130" y="520" on="0"/>
        <pt x="192" y="643" on="1"/>
        <pt x="256" y="643" on="1"/>
        <pt x="318" y="520" on="0"/>
        <pt x="398" y="187" on="0"/>
        <pt x="413" y="0" on="1"/>
        <pt x="338" y="0" on="1"/>
        <pt x="330" y="92" on="0"/>
        <pt x="315" y="192" on="1"/>
        <pt x="133" y="192" on="1"/>
        <pt x="118" y="92" on="0"/>
        <pt x="110" y="0" on="1"/>
        <pt x="35" y="0" on="1"/>
      </contour>
      <contour>
        <pt x="304" y="256" on="1"/>
        <pt x="272" y="429" on="0"/>
        <pt x="224" y="551" on="1"/>
        <pt x="176" y="429" on="0"/>
        <pt x="144" y="256" on="1"/>
      </contour>
    </TTGlyph>
    <TTGlyph name="A.hex" xMin="35" yMin="0" xMax="413" yMax="579">
      <contour>
        <pt x="50" y="168" on="0"/>
        <pt x="130" y="469" on="0"/>
        <pt x="192" y="579" on="1"/>
        <pt x="256" y="579" on="1"/>
        <pt x="318" y="469" on="0"/>
        <pt x="398" y="168" on="0"/>
        <pt x="413" y="0" on="1"/>
        <pt x="338" y="0" on="1"/>
        <pt x="334" y="49" on="0"/>
        <pt x="322" y="128" on="1"/>
        <pt x="126" y="128" on="1"/>
        <pt x="114" y="49" on="0"/>
        <pt x="110" y="0" on="1"/>
        <pt x="35" y="0" on="1"/>
      </contour>
      <contour>
        <pt x="311" y="192" on="1"/>
        <pt x="277" y="371" on="0"/>
        <pt x="224" y="489" on="1"/>
        <pt x="171" y="371" on="0"/>
        <pt x="137" y="192" on="1"/>
      </contour>
    </TTGlyph>
    <TTGlyph name="A.short" xMin="35" yMin="0" xMax="413" yMax="579">
      <component glyphName="A.hex" x="0" y="0" flags="0x400"/>
    </TTGlyph>
    <TTGlyph name="A.sups" xMin="110" yMin="320" xMax="338" yMax="643">
      <contour>
        <pt x="122" y="501" on="0"/>
        <pt x="192" y="643" on="1"/>
        <pt x="256" y="643" on="1"/>
        <pt x="326" y="506" on="0"/>
        <pt x="338" y="320" on="1"/>
        <pt x="273" y="320" on="1"/>
        <pt x="271" y="360" on="0"/>
        <pt x="267" y="394" on="1"/>
        <pt x="181" y="394" on="1"/>
        <pt x="178" y="370" on="0"/>
        <pt x="174" y="320" on="1"/>
        <pt x="110" y="320" on="1"/>
      </contour>
      <contour>
        <pt x="259" y="448" on="1"/>
        <pt x="248" y="510" on="0"/>
        <pt x="224" y="577" on="1"/>
        <pt x="204" y="524" on="0"/>
        <pt x="190" y="448" on="1"/>
      </contour>
    </TTGlyph>
    <TTGlyph name="AE" xMin="-18" yMin="0" xMax="458" yMax="640">
      <contour>
        <pt x="458" y="64" on="1"/>
        <pt x="458" y="0" on="1"/>
        <pt x="199" y="0" on="1"/>
        <pt x="199" y="192" on="1"/>
        <pt x="79" y="192" on="1"/>
        <pt x="64" y="92" on="0"/>
        <pt x="56" y="0" on="1"/>
        <pt x="-18" y="0" on="1"/>
        <pt x="-3" y="186" on="0"/>
        <pt x="76" y="518" on="0"/>
        <pt x="136" y="640" on="1"/>
        <pt x="448" y="640" on="1"/>
        <pt x="448" y="576" on="1"/>
        <pt x="271" y="576" on="1"/>
        <pt x="271" y="320" on="1"/>
        <pt x="394" y="320" on="1"/>
        <pt x="394" y="256" on="1"/>
        <pt x="271" y="256" on="1"/>
        <pt x="271" y="64" on="1"/>
      </contour>
      <contour>
        <pt x="199" y="256" on="1"/>
        <pt x="199" y="576" on="1"/>
        <pt x="181" y="576" on="1"/>
        <pt x="125" y="449" on="0"/>
        <pt x="90" y="256" on="1"/>
      </contour>
    </TTGlyph>
    <TTGlyph name="AEacute" xMin="-18" yMin="0" xMax="458" yMax="842">
      <component glyphName="AE" x="0" y="0" flags="0x400"/>
      <component glyphName="acutecomb.case" x="48" y="0" flags="0x0"/>
    </TTGlyph>
    <TTGlyph name="Aacute" xMin="35" yMin="0" xMax="413" yMax="842">
      <component glyphName="A" x="0" y="0" flags="0x400"/>
      <component glyphName="acutecomb.case" x="0" y="0" flags="0x0"/>
    </TTGlyph>
    <TTGlyph name="Abreve" xMin="35" yMin="0" xMax="413" yMax="836">
      <component glyphName="A" x="0" y="0" flags="0x400"/>
      <component glyphName="uni0306.case" x="0" y="0" flags="0x0"/>
    </TTGlyph>
    <TTGlyph name="Acircumflex" xMin="35" yMin="0" xMax="413" yMax="842">
      <component glyphName="A" x="0" y="0" flags="0x400"/>
      <component glyphName="uni0302.case" x="0" y="0" flags="0x0"/>
    </TTGlyph>
    <TTGlyph name="Adieresis" xMin="35" yMin="0" xMax="413" yMax="816">
      <component glyphName="A" x="0" y="0" flags="0x400"/>
      <component glyphName="uni0308.case" x="0" y="0" flags="0x0"/>
    </TTGlyph>
    <TTGlyph name="Agrave" xMin="35" yMin="0" xMax="413" yMax="842">
      <component glyphName="A" x="0" y="0" flags="0x400"/>
      <component glyphName="gravecomb.case" x="0" y="0" flags="0x0"/>
    </TTGlyph>
    <TTGlyph name="Alpha" xMin="35" yMin="0" xMax="413" yMax="643">
      <component glyphName="A" x="0" y="0" flags="0x400"/>
    </TTGlyph>
    <TTGlyph name="Alphatonos" xMin="-5" yMin="0" xMax="413" yMax="704">
      <component glyphName="A" x="0" y="0" flags="0x400"/>
      <component glyphName="tonos" x="-192" y="0" flags="0x0"/>
    </TTGlyph>
    <TTGlyph name="Amacron" xMin="35" yMin="0" xMax="413" yMax="770">
      <component glyphName="A" x="0" y="0" flags="0x400"/>
      <component glyphName="uni0304.case" x="0" y="0" flags="0x0"/>
    </TTGlyph>
    <TTGlyph name="Aogonek" xMin="35" yMin="-197" xMax="430" yMax="643">
      <component glyphName="A" x="0" y="0" flags="0x400"/>
      <component glyphName="uni0328" x="29" y="0" flags="0x0"/>
    </TTGlyph>
    <TTGlyph name="Aring" xMin="35" yMin="0" xMax="413" yMax="825">
      <component glyphName="A.short" x="0" y="0" flags="0x400"/>
      <component glyphName="uni030A.case" x="0" y="0" flags="0x0"/>
    </TTGlyph>
    <TTGlyph name="Aringacute" xMin="35" yMin="0" xMax="413" yMax="832">
      <component glyphName="A.short" x="0" y="0" flags="0x400"/>
      <component glyphName="uni030A.case" x="0" y="-97" flags="0x4"/>
      <component glyphName="acutecomb.case" x="0" y="-10" flags="0x4"/>
    </TTGlyph>
    <TTGlyph name="Atilde" xMin="35" yMin="0" xMax="413" yMax="837">
      <component glyphName="A" x="0" y="0" flags="0x400"/>
      <component glyphName="tildecomb.case" x="0" y="0" flags="0x0"/>
    </TTGlyph>
    <TTGlyph name="B" xMin="60" yMin="0" xMax="411" yMax="640">
      <contour>
        <pt x="60" y="640" on="1"/>
        <pt x="192" y="640" on="1"/>
        <pt x="286" y="640" on="0"/>
        <pt x="390" y="557" on="0"/>
        <pt x="390" y="476" on="1"/>
        <pt x="390" y="387" on="0"/>
        <pt x="304" y="312" on="1"/>
        <pt x="353" y="299" on="0"/>
        <pt x="411" y="224" on="0"/>
        <pt x="411" y="168" on="1"/>
        <pt x="411" y="88" on="0"/>
        <pt x="303" y="0" on="0"/>
        <pt x="212" y="0" on="1"/>
        <pt x="60" y="0" on="1"/>
      </contour>
      <contour>
        <pt x="275" y="64" on="0"/>
        <pt x="335" y="116" on="0"/>
        <pt x="335" y="170" on="1"/>
        <pt x="335" y="219" on="0"/>
        <pt x="273" y="272" on="0"/>
        <pt x="202" y="272" on="1"/>
        <pt x="132" y="272" on="1"/>
        <pt x="132" y="64" on="1"/>
        <pt x="202" y="64" on="1"/>
      </contour>
      <contour>
        <pt x="242" y="336" on="1"/>
        <pt x="276" y="361" on="0"/>
        <pt x="312" y="437" on="0"/>
        <pt x="312" y="476" on="1"/>
        <pt x="312" y="527" on="0"/>
        <pt x="254" y="576" on="0"/>
        <pt x="184" y="576" on="1"/>
        <pt x="132" y="576" on="1"/>
        <pt x="132" y="336" on="1"/>
      </contour>
    </TTGlyph>
    <TTGlyph name="B.hex" xMin="60" yMin="0" xMax="411" yMax="576">
      <contour>
        <pt x="60" y="576" on="1"/>
        <pt x="192" y="576" on="1"/>
        <pt x="286" y="576" on="0"/>
        <pt x="390" y="501" on="0"/>
        <pt x="390" y="428" on="1"/>
        <pt x="390" y="346" on="0"/>
        <pt x="306" y="279" on="1"/>
        <pt x="355" y="265" on="0"/>
        <pt x="411" y="201" on="0"/>
        <pt x="411" y="152" on="1"/>
        <pt x="411" y="79" on="0"/>
        <pt x="303" y="0" on="0"/>
        <pt x="212" y="0" on="1"/>
        <pt x="60" y="0" on="1"/>
      </contour>
      <contour>
        <pt x="275" y="64" on="0"/>
        <pt x="335" y="108" on="0"/>
        <pt x="335" y="154" on="1"/>
        <pt x="335" y="195" on="0"/>
        <pt x="273" y="240" on="0"/>
        <pt x="202" y="240" on="1"/>
        <pt x="132" y="240" on="1"/>
        <pt x="132" y="64" on="1"/>
        <pt x="202" y="64" on="1"/>
      </contour>
      <contour>
        <pt x="243" y="304" on="1"/>
        <pt x="277" y="326" on="0"/>
        <pt x="312" y="393" on="0"/>
        <pt x="312" y="428" on="1"/>
        <pt x="312" y="471" on="0"/>
        <pt x="254" y="512" on="0"/>
        <pt x="184" y="512" on="1"/>
        <pt x="132" y="512" on="1"/>
        <pt x="132" y="304" on="1"/>
      </contour>
    </TTGlyph>
    <TTGlyph name="B.sups" xMin="118" yMin="320" xMax="334" yMax="640">
      <contour>
        <pt x="118" y="640" on="1"/>
        <pt x="214" y="640" on="1"/>
        <pt x="265" y="640" on="0"/>
        <pt x="323" y="595" on="0"/>
        <pt x="323" y="558" on="1"/>
        <pt x="323" y="517" on="0"/>
        <pt x="286" y="481" on="1"/>
        <pt x="308" y="471" on="0"/>
        <pt x="334" y="434" on="0"/>
        <pt x="334" y="410" on="1"/>
        <pt x="334" y="371" on="0"/>
        <pt x="275" y="320" on="0"/>
        <pt x="224" y="320" on="1"/>
        <pt x="118" y="320" on="1"/>
      </contour>
      <contour>
        <pt x="267" y="372" on="0"/>
        <pt x="267" y="410" on="1"/>
        <pt x="267" y="426" on="0"/>
        <pt x="244" y="446" on="0"/>
        <pt x="219" y="446" on="1"/>
        <pt x="182" y="446" on="1"/>
        <pt x="182" y="372" on="1"/>
        <pt x="219" y="372" on="1"/>
      </contour>
      <contour>
        <pt x="235" y="498" on="1"/>
        <pt x="256" y="521" on="0"/>
        <pt x="256" y="548" on="1"/>
        <pt x="256" y="568" on="0"/>
        <pt x="235" y="588" on="0"/>
        <pt x="210" y="588" on="1"/>
        <pt x="182" y="588" on="1"/>
        <pt x="182" y="498" on="1"/>
      </contour>
    </TTGlyph>
    <TTGlyph name="Beta" xMin="60" yMin="0" xMax="411" yMax="640">
      <component glyphName="B" x="0" y="0" flags="0x400"/>
    </TTGlyph>
    <TTGlyph name="C" xMin="60" yMin="-9" xMax="384" yMax="647">
      <contour>
        <pt x="195" y="-9" on="0"/>
        <pt x="102" y="55" on="0"/>
        <pt x="60" y="197" on="0"/>
        <pt x="60" y="319" on="1"/>
        <pt x="60" y="441" on="0"/>
        <pt x="102" y="583" on="0"/>
        <pt x="195" y="647" on="0"/>
        <pt x="274" y="647" on="1"/>
        <pt x="329" y="647" on="0"/>
        <pt x="378" y="635" on="1"/>
        <pt x="364" y="574" on="1"/>
        <pt x="321" y="583" on="0"/>
        <pt x="280" y="583" on="1"/>
        <pt x="216" y="583" on="0"/>
        <pt x="156" y="531" on="0"/>
        <pt x="138" y="425" on="0"/>
        <pt x="138" y="319" on="1"/>
        <pt x="138" y="213" on="0"/>
        <pt x="156" y="107" on="0"/>
        <pt x="216" y="55" on="0"/>
        <pt x="280" y="55" on="1"/>
        <pt x="325" y="55" on="0"/>
        <pt x="370" y="66" on="1"/>
        <pt x="384" y="5" on="1"/>
        <pt x="333" y="-9" on="0"/>
        <pt x="274" y="-9" on="1"/>
      </contour>
    </TTGlyph>
    <TTGlyph name="C.hex" xMin="60" yMin="-9" xMax="384" yMax="583">
      <contour>
        <pt x="195" y="-9" on="0"/>
        <pt x="102" y="49" on="0"/>
        <pt x="60" y="177" on="0"/>
        <pt x="60" y="287" on="1"/>
        <pt x="60" y="397" on="0"/>
        <pt x="102" y="525" on="0"/>
        <pt x="195" y="583" on="0"/>
        <pt x="274" y="583" on="1"/>
        <pt x="329" y="583" on="0"/>
        <pt x="378" y="571" on="1"/>
        <pt x="364" y="510" on="1"/>
        <pt x="321" y="519" on="0"/>
        <pt x="280" y="519" on="1"/>
        <pt x="216" y="519" on="0"/>
        <pt x="156" y="473" on="0"/>
        <pt x="138" y="380" on="0"/>
        <pt x="138" y="287" on="1"/>
        <pt x="138" y="194" on="0"/>
        <pt x="156" y="101" on="0"/>
        <pt x="216" y="55" on="0"/>
        <pt x="280" y="55" on="1"/>
        <pt x="325" y="55" on="0"/>
        <pt x="370" y="66" on="1"/>
        <pt x="384" y="5" on="1"/>
        <pt x="333" y="-9" on="0"/>
        <pt x="274" y="-9" on="1"/>
      </contour>
    </TTGlyph>
    <TTGlyph name="C.sups" xMin="126" yMin="316" xMax="326" yMax="644">
      <contour>
        <pt x="281" y="372" on="0"/>
        <pt x="316" y="379" on="1"/>
        <pt x="326" y="326" on="1"/>
        <pt x="291" y="316" on="0"/>
        <pt x="252" y="316" on="1"/>
        <pt x="192" y="316" on="0"/>
        <pt x="126" y="401" on="0"/>
        <pt x="126" y="480" on="1"/>
        <pt x="126" y="559" on="0"/>
        <pt x="192" y="644" on="0"/>
        <pt x="252" y="644" on="1"/>
        <pt x="291" y="644" on="0"/>
        <pt x="326" y="634" on="1"/>
        <pt x="316" y="581" on="1"/>
        <pt x="281" y="588" on="0"/>
        <pt x="256" y="588" on="1"/>
        <pt x="224" y="588" on="0"/>
        <pt x="194" y="545" on="0"/>
        <pt x="194" y="480" on="1"/>
        <pt x="194" y="421" on="0"/>
        <pt x="228" y="372" on="0"/>
        <pt x="260" y="372" on="1"/>
      </contour>
    </TTGlyph>
    <TTGlyph name="Cacute" xMin="60" yMin="-9" xMax="384" yMax="842">
      <component glyphName="C" x="0" y="0" flags="0x400"/>
      <component glyphName="acutecomb.case" x="32" y="0" flags="0x0"/>
    </TTGlyph>
    <TTGlyph name="Ccaron" xMin="60" yMin="-9" xMax="395" yMax="838">
      <component glyphName="C" x="0" y="0" flags="0x400"/>
      <component glyphName="uni030C.case" x="32" y="0" flags="0x0"/>
    </TTGlyph>
    <TTGlyph name="Ccedilla" xMin="60" yMin="-192" xMax="384" yMax="647">
      <component glyphName="C" x="0" y="0" flags="0x400"/>
      <component glyphName="uni0327" x="0" y="0" flags="0x0"/>
    </TTGlyph>
    <TTGlyph name="Ccircumflex" xMin="60" yMin="-9" xMax="395" yMax="842">
      <component glyphName="C" x="0" y="0" flags="0x400"/>
      <component glyphName="uni0302.case" x="32" y="0" flags="0x0"/>
    </TTGlyph>
    <TTGlyph name="Cdotaccent" xMin="60" yMin="-9" xMax="384" yMax="818">
      <component glyphName="C" x="0" y="0" flags="0x400"/>
      <component glyphName="uni0307.case" x="32" y="0" flags="0x0"/>
    </TTGlyph>
    <TTGlyph name="Chi" xMin="47" yMin="0" xMax="400" yMax="640">
      <component glyphName="X" x="0" y="0" flags="0x400"/>
    </TTGlyph>
    <TTGlyph name="D" xMin="60" yMin="0" xMax="394" yMax="640">
      <contour>
        <pt x="257" y="640" on="0"/>
        <pt x="351" y="574" on="0"/>
        <pt x="394" y="433" on="0"/>
        <pt x="394" y="317" on="1"/>
        <pt x="394" y="201" on="0"/>
        <pt x="351" y="63" on="0"/>
        <pt x="258" y="0" on="0"/>
        <pt x="181" y="0" on="1"/>
        <pt x="60" y="0" on="1"/>
        <pt x="60" y="640" on="1"/>
        <pt x="180" y="640" on="1"/>
      </contour>
      <contour>
        <pt x="237" y="64" on="0"/>
        <pt x="298" y="115" on="0"/>
        <pt x="316" y="218" on="0"/>
        <pt x="316" y="317" on="1"/>
        <pt x="316" y="418" on="0"/>
        <pt x="297" y="524" on="0"/>
        <pt x="236" y="576" on="0"/>
        <pt x="174" y="576" on="1"/>
        <pt x="132" y="576" on="1"/>
        <pt x="132" y="64" on="1"/>
        <pt x="174" y="64" on="1"/>
      </contour>
    </TTGlyph>
    <TTGlyph name="D.hex" xMin="60" yMin="0" xMax="394" yMax="576">
      <contour>
        <pt x="257" y="576" on="0"/>
        <pt x="351" y="517" on="0"/>
        <pt x="394" y="389" on="0"/>
        <pt x="394" y="285" on="1"/>
        <pt x="394" y="180" on="0"/>
        <pt x="351" y="56" on="0"/>
        <pt x="258" y="0" on="0"/>
        <pt x="181" y="0" on="1"/>
        <pt x="60" y="0" on="1"/>
        <pt x="60" y="576" on="1"/>
        <pt x="180" y="576" on="1"/>
      </contour>
      <contour>
        <pt x="237" y="64" on="0"/>
        <pt x="298" y="109" on="0"/>
        <pt x="316" y="199" on="0"/>
        <pt x="316" y="285" on="1"/>
        <pt x="316" y="373" on="0"/>
        <pt x="297" y="466" on="0"/>
        <pt x="236" y="512" on="0"/>
        <pt x="174" y="512" on="1"/>
        <pt x="132" y="512" on="1"/>
        <pt x="132" y="64" on="1"/>
        <pt x="174" y="64" on="1"/>
      </contour>
    </TTGlyph>
    <TTGlyph name="D.sups" xMin="115" yMin="320" xMax="338" yMax="640">
      <contour>
        <pt x="115" y="640" on="1"/>
        <pt x="209" y="640" on="1"/>
        <pt x="276" y="640" on="0"/>
        <pt x="338" y="563" on="0"/>
        <pt x="338" y="478" on="1"/>
        <pt x="338" y="394" on="0"/>
        <pt x="275" y="320" on="0"/>
        <pt x="210" y="320" on="1"/>
        <pt x="115" y="320" on="1"/>
      </contour>
      <contour>
        <pt x="232" y="374" on="0"/>
        <pt x="259" y="393" on="0"/>
        <pt x="270" y="437" on="0"/>
        <pt x="270" y="478" on="1"/>
        <pt x="270" y="521" on="0"/>
        <pt x="260" y="566" on="0"/>
        <pt x="233" y="586" on="0"/>
        <pt x="206" y="586" on="1"/>
        <pt x="179" y="586" on="1"/>
        <pt x="179" y="374" on="1"/>
        <pt x="206" y="374" on="1"/>
      </contour>
    </TTGlyph>
    <TTGlyph name="Dcaron" xMin="60" yMin="0" xMax="394" yMax="838">
      <component glyphName="D" x="0" y="0" flags="0x400"/>
      <component glyphName="uni030C.case" x="-12" y="0" flags="0x0"/>
    </TTGlyph>
    <TTGlyph name="Dcroat" xMin="5" yMin="0" xMax="394" yMax="640">
      <component glyphName="Eth" x="0" y="0" flags="0x400"/>
    </TTGlyph>
    <TTGlyph name="E" xMin="60" yMin="0" xMax="384" yMax="640">
      <contour>
        <pt x="60" y="640" on="1"/>
        <pt x="374" y="640" on="1"/>
        <pt x="374" y="576" on="1"/>
        <pt x="132" y="576" on="1"/>
        <pt x="132" y="320" on="1"/>
        <pt x="320" y="320" on="1"/>
        <pt x="320" y="256" on="1"/>
        <pt x="132" y="256" on="1"/>
        <pt x="132" y="64" on="1"/>
        <pt x="384" y="64" on="1"/>
        <pt x="384" y="0" on="1"/>
        <pt x="60" y="0" on="1"/>
      </contour>
    </TTGlyph>
    <TTGlyph name="E.hex" xMin="60" yMin="0" xMax="384" yMax="576">
      <contour>
        <pt x="60" y="576" on="1"/>
        <pt x="374" y="576" on="1"/>
        <pt x="374" y="512" on="1"/>
        <pt x="132" y="512" on="1"/>
        <pt x="132" y="304" on="1"/>
        <pt x="320" y="304" on="1"/>
        <pt x="320" y="240" on="1"/>
        <pt x="132" y="240" on="1"/>
        <pt x="132" y="64" on="1"/>
        <pt x="384" y="64" on="1"/>
        <pt x="384" y="0" on="1"/>
        <pt x="60" y="0" on="1"/>
      </contour>
    </TTGlyph>
    <TTGlyph name="E.short" xMin="60" yMin="0" xMax="384" yMax="576">
      <component glyphName="E.hex" x="0" y="0" flags="0x400"/>
    </TTGlyph>
    <TTGlyph name="E.sups" xMin="128" yMin="320" xMax="316" yMax="640">
      <contour>
        <pt x="128" y="640" on="1"/>
        <pt x="312" y="640" on="1"/>
        <pt x="312" y="586" on="1"/>
        <pt x="192" y="586" on="1"/>
        <pt x="192" y="509" on="1"/>
        <pt x="300" y="509" on="1"/>
        <pt x="300" y="455" on="1"/>
        <pt x="192" y="455" on="1"/>
        <pt x="192" y="374" on="1"/>
        <pt x="316" y="374" on="1"/>
        <pt x="316" y="320" on="1"/>
        <pt x="128" y="320" on="1"/>
      </contour>
    </TTGlyph>
    <TTGlyph name="Eacute" xMin="60" yMin="0" xMax="384" yMax="842">
      <component glyphName="E" x="0" y="0" flags="0x400"/>
      <component glyphName="acutecomb.case" x="-4" y="0" flags="0x0"/>
    </TTGlyph>
    <TTGlyph name="Ebreve" xMin="60" yMin="0" xMax="384" yMax="836">
      <component glyphName="E" x="0" y="0" flags="0x400"/>
      <component glyphName="uni0306.case" x="-4" y="0" flags="0x0"/>
    </TTGlyph>
    <TTGlyph name="Ecaron" xMin="60" yMin="0" xMax="384" yMax="838">
      <component glyphName="E" x="0" y="0" flags="0x400"/>
      <component glyphName="uni030C.case" x="-4" y="0" flags="0x0"/>
    </TTGlyph>
    <TTGlyph name="Ecircumflex" xMin="60" yMin="0" xMax="384" yMax="842">
      <component glyphName="E" x="0" y="0" flags="0x400"/>
      <component glyphName="uni0302.case" x="-4" y="0" flags="0x0"/>
    </TTGlyph>
    <TTGlyph name="Edieresis" xMin="60" yMin="0" xMax="384" yMax="816">
      <component glyphName="E" x="0" y="0" flags="0x400"/>
      <component glyphName="uni0308.case" x="-4" y="0" flags="0x0"/>
    </TTGlyph>
    <TTGlyph name="Edotaccent" xMin="60" yMin="0" xMax="384" yMax="818">
      <component glyphName="E" x="0" y="0" flags="0x400"/>
      <component glyphName="uni0307.case" x="-4" y="0" flags="0x0"/>
    </TTGlyph>
    <TTGlyph name="Egrave" xMin="60" yMin="0" xMax="384" yMax="842">
      <component glyphName="E" x="0" y="0" flags="0x400"/>
      <component glyphName="gravecomb.case" x="-4" y="0" flags="0x0"/>
    </TTGlyph>
    <TTGlyph name="Emacron" xMin="60" yMin="0" xMax="384" yMax="770">
      <component glyphName="E" x="0" y="0" flags="0x400"/>
      <component glyphName="uni0304.case" x="-4" y="0" flags="0x0"/>
    </TTGlyph>
    <TTGlyph name="Eng" xMin="58" yMin="-12" xMax="388" yMax="644">
      <contour>
        <pt x="60" y="576" on="1"/>
        <pt x="58" y="640" on="1"/>
        <pt x="124" y="640" on="1"/>
        <pt x="129" y="585" on="1"/>
        <pt x="191" y="644" on="0"/>
        <pt x="259" y="644" on="1"/>
        <pt x="317" y="644" on="0"/>
        <pt x="388" y="571" on="0"/>
        <pt x="388" y="495" on="1"/>
        <pt x="388" y="179" on="1"/>
        <pt x="388" y="107" on="0"/>
        <pt x="334" y="16" on="0"/>
        <pt x="268" y="-12" on="1"/>
        <pt x="239" y="48" on="1"/>
        <pt x="284" y="67" on="0"/>
        <pt x="316" y="118" on="0"/>
        <pt x="316" y="171" on="1"/>
        <pt x="316" y="493" on="1"/>
        <pt x="316" y="580" on="0"/>
        <pt x="245" y="580" on="1"/>
        <pt x="190" y="580" on="0"/>
        <pt x="132" y="522" on="1"/>
        <pt x="132" y="0" on="1"/>
        <pt x="60" y="0" on="1"/>
      </contour>
    </TTGlyph>
    <TTGlyph name="Eng.loclNSM" xMin="60" yMin="-196" xMax="388" yMax="640">
      <contour>
        <pt x="388" y="-77" on="0"/>
        <pt x="334" y="-168" on="0"/>
        <pt x="268" y="-196" on="1"/>
        <pt x="239" y="-136" on="1"/>
        <pt x="284" y="-117" on="0"/>
        <pt x="316" y="-66" on="0"/>
        <pt x="316" y="-13" on="1"/>
        <pt x="316" y="3" on="1"/>
        <pt x="166" y="384" on="1"/>
        <pt x="132" y="513" on="1"/>
        <pt x="132" y="0" on="1"/>
        <pt x="60" y="0" on="1"/>
        <pt x="60" y="640" on="1"/>
        <pt x="142" y="640" on="1"/>
        <pt x="292" y="259" on="1"/>
        <pt x="316" y="167" on="1"/>
        <pt x="316" y="640" on="1"/>
        <pt x="388" y="640" on="1"/>
        <pt x="388" y="-5" on="1"/>
      </contour>
    </TTGlyph>
    <TTGlyph name="Eogonek" xMin="60" yMin="-197" xMax="401" yMax="640">
      <component glyphName="E" x="0" y="0" flags="0x400"/>
      <component glyphName="uni0328" x="0" y="0" flags="0x0"/>
    </TTGlyph>
    <TTGlyph name="Epsilon" xMin="60" yMin="0" xMax="384" yMax="640">
      <component glyphName="E" x="0" y="0" flags="0x400"/>
    </TTGlyph>
    <TTGlyph name="Epsilontonos" xMin="-69" yMin="0" xMax="384" yMax="704">
      <component glyphName="E" x="0" y="0" flags="0x400"/>
      <component glyphName="tonos" x="-256" y="0" flags="0x0"/>
    </TTGlyph>
    <TTGlyph name="Eta" xMin="60" yMin="0" xMax="388" yMax="640">
      <component glyphName="H" x="0" y="0" flags="0x400"/>
    </TTGlyph>
    <TTGlyph name="Etatonos" xMin="-69" yMin="0" xMax="388" yMax="704">
      <component glyphName="H" x="0" y="0" flags="0x400"/>
      <component glyphName="tonos" x="-256" y="0" flags="0x0"/>
    </TTGlyph>
    <TTGlyph name="Eth" xMin="5" yMin="0" xMax="394" yMax="640">
      <contour>
        <pt x="60" y="320" on="1"/>
        <pt x="60" y="640" on="1"/>
        <pt x="180" y="640" on="1"/>
        <pt x="257" y="640" on="0"/>
        <pt x="351" y="574" on="0"/>
        <pt x="394" y="433" on="0"/>
        <pt x="394" y="317" on="1"/>
        <pt x="394" y="201" on="0"/>
        <pt x="351" y="63" on="0"/>
        <pt x="258" y="0" on="0"/>
        <pt x="181" y="0" on="1"/>
        <pt x="60" y="0" on="1"/>
        <pt x="60" y="256" on="1"/>
        <pt x="5" y="256" on="1"/>
        <pt x="5" y="320" on="1"/>
      </contour>
      <contour>
        <pt x="237" y="64" on="0"/>
        <pt x="298" y="115" on="0"/>
        <pt x="316" y="218" on="0"/>
        <pt x="316" y="317" on="1"/>
        <pt x="316" y="418" on="0"/>
        <pt x="297" y="524" on="0"/>
        <pt x="236" y="576" on="0"/>
        <pt x="174" y="576" on="1"/>
        <pt x="132" y="576" on="1"/>
        <pt x="132" y="320" on="1"/>
        <pt x="236" y="320" on="1"/>
        <pt x="236" y="256" on="1"/>
        <pt x="132" y="256" on="1"/>
        <pt x="132" y="64" on="1"/>
        <pt x="174" y="64" on="1"/>
      </contour>
    </TTGlyph>
    <TTGlyph name="Euro" xMin="64" yMin="-7" xMax="409" yMax="583">
      <contour>
        <pt x="348" y="57" on="0"/>
        <pt x="393" y="72" on="1"/>
        <pt x="409" y="13" on="1"/>
        <pt x="386" y="3" on="0"/>
        <pt x="331" y="-7" on="0"/>
        <pt x="308" y="-7" on="1"/>
        <pt x="225" y="-7" on="0"/>
        <pt x="132" y="93" on="0"/>
        <pt x="118" y="192" on="1"/>
        <pt x="64" y="192" on="1"/>
        <pt x="64" y="254" on="1"/>
        <pt x="113" y="254" on="1"/>
        <pt x="112" y="265" on="0"/>
        <pt x="112" y="288" on="1"/>
        <pt x="112" y="311" on="0"/>
        <pt x="113" y="322" on="1"/>
        <pt x="64" y="322" on="1"/>
        <pt x="64" y="384" on="1"/>
        <pt x="118" y="384" on="1"/>
        <pt x="146" y="583" on="0"/>
        <pt x="308" y="583" on="1"/>
        <pt x="331" y="583" on="0"/>
        <pt x="386" y="573" on="0"/>
        <pt x="409" y="563" on="1"/>
        <pt x="393" y="504" on="1"/>
        <pt x="348" y="519" on="0"/>
        <pt x="308" y="519" on="1"/>
        <pt x="259" y="519" on="0"/>
        <pt x="200" y="455" on="0"/>
        <pt x="190" y="384" on="1"/>
        <pt x="367" y="384" on="1"/>
        <pt x="352" y="322" on="1"/>
        <pt x="185" y="322" on="1"/>
        <pt x="184" y="311" on="0"/>
        <pt x="184" y="288" on="1"/>
        <pt x="184" y="265" on="0"/>
        <pt x="185" y="254" on="1"/>
        <pt x="339" y="254" on="1"/>
        <pt x="325" y="192" on="1"/>
        <pt x="190" y="192" on="1"/>
        <pt x="200" y="119" on="0"/>
        <pt x="258" y="57" on="0"/>
        <pt x="308" y="57" on="1"/>
      </contour>
    </TTGlyph>
    <TTGlyph name="F" xMin="60" yMin="0" xMax="384" yMax="640">
      <contour>
        <pt x="60" y="640" on="1"/>
        <pt x="384" y="640" on="1"/>
        <pt x="384" y="576" on="1"/>
        <pt x="132" y="576" on="1"/>
        <pt x="132" y="320" on="1"/>
        <pt x="320" y="320" on="1"/>
        <pt x="320" y="256" on="1"/>
        <pt x="132" y="256" on="1"/>
        <pt x="132" y="0" on="1"/>
        <pt x="60" y="0" on="1"/>
      </contour>
    </TTGlyph>
    <TTGlyph name="F.hex" xMin="60" yMin="0" xMax="384" yMax="576">
      <contour>
        <pt x="60" y="576" on="1"/>
        <pt x="384" y="576" on="1"/>
        <pt x="384" y="512" on="1"/>
        <pt x="132" y="512" on="1"/>
        <pt x="132" y="304" on="1"/>
        <pt x="320" y="304" on="1"/>
        <pt x="320" y="240" on="1"/>
        <pt x="132" y="240" on="1"/>
        <pt x="132" y="0" on="1"/>
        <pt x="60" y="0" on="1"/>
      </contour>
    </TTGlyph>
    <TTGlyph name="F.sups" xMin="128" yMin="320" xMax="320" yMax="640">
      <contour>
        <pt x="128" y="640" on="1"/>
        <pt x="320" y="640" on="1"/>
        <pt x="320" y="586" on="1"/>
        <pt x="192" y="586" on="1"/>
        <pt x="192" y="502" on="1"/>
        <pt x="300" y="502" on="1"/>
        <pt x="300" y="448" on="1"/>
        <pt x="192" y="448" on="1"/>
        <pt x="192" y="320" on="1"/>
        <pt x="128" y="320" on="1"/>
      </contour>
    </TTGlyph>
    <TTGlyph name="G" xMin="54" yMin="-9" xMax="388" yMax="647">
      <contour>
        <pt x="189" y="-9" on="0"/>
        <pt x="96" y="55" on="0"/>
        <pt x="54" y="197" on="0"/>
        <pt x="54" y="319" on="1"/>
        <pt x="54" y="441" on="0"/>
        <pt x="96" y="583" on="0"/>
        <pt x="189" y="647" on="0"/>
        <pt x="268" y="647" on="1"/>
        <pt x="328" y="647" on="0"/>
        <pt x="385" y="632" on="1"/>
        <pt x="371" y="571" on="1"/>
        <pt x="320" y="583" on="0"/>
        <pt x="274" y="583" on="1"/>
        <pt x="210" y="583" on="0"/>
        <pt x="150" y="531" on="0"/>
        <pt x="132" y="425" on="0"/>
        <pt x="132" y="319" on="1"/>
        <pt x="132" y="213" on="0"/>
        <pt x="150" y="107" on="0"/>
        <pt x="210" y="55" on="0"/>
        <pt x="274" y="55" on="1"/>
        <pt x="291" y="55" on="0"/>
        <pt x="316" y="58" on="1"/>
        <pt x="316" y="256" on="1"/>
        <pt x="226" y="256" on="1"/>
        <pt x="226" y="320" on="1"/>
        <pt x="388" y="320" on="1"/>
        <pt x="388" y="7" on="1"/>
        <pt x="361" y="-1" on="0"/>
        <pt x="295" y="-9" on="0"/>
        <pt x="268" y="-9" on="1"/>
      </contour>
    </TTGlyph>
    <TTGlyph name="G.sups" xMin="103" yMin="315" xMax="322" yMax="647">
      <contour>
        <pt x="163" y="315" on="0"/>
        <pt x="103" y="391" on="0"/>
        <pt x="103" y="481" on="1"/>
        <pt x="103" y="567" on="0"/>
        <pt x="166" y="647" on="0"/>
        <pt x="236" y="647" on="1"/>
        <pt x="277" y="647" on="0"/>
        <pt x="322" y="638" on="1"/>
        <pt x="313" y="583" on="1"/>
        <pt x="267" y="591" on="0"/>
        <pt x="239" y="591" on="1"/>
        <pt x="207" y="591" on="0"/>
        <pt x="178" y="569" on="0"/>
        <pt x="169" y="525" on="0"/>
        <pt x="169" y="481" on="1"/>
        <pt x="169" y="437" on="0"/>
        <pt x="179" y="391" on="0"/>
        <pt x="204" y="371" on="0"/>
        <pt x="228" y="371" on="1"/>
        <pt x="257" y="373" on="1"/>
        <pt x="257" y="512" on="1"/>
        <pt x="321" y="512" on="1"/>
        <pt x="321" y="325" on="1"/>
        <pt x="273" y="315" on="0"/>
        <pt x="226" y="315" on="1"/>
      </contour>
    </TTGlyph>
    <TTGlyph name="Gamma" xMin="60" yMin="0" xMax="384" yMax="640">
      <component glyphName="uni0413" x="0" y="0" flags="0x400"/>
    </TTGlyph>
    <TTGlyph name="Gbreve" xMin="54" yMin="-9" xMax="388" yMax="836">
      <component glyphName="G" x="0" y="0" flags="0x400"/>
      <component glyphName="uni0306.case" x="20" y="0" flags="0x0"/>
    </TTGlyph>
    <TTGlyph name="Gcaron" xMin="54" yMin="-9" xMax="388" yMax="838">
      <component glyphName="G" x="0" y="0" flags="0x400"/>
      <component glyphName="uni030C.case" x="20" y="0" flags="0x0"/>
    </TTGlyph>
    <TTGlyph name="Gcircumflex" xMin="54" yMin="-9" xMax="388" yMax="842">
      <component glyphName="G" x="0" y="0" flags="0x400"/>
      <component glyphName="uni0302.case" x="20" y="0" flags="0x0"/>
    </TTGlyph>
    <TTGlyph name="Gdotaccent" xMin="54" yMin="-9" xMax="388" yMax="818">
      <component glyphName="G" x="0" y="0" flags="0x400"/>
      <component glyphName="uni0307.case" x="20" y="0" flags="0x0"/>
    </TTGlyph>
    <TTGlyph name="H" xMin="60" yMin="0" xMax="388" yMax="640">
      <contour>
        <pt x="60" y="640" on="1"/>
        <pt x="132" y="640" on="1"/>
        <pt x="132" y="320" on="1"/>
        <pt x="316" y="320" on="1"/>
        <pt x="316" y="640" on="1"/>
        <pt x="388" y="640" on="1"/>
        <pt x="388" y="0" on="1"/>
        <pt x="316" y="0" on="1"/>
        <pt x="316" y="256" on="1"/>
        <pt x="132" y="256" on="1"/>
        <pt x="132" y="0" on="1"/>
        <pt x="60" y="0" on="1"/>
      </contour>
    </TTGlyph>
    <TTGlyph name="H.sups" xMin="118" yMin="320" xMax="330" yMax="640">
      <contour>
        <pt x="182" y="508" on="1"/>
        <pt x="266" y="508" on="1"/>
        <pt x="266" y="640" on="1"/>
        <pt x="330" y="640" on="1"/>
        <pt x="330" y="320" on="1"/>
        <pt x="266" y="320" on="1"/>
        <pt x="266" y="452" on="1"/>
        <pt x="182" y="452" on="1"/>
        <pt x="182" y="320" on="1"/>
        <pt x="118" y="320" on="1"/>
        <pt x="118" y="640" on="1"/>
        <pt x="182" y="640" on="1"/>
      </contour>
    </TTGlyph>
    <TTGlyph name="Hbar" xMin="10" yMin="0" xMax="438" yMax="640">
      <contour>
        <pt x="60" y="500" on="1"/>
        <pt x="60" y="640" on="1"/>
        <pt x="132" y="640" on="1"/>
        <pt x="132" y="500" on="1"/>
        <pt x="316" y="500" on="1"/>
        <pt x="316" y="640" on="1"/>
        <pt x="388" y="640" on="1"/>
        <pt x="388" y="500" on="1"/>
        <pt x="438" y="500" on="1"/>
        <pt x="438" y="440" on="1"/>
        <pt x="388" y="440" on="1"/>
        <pt x="388" y="0" on="1"/>
        <pt x="316" y="0" on="1"/>
        <pt x="316" y="256" on="1"/>
        <pt x="132" y="256" on="1"/>
        <pt x="132" y="0" on="1"/>
        <pt x="60" y="0" on="1"/>
        <pt x="60" y="440" on="1"/>
        <pt x="10" y="440" on="1"/>
        <pt x="10" y="500" on="1"/>
      </contour>
      <contour>
        <pt x="316" y="320" on="1"/>
        <pt x="316" y="440" on="1"/>
        <pt x="132" y="440" on="1"/>
        <pt x="132" y="320" on="1"/>
      </contour>
    </TTGlyph>
    <TTGlyph name="Hcircumflex" xMin="60" yMin="0" xMax="388" yMax="842">
      <component glyphName="H" x="0" y="0" flags="0x400"/>
      <component glyphName="uni0302.case" x="0" y="0" flags="0x0"/>
    </TTGlyph>
    <TTGlyph name="I" xMin="72" yMin="0" xMax="376" yMax="640">
      <contour>
        <pt x="72" y="54" on="1"/>
        <pt x="188" y="64" on="1"/>
        <pt x="188" y="576" on="1"/>
        <pt x="76" y="586" on="1"/>
        <pt x="76" y="640" on="1"/>
        <pt x="372" y="640" on="1"/>
        <pt x="372" y="586" on="1"/>
        <pt x="260" y="576" on="1"/>
        <pt x="260" y="64" on="1"/>
        <pt x="376" y="54" on="1"/>
        <pt x="376" y="0" on="1"/>
        <pt x="72" y="0" on="1"/>
      </contour>
    </TTGlyph>
    <TTGlyph name="I.cv02" xMin="188" yMin="0" xMax="260" yMax="640">
      <contour>
        <pt x="188" y="640" on="1"/>
        <pt x="260" y="640" on="1"/>
        <pt x="260" y="0" on="1"/>
        <pt x="188" y="0" on="1"/>
      </contour>
    </TTGlyph>
    <TTGlyph name="I.short" xMin="72" yMin="0" xMax="376" yMax="576">
      <contour>
        <pt x="72" y="54" on="1"/>
        <pt x="188" y="64" on="1"/>
        <pt x="188" y="512" on="1"/>
        <pt x="76" y="522" on="1"/>
        <pt x="76" y="576" on="1"/>
        <pt x="372" y="576" on="1"/>
        <pt x="372" y="522" on="1"/>
        <pt x="260" y="512" on="1"/>
        <pt x="260" y="64" on="1"/>
        <pt x="376" y="54" on="1"/>
        <pt x="376" y="0" on="1"/>
        <pt x="72" y="0" on="1"/>
      </contour>
    </TTGlyph>
    <TTGlyph name="I.short.cv03" xMin="188" yMin="0" xMax="260" yMax="576">
      <contour>
        <pt x="188" y="576" on="1"/>
        <pt x="260" y="576" on="1"/>
        <pt x="260" y="0" on="1"/>
        <pt x="188" y="0" on="1"/>
      </contour>
    </TTGlyph>
    <TTGlyph name="I.sups" xMin="128" yMin="320" xMax="320" yMax="640">
      <contour>
        <pt x="320" y="320" on="1"/>
        <pt x="128" y="320" on="1"/>
        <pt x="128" y="368" on="1"/>
        <pt x="192" y="376" on="1"/>
        <pt x="192" y="584" on="1"/>
        <pt x="128" y="592" on="1"/>
        <pt x="128" y="640" on="1"/>
        <pt x="320" y="640" on="1"/>
        <pt x="320" y="592" on="1"/>
        <pt x="256" y="584" on="1"/>
        <pt x="256" y="376" on="1"/>
        <pt x="320" y="368" on="1"/>
      </contour>
    </TTGlyph>
    <TTGlyph name="Iacute" xMin="72" yMin="0" xMax="376" yMax="842">
      <component glyphName="I" x="0" y="0" flags="0x400"/>
      <component glyphName="acutecomb.case" x="0" y="0" flags="0x0"/>
    </TTGlyph>
    <TTGlyph name="Iacute.cv02" xMin="188" yMin="0" xMax="340" yMax="842">
      <component glyphName="I.cv02" x="0" y="0" flags="0x400"/>
      <component glyphName="acutecomb.case" x="0" y="0" flags="0x0"/>
    </TTGlyph>
    <TTGlyph name="Ibreve" xMin="72" yMin="0" xMax="376" yMax="836">
      <component glyphName="I" x="0" y="0" flags="0x400"/>
      <component glyphName="uni0306.case" x="0" y="0" flags="0x0"/>
    </TTGlyph>
    <TTGlyph name="Ibreve.cv02" xMin="93" yMin="0" xMax="355" yMax="836">
      <component glyphName="I.cv02" x="0" y="0" flags="0x400"/>
      <component glyphName="uni0306.case" x="0" y="0" flags="0x0"/>
    </TTGlyph>
    <TTGlyph name="Icircumflex" xMin="72" yMin="0" xMax="376" yMax="842">
      <component glyphName="I" x="0" y="0" flags="0x400"/>
      <component glyphName="uni0302.case" x="0" y="0" flags="0x0"/>
    </TTGlyph>
    <TTGlyph name="Icircumflex.cv02" xMin="85" yMin="0" xMax="363" yMax="842">
      <component glyphName="I.cv02" x="0" y="0" flags="0x400"/>
      <component glyphName="uni0302.case" x="0" y="0" flags="0x0"/>
    </TTGlyph>
    <TTGlyph name="Idieresis" xMin="72" yMin="0" xMax="376" yMax="816">
      <component glyphName="I" x="0" y="0" flags="0x400"/>
      <component glyphName="uni0308.case" x="0" y="0" flags="0x0"/>
    </TTGlyph>
    <TTGlyph name="Idieresis.cv02" xMin="82" yMin="0" xMax="366" yMax="816">
      <component glyphName="I.cv02" x="0" y="0" flags="0x400"/>
      <component glyphName="uni0308.case" x="0" y="0" flags="0x0"/>
    </TTGlyph>
    <TTGlyph name="Idotaccent" xMin="72" yMin="0" xMax="376" yMax="818">
      <component glyphName="I" x="0" y="0" flags="0x400"/>
      <component glyphName="uni0307.case" x="0" y="0" flags="0x0"/>
    </TTGlyph>
    <TTGlyph name="Idotaccent.cv02" xMin="165" yMin="0" xMax="283" yMax="818">
      <component glyphName="I.cv02" x="0" y="0" flags="0x400"/>
      <component glyphName="uni0307.case" x="0" y="0" flags="0x0"/>
    </TTGlyph>
    <TTGlyph name="Igrave" xMin="72" yMin="0" xMax="376" yMax="842">
      <component glyphName="I" x="0" y="0" flags="0x400"/>
      <component glyphName="gravecomb.case" x="0" y="0" flags="0x0"/>
    </TTGlyph>
    <TTGlyph name="Igrave.cv02" xMin="108" yMin="0" xMax="260" yMax="842">
      <component glyphName="I.cv02" x="0" y="0" flags="0x400"/>
      <component glyphName="gravecomb.case" x="0" y="0" flags="0x0"/>
    </TTGlyph>
    <TTGlyph name="Imacron" xMin="72" yMin="0" xMax="376" yMax="770">
      <component glyphName="I" x="0" y="0" flags="0x400"/>
      <component glyphName="uni0304.case" x="0" y="0" flags="0x0"/>
    </TTGlyph>
    <TTGlyph name="Imacron.cv02" xMin="100" yMin="0" xMax="348" yMax="770">
      <component glyphName="I.cv02" x="0" y="0" flags="0x400"/>
      <component glyphName="uni0304.case" x="0" y="0" flags="0x0"/>
    </TTGlyph>
    <TTGlyph name="Iogonek" xMin="72" yMin="-197" xMax="393" yMax="640">
      <component glyphName="I" x="0" y="0" flags="0x400"/>
      <component glyphName="uni0328" x="-8" y="0" flags="0x0"/>
    </TTGlyph>
    <TTGlyph name="Iogonek.cv02" xMin="129" yMin="-197" xMax="277" yMax="640">
      <component glyphName="I.cv02" x="0" y="0" flags="0x400"/>
      <component glyphName="uni0328" x="-124" y="0" flags="0x0"/>
    </TTGlyph>
    <TTGlyph name="Iota" xMin="72" yMin="0" xMax="376" yMax="640">
      <component glyphName="I" x="0" y="0" flags="0x400"/>
    </TTGlyph>
    <TTGlyph name="Iotadieresis" xMin="72" yMin="0" xMax="376" yMax="816">
      <component glyphName="I" x="0" y="0" flags="0x400"/>
      <component glyphName="uni0308.case" x="0" y="0" flags="0x0"/>
    </TTGlyph>
    <TTGlyph name="Iotatonos" xMin="-69" yMin="0" xMax="376" yMax="704">
      <component glyphName="I" x="0" y="0" flags="0x400"/>
      <component glyphName="tonos" x="-256" y="0" flags="0x0"/>
    </TTGlyph>
    <TTGlyph name="Itilde" xMin="70" yMin="0" xMax="378" yMax="837">
      <component glyphName="I" x="0" y="0" flags="0x400"/>
      <component glyphName="tildecomb.case" x="0" y="0" flags="0x0"/>
    </TTGlyph>
    <TTGlyph name="Itilde.cv02" xMin="70" yMin="0" xMax="378" yMax="837">
      <component glyphName="I.cv02" x="0" y="0" flags="0x400"/>
      <component glyphName="tildecomb.case" x="0" y="0" flags="0x0"/>
    </TTGlyph>
    <TTGlyph name="J" xMin="62" yMin="-8" xMax="388" yMax="640">
      <contour>
        <pt x="140" y="96" on="0"/>
        <pt x="183" y="56" on="0"/>
        <pt x="224" y="56" on="1"/>
        <pt x="276" y="56" on="0"/>
        <pt x="316" y="113" on="0"/>
        <pt x="316" y="169" on="1"/>
        <pt x="316" y="576" on="1"/>
        <pt x="162" y="576" on="1"/>
        <pt x="162" y="640" on="1"/>
        <pt x="388" y="640" on="1"/>
        <pt x="388" y="173" on="1"/>
        <pt x="388" y="80" on="0"/>
        <pt x="300" y="-8" on="0"/>
        <pt x="224" y="-8" on="1"/>
        <pt x="90" y="-8" on="0"/>
        <pt x="62" y="120" on="1"/>
        <pt x="130" y="137" on="1"/>
      </contour>
    </TTGlyph>
    <TTGlyph name="J.cv03" xMin="62" yMin="-8" xMax="388" yMax="640">
      <contour>
        <pt x="90" y="-8" on="0"/>
        <pt x="62" y="120" on="1"/>
        <pt x="130" y="137" on="1"/>
        <pt x="140" y="96" on="0"/>
        <pt x="183" y="56" on="0"/>
        <pt x="224" y="56" on="1"/>
        <pt x="276" y="56" on="0"/>
        <pt x="316" y="113" on="0"/>
        <pt x="316" y="169" on="1"/>
        <pt x="316" y="640" on="1"/>
        <pt x="388" y="640" on="1"/>
        <pt x="388" y="173" on="1"/>
        <pt x="388" y="80" on="0"/>
        <pt x="300" y="-8" on="0"/>
        <pt x="224" y="-8" on="1"/>
      </contour>
    </TTGlyph>
    <TTGlyph name="J.sups" xMin="128" yMin="320" xMax="320" yMax="640">
      <contour>
        <pt x="320" y="640" on="1"/>
        <pt x="320" y="384" on="1"/>
        <pt x="256" y="384" on="1"/>
        <pt x="256" y="576" on="1"/>
        <pt x="128" y="576" on="1"/>
        <pt x="128" y="640" on="1"/>
      </contour>
      <contour>
        <pt x="256" y="320" on="1"/>
        <pt x="128" y="320" on="1"/>
        <pt x="128" y="384" on="1"/>
        <pt x="256" y="384" on="1"/>
      </contour>
    </TTGlyph>
    <TTGlyph name="Jcircumflex" xMin="62" yMin="-8" xMax="409" yMax="842">
      <component glyphName="J" x="0" y="0" flags="0x400"/>
      <component glyphName="uni0302.case" x="46" y="0" flags="0x0"/>
    </TTGlyph>
    <TTGlyph name="Jcircumflex.cv03" xMin="62" yMin="-8" xMax="491" yMax="842">
      <component glyphName="J.cv03" x="0" y="0" flags="0x400"/>
      <component glyphName="uni0302.case" x="128" y="0" flags="0x0"/>
    </TTGlyph>
    <TTGlyph name="K" xMin="60" yMin="0" xMax="400" yMax="640">
      <contour>
        <pt x="60" y="640" on="1"/>
        <pt x="132" y="640" on="1"/>
        <pt x="132" y="325" on="1"/>
        <pt x="180" y="325" on="1"/>
        <pt x="241" y="399" on="0"/>
        <pt x="308" y="537" on="0"/>
        <pt x="325" y="640" on="1"/>
        <pt x="400" y="640" on="1"/>
        <pt x="383" y="535" on="0"/>
        <pt x="317" y="391" on="0"/>
        <pt x="255" y="321" on="1"/>
        <pt x="318" y="309" on="0"/>
        <pt x="383" y="225" on="0"/>
        <pt x="388" y="151" on="1"/>
        <pt x="399" y="0" on="1"/>
        <pt x="324" y="0" on="1"/>
        <pt x="316" y="146" on="1"/>
        <pt x="312" y="210" on="0"/>
        <pt x="262" y="261" on="0"/>
        <pt x="199" y="261" on="1"/>
        <pt x="132" y="261" on="1"/>
        <pt x="132" y="0" on="1"/>
        <pt x="60" y="0" on="1"/>
      </contour>
    </TTGlyph>
    <TTGlyph name="K.sups" xMin="128" yMin="320" xMax="320" yMax="640">
      <contour>
        <pt x="192" y="640" on="1"/>
        <pt x="192" y="512" on="1"/>
        <pt x="256" y="512" on="1"/>
        <pt x="256" y="448" on="1"/>
        <pt x="192" y="448" on="1"/>
        <pt x="192" y="320" on="1"/>
        <pt x="128" y="320" on="1"/>
        <pt x="128" y="640" on="1"/>
      </contour>
      <contour>
        <pt x="320" y="640" on="1"/>
        <pt x="320" y="512" on="1"/>
        <pt x="256" y="512" on="1"/>
        <pt x="256" y="640" on="1"/>
      </contour>
      <contour>
        <pt x="320" y="448" on="1"/>
        <pt x="320" y="320" on="1"/>
        <pt x="256" y="320" on="1"/>
        <pt x="256" y="448" on="1"/>
      </contour>
    </TTGlyph>
    <TTGlyph name="Kappa" xMin="60" yMin="0" xMax="400" yMax="640">
      <component glyphName="K" x="0" y="0" flags="0x400"/>
    </TTGlyph>
    <TTGlyph name="L" xMin="60" yMin="0" xMax="384" yMax="640">
      <contour>
        <pt x="60" y="640" on="1"/>
        <pt x="132" y="640" on="1"/>
        <pt x="132" y="64" on="1"/>
        <pt x="384" y="64" on="1"/>
        <pt x="384" y="0" on="1"/>
        <pt x="60" y="0" on="1"/>
      </contour>
    </TTGlyph>
    <TTGlyph name="L.sups" xMin="128" yMin="320" xMax="320" yMax="640">
      <contour>
        <pt x="320" y="320" on="1"/>
        <pt x="128" y="320" on="1"/>
        <pt x="128" y="640" on="1"/>
        <pt x="192" y="640" on="1"/>
        <pt x="192" y="376" on="1"/>
        <pt x="320" y="376" on="1"/>
      </contour>
    </TTGlyph>
    <TTGlyph name="Lacute" xMin="60" yMin="0" xMax="384" yMax="842">
      <component glyphName="L" x="0" y="0" flags="0x400"/>
      <component glyphName="acutecomb.case" x="-128" y="0" flags="0x0"/>
    </TTGlyph>
    <TTGlyph name="Lambda" xMin="35" yMin="0" xMax="413" yMax="643">
      <contour>
        <pt x="50" y="187" on="0"/>
        <pt x="130" y="520" on="0"/>
        <pt x="192" y="643" on="1"/>
        <pt x="256" y="643" on="1"/>
        <pt x="318" y="520" on="0"/>
        <pt x="398" y="187" on="0"/>
        <pt x="413" y="0" on="1"/>
        <pt x="338" y="0" on="1"/>
        <pt x="323" y="166" on="0"/>
        <pt x="265" y="448" on="0"/>
        <pt x="224" y="551" on="1"/>
        <pt x="183" y="448" on="0"/>
        <pt x="125" y="166" on="0"/>
        <pt x="110" y="0" on="1"/>
        <pt x="35" y="0" on="1"/>
      </contour>
    </TTGlyph>
    <TTGlyph name="Lcaron" xMin="60" yMin="0" xMax="384" yMax="640">
      <component glyphName="L" x="0" y="0" flags="0x400"/>
      <component glyphName="uni030C.alt" x="-64" y="0" flags="0x0"/>
    </TTGlyph>
    <TTGlyph name="Ldot" xMin="60" yMin="0" xMax="384" yMax="640">
      <component glyphName="L" x="0" y="0" flags="0x400"/>
      <component glyphName="period" x="128" y="256" flags="0x4"/>
    </TTGlyph>
    <TTGlyph name="Lslash" xMin="-39" yMin="0" xMax="384" yMax="640">
      <component glyphName="L" x="0" y="0" flags="0x400"/>
      <component glyphName="_part.slash.comp" x="-112" y="0" flags="0x0"/>
    </TTGlyph>
    <TTGlyph name="M" xMin="14" yMin="0" xMax="434" yMax="640">
      <contour>
        <pt x="19" y="356" on="0"/>
        <pt x="39" y="640" on="1"/>
        <pt x="126" y="640" on="1"/>
        <pt x="223" y="271" on="1"/>
        <pt x="225" y="271" on="1"/>
        <pt x="322" y="640" on="1"/>
        <pt x="409" y="640" on="1"/>
        <pt x="429" y="356" on="0"/>
        <pt x="434" y="0" on="1"/>
        <pt x="362" y="0" on="1"/>
        <pt x="362" y="219" on="0"/>
        <pt x="350" y="510" on="1"/>
        <pt x="348" y="510" on="1"/>
        <pt x="252" y="150" on="1"/>
        <pt x="196" y="150" on="1"/>
        <pt x="99" y="510" on="1"/>
        <pt x="97" y="510" on="1"/>
        <pt x="86" y="243" on="0"/>
        <pt x="86" y="0" on="1"/>
        <pt x="14" y="0" on="1"/>
      </contour>
    </TTGlyph>
    <TTGlyph name="M.sups" xMin="128" yMin="320" xMax="320" yMax="640">
      <contour>
        <pt x="320" y="640" on="1"/>
        <pt x="320" y="320" on="1"/>
        <pt x="256" y="320" on="1"/>
        <pt x="256" y="384" on="1"/>
        <pt x="192" y="384" on="1"/>
        <pt x="192" y="320" on="1"/>
        <pt x="128" y="320" on="1"/>
        <pt x="128" y="640" on="1"/>
      </contour>
    </TTGlyph>
    <TTGlyph name="Mu" xMin="14" yMin="0" xMax="434" yMax="640">
      <component glyphName="M" x="0" y="0" flags="0x400"/>
    </TTGlyph>
    <TTGlyph name="N" xMin="60" yMin="0" xMax="388" yMax="640">
      <contour>
        <pt x="142" y="640" on="1"/>
        <pt x="286" y="256" on="1"/>
        <pt x="316" y="132" on="1"/>
        <pt x="316" y="640" on="1"/>
        <pt x="388" y="640" on="1"/>
        <pt x="388" y="0" on="1"/>
        <pt x="306" y="0" on="1"/>
        <pt x="162" y="384" on="1"/>
        <pt x="132" y="506" on="1"/>
        <pt x="132" y="0" on="1"/>
        <pt x="60" y="0" on="1"/>
        <pt x="60" y="640" on="1"/>
      </contour>
    </TTGlyph>
    <TTGlyph name="N.sups" xMin="110" yMin="320" xMax="338" yMax="640">
      <contour>
        <pt x="110" y="640" on="1"/>
        <pt x="200" y="640" on="1"/>
        <pt x="276" y="421" on="1"/>
        <pt x="276" y="640" on="1"/>
        <pt x="338" y="640" on="1"/>
        <pt x="338" y="320" on="1"/>
        <pt x="248" y="320" on="1"/>
        <pt x="172" y="539" on="1"/>
        <pt x="172" y="320" on="1"/>
        <pt x="110" y="320" on="1"/>
      </contour>
    </TTGlyph>
    <TTGlyph name="Nacute" xMin="60" yMin="0" xMax="388" yMax="842">
      <component glyphName="N" x="0" y="0" flags="0x400"/>
      <component glyphName="acutecomb.case" x="0" y="0" flags="0x0"/>
    </TTGlyph>
    <TTGlyph name="Ncaron" xMin="60" yMin="0" xMax="388" yMax="838">
      <component glyphName="N" x="0" y="0" flags="0x400"/>
      <component glyphName="uni030C.case" x="0" y="0" flags="0x0"/>
    </TTGlyph>
    <TTGlyph name="Ntilde" xMin="60" yMin="0" xMax="388" yMax="837">
      <component glyphName="N" x="0" y="0" flags="0x400"/>
      <component glyphName="tildecomb.case" x="0" y="0" flags="0x0"/>
    </TTGlyph>
    <TTGlyph name="Nu" xMin="60" yMin="0" xMax="388" yMax="640">
      <component glyphName="N" x="0" y="0" flags="0x400"/>
    </TTGlyph>
    <TTGlyph name="O" xMin="37" yMin="-10" xMax="411" yMax="650">
      <contour>
        <pt x="37" y="-10" on="0"/>
        <pt x="37" y="319" on="1"/>
        <pt x="37" y="486" on="0"/>
        <pt x="130" y="650" on="0"/>
        <pt x="224" y="650" on="1"/>
        <pt x="320" y="650" on="0"/>
        <pt x="411" y="487" on="0"/>
        <pt x="411" y="319" on="1"/>
        <pt x="411" y="154" on="0"/>
        <pt x="320" y="-10" on="0"/>
        <pt x="224" y="-10" on="1"/>
      </contour>
      <contour>
        <pt x="265" y="56" on="0"/>
        <pt x="313" y="108" on="0"/>
        <pt x="335" y="222" on="0"/>
        <pt x="335" y="319" on="1"/>
        <pt x="335" y="417" on="0"/>
        <pt x="313" y="532" on="0"/>
        <pt x="265" y="584" on="0"/>
        <pt x="224" y="584" on="1"/>
        <pt x="183" y="584" on="0"/>
        <pt x="135" y="532" on="0"/>
        <pt x="113" y="417" on="0"/>
        <pt x="113" y="319" on="1"/>
        <pt x="113" y="222" on="0"/>
        <pt x="135" y="108" on="0"/>
        <pt x="183" y="56" on="0"/>
        <pt x="224" y="56" on="1"/>
      </contour>
    </TTGlyph>
    <TTGlyph name="O.short" xMin="37" yMin="-10" xMax="411" yMax="586">
      <contour>
        <pt x="131" y="-10" on="0"/>
        <pt x="37" y="143" on="0"/>
        <pt x="37" y="287" on="1"/>
        <pt x="37" y="431" on="0"/>
        <pt x="131" y="586" on="0"/>
        <pt x="224" y="586" on="1"/>
        <pt x="319" y="586" on="0"/>
        <pt x="411" y="432" on="0"/>
        <pt x="411" y="287" on="1"/>
        <pt x="411" y="142" on="0"/>
        <pt x="319" y="-10" on="0"/>
        <pt x="224" y="-10" on="1"/>
      </contour>
      <contour>
        <pt x="284" y="56" on="0"/>
        <pt x="335" y="166" on="0"/>
        <pt x="335" y="287" on="1"/>
        <pt x="335" y="408" on="0"/>
        <pt x="284" y="520" on="0"/>
        <pt x="224" y="520" on="1"/>
        <pt x="164" y="520" on="0"/>
        <pt x="113" y="408" on="0"/>
        <pt x="113" y="287" on="1"/>
        <pt x="113" y="166" on="0"/>
        <pt x="164" y="56" on="0"/>
        <pt x="224" y="56" on="1"/>
      </contour>
    </TTGlyph>
    <TTGlyph name="O.sups" xMin="104" yMin="316" xMax="344" yMax="644">
      <contour>
        <pt x="161" y="316" on="0"/>
        <pt x="104" y="406" on="0"/>
        <pt x="104" y="480" on="1"/>
        <pt x="104" y="555" on="0"/>
        <pt x="161" y="644" on="0"/>
        <pt x="224" y="644" on="1"/>
        <pt x="286" y="644" on="0"/>
        <pt x="344" y="554" on="0"/>
        <pt x="344" y="480" on="1"/>
        <pt x="344" y="407" on="0"/>
        <pt x="286" y="316" on="0"/>
        <pt x="224" y="316" on="1"/>
      </contour>
      <contour>
        <pt x="255" y="372" on="0"/>
        <pt x="280" y="420" on="0"/>
        <pt x="280" y="480" on="1"/>
        <pt x="280" y="539" on="0"/>
        <pt x="255" y="588" on="0"/>
        <pt x="224" y="588" on="1"/>
        <pt x="193" y="588" on="0"/>
        <pt x="168" y="539" on="0"/>
        <pt x="168" y="480" on="1"/>
        <pt x="168" y="420" on="0"/>
        <pt x="193" y="372" on="0"/>
        <pt x="224" y="372" on="1"/>
      </contour>
    </TTGlyph>
    <TTGlyph name="OE" xMin="-2" yMin="0" xMax="448" yMax="640">
      <contour>
        <pt x="-2" y="0" on="0"/>
        <pt x="-2" y="319" on="1"/>
        <pt x="-2" y="481" on="0"/>
        <pt x="83" y="640" on="0"/>
        <pt x="170" y="640" on="1"/>
        <pt x="438" y="640" on="1"/>
        <pt x="438" y="576" on="1"/>
        <pt x="270" y="576" on="1"/>
        <pt x="270" y="320" on="1"/>
        <pt x="400" y="320" on="1"/>
        <pt x="400" y="256" on="1"/>
        <pt x="270" y="256" on="1"/>
        <pt x="270" y="64" on="1"/>
        <pt x="448" y="64" on="1"/>
        <pt x="448" y="0" on="1"/>
        <pt x="170" y="0" on="1"/>
      </contour>
      <contour>
        <pt x="198" y="64" on="1"/>
        <pt x="198" y="576" on="1"/>
        <pt x="170" y="576" on="1"/>
        <pt x="135" y="576" on="0"/>
        <pt x="93" y="525" on="0"/>
        <pt x="74" y="414" on="0"/>
        <pt x="74" y="319" on="1"/>
        <pt x="74" y="225" on="0"/>
        <pt x="93" y="115" on="0"/>
        <pt x="135" y="64" on="0"/>
        <pt x="170" y="64" on="1"/>
      </contour>
    </TTGlyph>
    <TTGlyph name="Oacute" xMin="37" yMin="-10" xMax="411" yMax="842">
      <component glyphName="O" x="0" y="0" flags="0x400"/>
      <component glyphName="acutecomb.case" x="0" y="0" flags="0x0"/>
    </TTGlyph>
    <TTGlyph name="Obreve" xMin="37" yMin="-10" xMax="411" yMax="836">
      <component glyphName="O" x="0" y="0" flags="0x400"/>
      <component glyphName="uni0306.case" x="0" y="0" flags="0x0"/>
    </TTGlyph>
    <TTGlyph name="Ocircumflex" xMin="37" yMin="-10" xMax="411" yMax="842">
      <component glyphName="O" x="0" y="0" flags="0x400"/>
      <component glyphName="uni0302.case" x="0" y="0" flags="0x0"/>
    </TTGlyph>
    <TTGlyph name="Odieresis" xMin="37" yMin="-10" xMax="411" yMax="816">
      <component glyphName="O" x="0" y="0" flags="0x400"/>
      <component glyphName="uni0308.case" x="0" y="0" flags="0x0"/>
    </TTGlyph>
    <TTGlyph name="Ograve" xMin="37" yMin="-10" xMax="411" yMax="842">
      <component glyphName="O" x="0" y="0" flags="0x400"/>
      <component glyphName="gravecomb.case" x="0" y="0" flags="0x0"/>
    </TTGlyph>
    <TTGlyph name="Ohorn" xMin="37" yMin="-10" xMax="418" yMax="768">
      <contour>
        <pt x="37" y="-10" on="0"/>
        <pt x="37" y="319" on="1"/>
        <pt x="37" y="486" on="0"/>
        <pt x="130" y="650" on="0"/>
        <pt x="224" y="650" on="1"/>
        <pt x="246" y="650" on="0"/>
        <pt x="270" y="644" on="1"/>
        <pt x="292" y="640" on="0"/>
        <pt x="303" y="640" on="1"/>
        <pt x="326" y="640" on="0"/>
        <pt x="346" y="663" on="0"/>
        <pt x="346" y="687" on="1"/>
        <pt x="346" y="713" on="0"/>
        <pt x="335" y="768" on="1"/>
        <pt x="403" y="768" on="1"/>
        <pt x="418" y="717" on="0"/>
        <pt x="418" y="679" on="1"/>
        <pt x="418" y="639" on="0"/>
        <pt x="386" y="595" on="0"/>
        <pt x="354" y="586" on="1"/>
        <pt x="411" y="507" on="0"/>
        <pt x="411" y="319" on="1"/>
        <pt x="411" y="154" on="0"/>
        <pt x="320" y="-10" on="0"/>
        <pt x="224" y="-10" on="1"/>
      </contour>
      <contour>
        <pt x="113" y="222" on="0"/>
        <pt x="135" y="108" on="0"/>
        <pt x="183" y="56" on="0"/>
        <pt x="224" y="56" on="1"/>
        <pt x="265" y="56" on="0"/>
        <pt x="313" y="108" on="0"/>
        <pt x="335" y="222" on="0"/>
        <pt x="335" y="319" on="1"/>
        <pt x="335" y="417" on="0"/>
        <pt x="313" y="532" on="0"/>
        <pt x="265" y="584" on="0"/>
        <pt x="224" y="584" on="1"/>
        <pt x="183" y="584" on="0"/>
        <pt x="135" y="532" on="0"/>
        <pt x="113" y="417" on="0"/>
        <pt x="113" y="319" on="1"/>
      </contour>
    </TTGlyph>
    <TTGlyph name="Ohorn.short" xMin="37" yMin="-10" xMax="418" yMax="704">
      <contour>
        <pt x="131" y="-10" on="0"/>
        <pt x="37" y="143" on="0"/>
        <pt x="37" y="287" on="1"/>
        <pt x="37" y="431" on="0"/>
        <pt x="131" y="586" on="0"/>
        <pt x="224" y="586" on="1"/>
        <pt x="246" y="586" on="0"/>
        <pt x="270" y="580" on="1"/>
        <pt x="292" y="576" on="0"/>
        <pt x="303" y="576" on="1"/>
        <pt x="326" y="576" on="0"/>
        <pt x="346" y="599" on="0"/>
        <pt x="346" y="623" on="1"/>
        <pt x="346" y="649" on="0"/>
        <pt x="335" y="704" on="1"/>
        <pt x="403" y="704" on="1"/>
        <pt x="418" y="653" on="0"/>
        <pt x="418" y="615" on="1"/>
        <pt x="418" y="576" on="0"/>
        <pt x="387" y="532" on="0"/>
        <pt x="356" y="523" on="1"/>
        <pt x="411" y="448" on="0"/>
        <pt x="411" y="287" on="1"/>
        <pt x="411" y="138" on="0"/>
        <pt x="320" y="-10" on="0"/>
        <pt x="224" y="-10" on="1"/>
      </contour>
      <contour>
        <pt x="113" y="166" on="0"/>
        <pt x="164" y="56" on="0"/>
        <pt x="224" y="56" on="1"/>
        <pt x="284" y="56" on="0"/>
        <pt x="335" y="166" on="0"/>
        <pt x="335" y="287" on="1"/>
        <pt x="335" y="408" on="0"/>
        <pt x="284" y="520" on="0"/>
        <pt x="224" y="520" on="1"/>
        <pt x="164" y="520" on="0"/>
        <pt x="113" y="408" on="0"/>
        <pt x="113" y="287" on="1"/>
      </contour>
    </TTGlyph>
    <TTGlyph name="Ohungarumlaut" xMin="37" yMin="-10" xMax="411" yMax="842">
      <component glyphName="O" x="0" y="0" flags="0x400"/>
      <component glyphName="uni030B.case" x="0" y="0" flags="0x0"/>
    </TTGlyph>
    <TTGlyph name="Omacron" xMin="37" yMin="-10" xMax="411" yMax="770">
      <component glyphName="O" x="0" y="0" flags="0x400"/>
      <component glyphName="uni0304.case" x="0" y="0" flags="0x0"/>
    </TTGlyph>
    <TTGlyph name="Omegatonos" xMin="-69" yMin="0" xMax="411" yMax="704">
      <component glyphName="uni03A9" x="0" y="0" flags="0x400"/>
      <component glyphName="tonos" x="-256" y="0" flags="0x0"/>
    </TTGlyph>
    <TTGlyph name="Omicron" xMin="37" yMin="-10" xMax="411" yMax="650">
      <component glyphName="O" x="0" y="0" flags="0x400"/>
    </TTGlyph>
    <TTGlyph name="Omicrontonos" xMin="-69" yMin="-10" xMax="411" yMax="704">
      <component glyphName="O" x="0" y="0" flags="0x400"/>
      <component glyphName="tonos" x="-256" y="0" flags="0x0"/>
    </TTGlyph>
    <TTGlyph name="Oslash" xMin="34" yMin="-16" xMax="414" yMax="656">
      <component glyphName="O" x="0" y="0" flags="0x400"/>
      <component glyphName="slash.O" x="0" y="0" flags="0x0"/>
    </TTGlyph>
    <TTGlyph name="Oslashacute" xMin="34" yMin="-16" xMax="414" yMax="842">
      <component glyphName="Oslash" x="0" y="0" flags="0x400"/>
      <component glyphName="acutecomb.case" x="0" y="0" flags="0x0"/>
    </TTGlyph>
    <TTGlyph name="Otilde" xMin="37" yMin="-10" xMax="411" yMax="837">
      <component glyphName="O" x="0" y="0" flags="0x400"/>
      <component glyphName="tildecomb.case" x="0" y="0" flags="0x0"/>
    </TTGlyph>
    <TTGlyph name="P" xMin="60" yMin="0" xMax="401" yMax="640">
      <contour>
        <pt x="60" y="640" on="1"/>
        <pt x="215" y="640" on="1"/>
        <pt x="301" y="640" on="0"/>
        <pt x="401" y="522" on="0"/>
        <pt x="401" y="414" on="1"/>
        <pt x="401" y="306" on="0"/>
        <pt x="301" y="192" on="0"/>
        <pt x="215" y="192" on="1"/>
        <pt x="132" y="192" on="1"/>
        <pt x="132" y="0" on="1"/>
        <pt x="60" y="0" on="1"/>
      </contour>
      <contour>
        <pt x="275" y="256" on="0"/>
        <pt x="325" y="336" on="0"/>
        <pt x="325" y="414" on="1"/>
        <pt x="325" y="494" on="0"/>
        <pt x="274" y="576" on="0"/>
        <pt x="208" y="576" on="1"/>
        <pt x="132" y="576" on="1"/>
        <pt x="132" y="256" on="1"/>
        <pt x="208" y="256" on="1"/>
      </contour>
    </TTGlyph>
    <TTGlyph name="P.sups" xMin="128" yMin="320" xMax="337" yMax="640">
      <contour>
        <pt x="128" y="640" on="1"/>
        <pt x="232" y="640" on="1"/>
        <pt x="280" y="640" on="0"/>
        <pt x="337" y="589" on="0"/>
        <pt x="337" y="544" on="1"/>
        <pt x="337" y="498" on="0"/>
        <pt x="281" y="448" on="0"/>
        <pt x="234" y="448" on="1"/>
        <pt x="192" y="448" on="1"/>
        <pt x="192" y="320" on="1"/>
        <pt x="128" y="320" on="1"/>
      </contour>
      <contour>
        <pt x="269" y="502" on="0"/>
        <pt x="269" y="544" on="1"/>
        <pt x="269" y="586" on="0"/>
        <pt x="230" y="586" on="1"/>
        <pt x="192" y="586" on="1"/>
        <pt x="192" y="502" on="1"/>
        <pt x="230" y="502" on="1"/>
      </contour>
    </TTGlyph>
    <TTGlyph name="Phi" xMin="32" yMin="0" xMax="416" yMax="640">
      <component glyphName="uni0424" x="0" y="0" flags="0x400"/>
    </TTGlyph>
    <TTGlyph name="Pi" xMin="60" yMin="0" xMax="388" yMax="640">
      <component glyphName="uni041F" x="0" y="0" flags="0x400"/>
    </TTGlyph>
    <TTGlyph name="Psi" xMin="32" yMin="0" xMax="416" yMax="640">
      <contour>
        <pt x="260" y="247" on="1"/>
        <pt x="307" y="259" on="0"/>
        <pt x="344" y="353" on="0"/>
        <pt x="344" y="445" on="1"/>
        <pt x="344" y="515" on="0"/>
        <pt x="335" y="640" on="1"/>
        <pt x="400" y="640" on="1"/>
        <pt x="416" y="537" on="0"/>
        <pt x="416" y="441" on="1"/>
        <pt x="416" y="327" on="0"/>
        <pt x="344" y="195" on="0"/>
        <pt x="260" y="184" on="1"/>
        <pt x="260" y="0" on="1"/>
        <pt x="188" y="0" on="1"/>
        <pt x="188" y="184" on="1"/>
        <pt x="104" y="195" on="0"/>
        <pt x="32" y="327" on="0"/>
        <pt x="32" y="441" on="1"/>
        <pt x="32" y="537" on="0"/>
        <pt x="48" y="640" on="1"/>
        <pt x="113" y="640" on="1"/>
        <pt x="104" y="515" on="0"/>
        <pt x="104" y="445" on="1"/>
        <pt x="104" y="353" on="0"/>
        <pt x="141" y="259" on="0"/>
        <pt x="188" y="247" on="1"/>
        <pt x="188" y="640" on="1"/>
        <pt x="260" y="640" on="1"/>
      </contour>
    </TTGlyph>
    <TTGlyph name="Q" xMin="37" yMin="-145" xMax="415" yMax="650">
      <contour>
        <pt x="233" y="-131" on="0"/>
        <pt x="208" y="-9" on="1"/>
        <pt x="37" y="4" on="0"/>
        <pt x="37" y="319" on="1"/>
        <pt x="37" y="486" on="0"/>
        <pt x="130" y="650" on="0"/>
        <pt x="224" y="650" on="1"/>
        <pt x="320" y="650" on="0"/>
        <pt x="411" y="487" on="0"/>
        <pt x="411" y="319" on="1"/>
        <pt x="411" y="181" on="0"/>
        <pt x="347" y="21" on="0"/>
        <pt x="281" y="-1" on="1"/>
        <pt x="289" y="-43" on="0"/>
        <pt x="347" y="-73" on="0"/>
        <pt x="415" y="-78" on="1"/>
        <pt x="405" y="-145" on="1"/>
      </contour>
      <contour>
        <pt x="265" y="56" on="0"/>
        <pt x="313" y="108" on="0"/>
        <pt x="335" y="222" on="0"/>
        <pt x="335" y="319" on="1"/>
        <pt x="335" y="417" on="0"/>
        <pt x="313" y="532" on="0"/>
        <pt x="265" y="584" on="0"/>
        <pt x="224" y="584" on="1"/>
        <pt x="183" y="584" on="0"/>
        <pt x="135" y="532" on="0"/>
        <pt x="113" y="417" on="0"/>
        <pt x="113" y="319" on="1"/>
        <pt x="113" y="222" on="0"/>
        <pt x="135" y="108" on="0"/>
        <pt x="183" y="56" on="0"/>
        <pt x="224" y="56" on="1"/>
      </contour>
    </TTGlyph>
    <TTGlyph name="Q.sups" xMin="104" yMin="256" xMax="344" yMax="644">
      <contour>
        <pt x="192" y="320" on="1"/>
        <pt x="146" y="331" on="0"/>
        <pt x="104" y="417" on="0"/>
        <pt x="104" y="480" on="1"/>
        <pt x="104" y="555" on="0"/>
        <pt x="161" y="644" on="0"/>
        <pt x="224" y="644" on="1"/>
        <pt x="286" y="644" on="0"/>
        <pt x="344" y="554" on="0"/>
        <pt x="344" y="480" on="1"/>
        <pt x="344" y="418" on="0"/>
        <pt x="301" y="331" on="0"/>
        <pt x="256" y="320" on="1"/>
        <pt x="256" y="256" on="1"/>
        <pt x="192" y="256" on="1"/>
      </contour>
      <contour>
        <pt x="255" y="372" on="0"/>
        <pt x="280" y="420" on="0"/>
        <pt x="280" y="480" on="1"/>
        <pt x="280" y="539" on="0"/>
        <pt x="255" y="588" on="0"/>
        <pt x="224" y="588" on="1"/>
        <pt x="193" y="588" on="0"/>
        <pt x="168" y="539" on="0"/>
        <pt x="168" y="480" on="1"/>
        <pt x="168" y="420" on="0"/>
        <pt x="193" y="372" on="0"/>
        <pt x="224" y="372" on="1"/>
      </contour>
    </TTGlyph>
    <TTGlyph name="R" xMin="60" yMin="0" xMax="411" yMax="640">
      <contour>
        <pt x="300" y="640" on="0"/>
        <pt x="401" y="535" on="0"/>
        <pt x="401" y="440" on="1"/>
        <pt x="401" y="360" on="0"/>
        <pt x="327" y="267" on="0"/>
        <pt x="261" y="255" on="1"/>
        <pt x="324" y="228" on="0"/>
        <pt x="402" y="96" on="0"/>
        <pt x="411" y="0" on="1"/>
        <pt x="337" y="0" on="1"/>
        <pt x="327" y="96" on="0"/>
        <pt x="252" y="208" on="0"/>
        <pt x="182" y="241" on="1"/>
        <pt x="132" y="241" on="1"/>
        <pt x="132" y="0" on="1"/>
        <pt x="60" y="0" on="1"/>
        <pt x="60" y="640" on="1"/>
        <pt x="215" y="640" on="1"/>
      </contour>
      <contour>
        <pt x="275" y="305" on="0"/>
        <pt x="325" y="373" on="0"/>
        <pt x="325" y="440" on="1"/>
        <pt x="325" y="507" on="0"/>
        <pt x="274" y="576" on="0"/>
        <pt x="208" y="576" on="1"/>
        <pt x="132" y="576" on="1"/>
        <pt x="132" y="305" on="1"/>
        <pt x="208" y="305" on="1"/>
      </contour>
    </TTGlyph>
    <TTGlyph name="R.sups" xMin="127" yMin="320" xMax="330" yMax="640">
      <contour>
        <pt x="270" y="640" on="0"/>
        <pt x="325" y="584" on="0"/>
        <pt x="325" y="534" on="1"/>
        <pt x="325" y="502" on="0"/>
        <pt x="298" y="458" on="0"/>
        <pt x="274" y="448" on="1"/>
        <pt x="322" y="412" on="0"/>
        <pt x="330" y="320" on="1"/>
        <pt x="263" y="320" on="1"/>
        <pt x="259" y="363" on="0"/>
        <pt x="235" y="413" on="0"/>
        <pt x="212" y="428" on="1"/>
        <pt x="191" y="428" on="1"/>
        <pt x="191" y="320" on="1"/>
        <pt x="127" y="320" on="1"/>
        <pt x="127" y="640" on="1"/>
        <pt x="224" y="640" on="1"/>
      </contour>
      <contour>
        <pt x="244" y="484" on="0"/>
        <pt x="261" y="509" on="0"/>
        <pt x="261" y="534" on="1"/>
        <pt x="261" y="559" on="0"/>
        <pt x="244" y="584" on="0"/>
        <pt x="221" y="584" on="1"/>
        <pt x="191" y="584" on="1"/>
        <pt x="191" y="484" on="1"/>
        <pt x="221" y="484" on="1"/>
      </contour>
    </TTGlyph>
    <TTGlyph name="Racute" xMin="60" yMin="0" xMax="411" yMax="842">
      <component glyphName="R" x="0" y="0" flags="0x400"/>
      <component glyphName="acutecomb.case" x="0" y="0" flags="0x0"/>
    </TTGlyph>
    <TTGlyph name="Rcaron" xMin="60" yMin="0" xMax="411" yMax="838">
      <component glyphName="R" x="0" y="0" flags="0x400"/>
      <component glyphName="uni030C.case" x="0" y="0" flags="0x0"/>
    </TTGlyph>
    <TTGlyph name="Rho" xMin="60" yMin="0" xMax="401" yMax="640">
      <component glyphName="P" x="0" y="0" flags="0x400"/>
    </TTGlyph>
    <TTGlyph name="S" xMin="51" yMin="-8" xMax="391" yMax="648">
      <contour>
        <pt x="120" y="-8" on="0"/>
        <pt x="51" y="18" on="1"/>
        <pt x="70" y="82" on="1"/>
        <pt x="103" y="69" on="0"/>
        <pt x="163" y="56" on="0"/>
        <pt x="198" y="56" on="1"/>
        <pt x="262" y="56" on="0"/>
        <pt x="315" y="103" on="0"/>
        <pt x="315" y="143" on="1"/>
        <pt x="315" y="175" on="0"/>
        <pt x="287" y="219" on="0"/>
        <pt x="244" y="247" on="0"/>
        <pt x="207" y="264" on="1"/>
        <pt x="159" y="287" on="0"/>
        <pt x="101" y="328" on="0"/>
        <pt x="59" y="405" on="0"/>
        <pt x="59" y="465" on="1"/>
        <pt x="59" y="548" on="0"/>
        <pt x="161" y="648" on="0"/>
        <pt x="256" y="648" on="1"/>
        <pt x="286" y="648" on="0"/>
        <pt x="351" y="639" on="0"/>
        <pt x="376" y="630" on="1"/>
        <pt x="360" y="566" on="1"/>
        <pt x="308" y="584" on="0"/>
        <pt x="256" y="584" on="1"/>
        <pt x="186" y="584" on="0"/>
        <pt x="135" y="523" on="0"/>
        <pt x="135" y="468" on="1"/>
        <pt x="135" y="427" on="0"/>
        <pt x="168" y="373" on="0"/>
        <pt x="216" y="341" on="0"/>
        <pt x="257" y="321" on="1"/>
        <pt x="301" y="300" on="0"/>
        <pt x="354" y="263" on="0"/>
        <pt x="391" y="199" on="0"/>
        <pt x="391" y="149" on="1"/>
        <pt x="391" y="70" on="0"/>
        <pt x="290" y="-8" on="0"/>
        <pt x="195" y="-8" on="1"/>
      </contour>
    </TTGlyph>
    <TTGlyph name="S.sups" xMin="125" yMin="316" xMax="320" yMax="644">
      <contour>
        <pt x="171" y="316" on="0"/>
        <pt x="125" y="326" on="1"/>
        <pt x="134" y="377" on="1"/>
        <pt x="174" y="370" on="0"/>
        <pt x="208" y="370" on="1"/>
        <pt x="234" y="370" on="0"/>
        <pt x="256" y="390" on="0"/>
        <pt x="256" y="410" on="1"/>
        <pt x="256" y="431" on="0"/>
        <pt x="235" y="447" on="0"/>
        <pt x="201" y="458" on="1"/>
        <pt x="164" y="471" on="0"/>
        <pt x="128" y="512" on="0"/>
        <pt x="128" y="550" on="1"/>
        <pt x="128" y="591" on="0"/>
        <pt x="178" y="644" on="0"/>
        <pt x="234" y="644" on="1"/>
        <pt x="275" y="644" on="0"/>
        <pt x="315" y="634" on="1"/>
        <pt x="305" y="583" on="1"/>
        <pt x="265" y="590" on="0"/>
        <pt x="238" y="590" on="1"/>
        <pt x="192" y="590" on="0"/>
        <pt x="192" y="552" on="1"/>
        <pt x="192" y="533" on="0"/>
        <pt x="212" y="519" on="0"/>
        <pt x="240" y="510" on="1"/>
        <pt x="282" y="497" on="0"/>
        <pt x="320" y="456" on="0"/>
        <pt x="320" y="412" on="1"/>
        <pt x="320" y="367" on="0"/>
        <pt x="266" y="316" on="0"/>
        <pt x="214" y="316" on="1"/>
      </contour>
    </TTGlyph>
    <TTGlyph name="Sacute" xMin="51" yMin="-8" xMax="391" yMax="842">
      <component glyphName="S" x="0" y="0" flags="0x400"/>
      <component glyphName="acutecomb.case" x="0" y="0" flags="0x0"/>
    </TTGlyph>
    <TTGlyph name="Scaron" xMin="51" yMin="-8" xMax="391" yMax="838">
      <component glyphName="S" x="0" y="0" flags="0x400"/>
      <component glyphName="uni030C.case" x="0" y="0" flags="0x0"/>
    </TTGlyph>
    <TTGlyph name="Scedilla" xMin="51" yMin="-172" xMax="391" yMax="648">
      <component glyphName="S" x="0" y="0" flags="0x400"/>
      <component glyphName="uni0327" x="-55" y="20" flags="0x4"/>
    </TTGlyph>
    <TTGlyph name="Scircumflex" xMin="51" yMin="-8" xMax="391" yMax="842">
      <component glyphName="S" x="0" y="0" flags="0x400"/>
      <component glyphName="uni0302.case" x="0" y="0" flags="0x0"/>
    </TTGlyph>
    <TTGlyph name="Sigma" xMin="55" yMin="0" xMax="388" yMax="640">
      <contour>
        <pt x="187" y="320" on="1"/>
        <pt x="67" y="588" on="1"/>
        <pt x="67" y="640" on="1"/>
        <pt x="388" y="640" on="1"/>
        <pt x="388" y="576" on="1"/>
        <pt x="150" y="576" on="1"/>
        <pt x="265" y="320" on="1"/>
        <pt x="139" y="64" on="1"/>
        <pt x="388" y="64" on="1"/>
        <pt x="388" y="0" on="1"/>
        <pt x="55" y="0" on="1"/>
        <pt x="55" y="52" on="1"/>
      </contour>
    </TTGlyph>
    <TTGlyph name="T" xMin="44" yMin="0" xMax="404" yMax="640">
      <contour>
        <pt x="260" y="576" on="1"/>
        <pt x="260" y="0" on="1"/>
        <pt x="188" y="0" on="1"/>
        <pt x="188" y="576" on="1"/>
        <pt x="44" y="576" on="1"/>
        <pt x="44" y="640" on="1"/>
        <pt x="404" y="640" on="1"/>
        <pt x="404" y="576" on="1"/>
      </contour>
    </TTGlyph>
    <TTGlyph name="T.sups" xMin="120" yMin="320" xMax="328" yMax="640">
      <contour>
        <pt x="328" y="584" on="1"/>
        <pt x="256" y="584" on="1"/>
        <pt x="256" y="320" on="1"/>
        <pt x="192" y="320" on="1"/>
        <pt x="192" y="584" on="1"/>
        <pt x="120" y="584" on="1"/>
        <pt x="120" y="640" on="1"/>
        <pt x="328" y="640" on="1"/>
      </contour>
    </TTGlyph>
    <TTGlyph name="Tau" xMin="44" yMin="0" xMax="404" yMax="640">
      <component glyphName="T" x="0" y="0" flags="0x400"/>
    </TTGlyph>
    <TTGlyph name="Tbar" xMin="44" yMin="0" xMax="404" yMax="640">
      <contour>
        <pt x="260" y="258" on="1"/>
        <pt x="260" y="0" on="1"/>
        <pt x="188" y="0" on="1"/>
        <pt x="188" y="258" on="1"/>
        <pt x="84" y="258" on="1"/>
        <pt x="84" y="318" on="1"/>
        <pt x="188" y="318" on="1"/>
        <pt x="188" y="576" on="1"/>
        <pt x="44" y="576" on="1"/>
        <pt x="44" y="640" on="1"/>
        <pt x="404" y="640" on="1"/>
        <pt x="404" y="576" on="1"/>
        <pt x="260" y="576" on="1"/>
        <pt x="260" y="318" on="1"/>
        <pt x="364" y="318" on="1"/>
        <pt x="364" y="258" on="1"/>
      </contour>
    </TTGlyph>
    <TTGlyph name="Tcaron" xMin="44" yMin="0" xMax="404" yMax="838">
      <component glyphName="T" x="0" y="0" flags="0x400"/>
      <component glyphName="uni030C.case" x="0" y="0" flags="0x0"/>
    </TTGlyph>
    <TTGlyph name="Theta" xMin="37" yMin="-10" xMax="411" yMax="650">
      <contour>
        <pt x="37" y="-10" on="0"/>
        <pt x="37" y="319" on="1"/>
        <pt x="37" y="486" on="0"/>
        <pt x="130" y="650" on="0"/>
        <pt x="224" y="650" on="1"/>
        <pt x="320" y="650" on="0"/>
        <pt x="411" y="487" on="0"/>
        <pt x="411" y="319" on="1"/>
        <pt x="411" y="154" on="0"/>
        <pt x="320" y="-10" on="0"/>
        <pt x="224" y="-10" on="1"/>
      </contour>
      <contour>
        <pt x="277" y="56" on="0"/>
        <pt x="329" y="148" on="0"/>
        <pt x="334" y="256" on="1"/>
        <pt x="114" y="256" on="1"/>
        <pt x="119" y="148" on="0"/>
        <pt x="171" y="56" on="0"/>
        <pt x="224" y="56" on="1"/>
      </contour>
      <contour>
        <pt x="335" y="320" on="1"/>
        <pt x="335" y="417" on="0"/>
        <pt x="313" y="532" on="0"/>
        <pt x="265" y="584" on="0"/>
        <pt x="224" y="584" on="1"/>
        <pt x="183" y="584" on="0"/>
        <pt x="135" y="532" on="0"/>
        <pt x="113" y="417" on="0"/>
        <pt x="113" y="320" on="1"/>
      </contour>
    </TTGlyph>
    <TTGlyph name="Thorn" xMin="60" yMin="0" xMax="401" yMax="640">
      <contour>
        <pt x="300" y="512" on="0"/>
        <pt x="401" y="410" on="0"/>
        <pt x="401" y="318" on="1"/>
        <pt x="401" y="226" on="0"/>
        <pt x="301" y="128" on="0"/>
        <pt x="215" y="128" on="1"/>
        <pt x="132" y="128" on="1"/>
        <pt x="132" y="0" on="1"/>
        <pt x="60" y="0" on="1"/>
        <pt x="60" y="640" on="1"/>
        <pt x="132" y="640" on="1"/>
        <pt x="132" y="512" on="1"/>
        <pt x="215" y="512" on="1"/>
      </contour>
      <contour>
        <pt x="275" y="192" on="0"/>
        <pt x="327" y="255" on="0"/>
        <pt x="327" y="318" on="1"/>
        <pt x="327" y="383" on="0"/>
        <pt x="274" y="448" on="0"/>
        <pt x="208" y="448" on="1"/>
        <pt x="132" y="448" on="1"/>
        <pt x="132" y="192" on="1"/>
        <pt x="208" y="192" on="1"/>
      </contour>
    </TTGlyph>
    <TTGlyph name="U" xMin="60" yMin="-8" xMax="388" yMax="640">
      <contour>
        <pt x="132" y="640" on="1"/>
        <pt x="132" y="169" on="1"/>
        <pt x="132" y="112" on="0"/>
        <pt x="170" y="56" on="0"/>
        <pt x="224" y="56" on="1"/>
        <pt x="276" y="56" on="0"/>
        <pt x="316" y="113" on="0"/>
        <pt x="316" y="169" on="1"/>
        <pt x="316" y="640" on="1"/>
        <pt x="388" y="640" on="1"/>
        <pt x="388" y="173" on="1"/>
        <pt x="388" y="80" on="0"/>
        <pt x="300" y="-8" on="0"/>
        <pt x="224" y="-8" on="1"/>
        <pt x="148" y="-8" on="0"/>
        <pt x="60" y="79" on="0"/>
        <pt x="60" y="172" on="1"/>
        <pt x="60" y="640" on="1"/>
      </contour>
    </TTGlyph>
    <TTGlyph name="U.short" xMin="60" yMin="-8" xMax="388" yMax="576">
      <contour>
        <pt x="132" y="576" on="1"/>
        <pt x="132" y="169" on="1"/>
        <pt x="132" y="112" on="0"/>
        <pt x="170" y="56" on="0"/>
        <pt x="224" y="56" on="1"/>
        <pt x="276" y="56" on="0"/>
        <pt x="316" y="113" on="0"/>
        <pt x="316" y="169" on="1"/>
        <pt x="316" y="576" on="1"/>
        <pt x="388" y="576" on="1"/>
        <pt x="388" y="173" on="1"/>
        <pt x="388" y="80" on="0"/>
        <pt x="300" y="-8" on="0"/>
        <pt x="224" y="-8" on="1"/>
        <pt x="148" y="-8" on="0"/>
        <pt x="60" y="79" on="0"/>
        <pt x="60" y="172" on="1"/>
        <pt x="60" y="576" on="1"/>
      </contour>
    </TTGlyph>
    <TTGlyph name="U.sups" xMin="128" yMin="320" xMax="320" yMax="640">
      <contour>
        <pt x="192" y="640" on="1"/>
        <pt x="192" y="384" on="1"/>
        <pt x="128" y="384" on="1"/>
        <pt x="128" y="640" on="1"/>
      </contour>
      <contour>
        <pt x="256" y="384" on="1"/>
        <pt x="256" y="640" on="1"/>
        <pt x="320" y="640" on="1"/>
        <pt x="320" y="320" on="1"/>
        <pt x="192" y="320" on="1"/>
        <pt x="192" y="384" on="1"/>
      </contour>
    </TTGlyph>
    <TTGlyph name="Uacute" xMin="60" yMin="-8" xMax="388" yMax="842">
      <component glyphName="U" x="0" y="0" flags="0x400"/>
      <component glyphName="acutecomb.case" x="0" y="0" flags="0x0"/>
    </TTGlyph>
    <TTGlyph name="Ubreve" xMin="60" yMin="-8" xMax="388" yMax="836">
      <component glyphName="U" x="0" y="0" flags="0x400"/>
      <component glyphName="uni0306.case" x="0" y="0" flags="0x0"/>
    </TTGlyph>
    <TTGlyph name="Ucircumflex" xMin="60" yMin="-8" xMax="388" yMax="842">
      <component glyphName="U" x="0" y="0" flags="0x400"/>
      <component glyphName="uni0302.case" x="0" y="0" flags="0x0"/>
    </TTGlyph>
    <TTGlyph name="Udieresis" xMin="60" yMin="-8" xMax="388" yMax="816">
      <component glyphName="U" x="0" y="0" flags="0x400"/>
      <component glyphName="uni0308.case" x="0" y="0" flags="0x0"/>
    </TTGlyph>
    <TTGlyph name="Ugrave" xMin="60" yMin="-8" xMax="388" yMax="842">
      <component glyphName="U" x="0" y="0" flags="0x400"/>
      <component glyphName="gravecomb.case" x="0" y="0" flags="0x0"/>
    </TTGlyph>
    <TTGlyph name="Uhorn" xMin="60" yMin="-8" xMax="454" yMax="768">
      <component glyphName="U" x="0" y="0" flags="0x400"/>
      <component glyphName="uni031B.case" x="0" y="0" flags="0x0"/>
    </TTGlyph>
    <TTGlyph name="Uhorn.short" xMin="60" yMin="-8" xMax="454" yMax="704">
      <component glyphName="U.short" x="0" y="0" flags="0x400"/>
      <component glyphName="uni031B.case" x="0" y="-64" flags="0x4"/>
    </TTGlyph>
    <TTGlyph name="Uhungarumlaut" xMin="60" yMin="-8" xMax="404" yMax="842">
      <component glyphName="U" x="0" y="0" flags="0x400"/>
      <component glyphName="uni030B.case" x="0" y="0" flags="0x0"/>
    </TTGlyph>
    <TTGlyph name="Umacron" xMin="60" yMin="-8" xMax="388" yMax="770">
      <component glyphName="U" x="0" y="0" flags="0x400"/>
      <component glyphName="uni0304.case" x="0" y="0" flags="0x0"/>
    </TTGlyph>
    <TTGlyph name="Uogonek" xMin="60" yMin="-197" xMax="388" yMax="640">
      <component glyphName="U" x="0" y="0" flags="0x400"/>
      <component glyphName="uni0328" x="-101" y="0" flags="0x0"/>
    </TTGlyph>
    <TTGlyph name="Upsilon" xMin="20" yMin="0" xMax="428" yMax="640">
      <contour>
        <pt x="188" y="440" on="0"/>
        <pt x="20" y="640" on="1"/>
        <pt x="114" y="640" on="1"/>
        <pt x="195" y="524" on="0"/>
        <pt x="224" y="368" on="1"/>
        <pt x="253" y="524" on="0"/>
        <pt x="334" y="640" on="1"/>
        <pt x="428" y="640" on="1"/>
        <pt x="260" y="438" on="0"/>
        <pt x="260" y="170" on="1"/>
        <pt x="260" y="0" on="1"/>
        <pt x="188" y="0" on="1"/>
        <pt x="188" y="170" on="1"/>
      </contour>
    </TTGlyph>
    <TTGlyph name="Upsilondieresis" xMin="20" yMin="0" xMax="428" yMax="816">
      <component glyphName="Upsilon" x="0" y="0" flags="0x400"/>
      <component glyphName="uni0308.case" x="0" y="0" flags="0x0"/>
    </TTGlyph>
    <TTGlyph name="Upsilontonos" xMin="-69" yMin="0" xMax="428" yMax="704">
      <component glyphName="Upsilon" x="0" y="0" flags="0x400"/>
      <component glyphName="tonos" x="-256" y="0" flags="0x0"/>
    </TTGlyph>
    <TTGlyph name="Uring" xMin="60" yMin="-8" xMax="388" yMax="825">
      <component glyphName="U.short" x="0" y="0" flags="0x400"/>
      <component glyphName="uni030A.case" x="0" y="0" flags="0x0"/>
    </TTGlyph>
    <TTGlyph name="Utilde" xMin="60" yMin="-8" xMax="388" yMax="837">
      <component glyphName="U" x="0" y="0" flags="0x400"/>
      <component glyphName="tildecomb.case" x="0" y="0" flags="0x0"/>
    </TTGlyph>
    <TTGlyph name="V" xMin="35" yMin="-3" xMax="413" yMax="640">
      <contour>
        <pt x="130" y="120" on="0"/>
        <pt x="50" y="453" on="0"/>
        <pt x="35" y="640" on="1"/>
        <pt x="110" y="640" on="1"/>
        <pt x="125" y="474" on="0"/>
        <pt x="183" y="192" on="0"/>
        <pt x="224" y="89" on="1"/>
        <pt x="265" y="192" on="0"/>
        <pt x="323" y="474" on="0"/>
        <pt x="338" y="640" on="1"/>
        <pt x="413" y="640" on="1"/>
        <pt x="398" y="453" on="0"/>
        <pt x="318" y="120" on="0"/>
        <pt x="256" y="-3" on="1"/>
        <pt x="192" y="-3" on="1"/>
      </contour>
    </TTGlyph>
    <TTGlyph name="V.sups" xMin="106" yMin="320" xMax="341" yMax="640">
      <contour>
        <pt x="184" y="515" on="0"/>
        <pt x="224" y="384" on="1"/>
        <pt x="264" y="518" on="0"/>
        <pt x="280" y="640" on="1"/>
        <pt x="341" y="640" on="1"/>
        <pt x="320" y="477" on="0"/>
        <pt x="252" y="320" on="1"/>
        <pt x="196" y="320" on="1"/>
        <pt x="126" y="486" on="0"/>
        <pt x="106" y="640" on="1"/>
        <pt x="168" y="640" on="1"/>
      </contour>
    </TTGlyph>
    <TTGlyph name="W" xMin="42" yMin="0" xMax="406" yMax="640">
      <contour>
        <pt x="74" y="151" on="0"/>
        <pt x="44" y="441" on="0"/>
        <pt x="42" y="640" on="1"/>
        <pt x="114" y="640" on="1"/>
        <pt x="116" y="447" on="0"/>
        <pt x="129" y="205" on="0"/>
        <pt x="150" y="81" on="1"/>
        <pt x="171" y="180" on="0"/>
        <pt x="192" y="357" on="0"/>
        <pt x="192" y="448" on="1"/>
        <pt x="256" y="448" on="1"/>
        <pt x="256" y="357" on="0"/>
        <pt x="277" y="180" on="0"/>
        <pt x="298" y="81" on="1"/>
        <pt x="319" y="205" on="0"/>
        <pt x="332" y="447" on="0"/>
        <pt x="334" y="640" on="1"/>
        <pt x="406" y="640" on="1"/>
        <pt x="404" y="441" on="0"/>
        <pt x="374" y="151" on="0"/>
        <pt x="336" y="0" on="1"/>
        <pt x="272" y="0" on="1"/>
        <pt x="251" y="59" on="0"/>
        <pt x="229" y="184" on="0"/>
        <pt x="224" y="261" on="1"/>
        <pt x="219" y="184" on="0"/>
        <pt x="197" y="59" on="0"/>
        <pt x="176" y="0" on="1"/>
        <pt x="112" y="0" on="1"/>
      </contour>
    </TTGlyph>
    <TTGlyph name="W.sups" xMin="128" yMin="320" xMax="320" yMax="640">
      <contour>
        <pt x="192" y="640" on="1"/>
        <pt x="192" y="576" on="1"/>
        <pt x="256" y="576" on="1"/>
        <pt x="256" y="640" on="1"/>
        <pt x="320" y="640" on="1"/>
        <pt x="320" y="320" on="1"/>
        <pt x="128" y="320" on="1"/>
        <pt x="128" y="640" on="1"/>
      </contour>
    </TTGlyph>
    <TTGlyph name="Wacute" xMin="42" yMin="0" xMax="406" yMax="842">
      <component glyphName="W" x="0" y="0" flags="0x400"/>
      <component glyphName="acutecomb.case" x="0" y="0" flags="0x0"/>
    </TTGlyph>
    <TTGlyph name="Wcircumflex" xMin="42" yMin="0" xMax="406" yMax="842">
      <component glyphName="W" x="0" y="0" flags="0x400"/>
      <component glyphName="uni0302.case" x="0" y="0" flags="0x0"/>
    </TTGlyph>
    <TTGlyph name="Wdieresis" xMin="42" yMin="0" xMax="406" yMax="816">
      <component glyphName="W" x="0" y="0" flags="0x400"/>
      <component glyphName="uni0308.case" x="0" y="0" flags="0x0"/>
    </TTGlyph>
    <TTGlyph name="Wgrave" xMin="42" yMin="0" xMax="406" yMax="842">
      <component glyphName="W" x="0" y="0" flags="0x400"/>
      <component glyphName="gravecomb.case" x="0" y="0" flags="0x0"/>
    </TTGlyph>
    <TTGlyph name="X" xMin="47" yMin="0" xMax="400" yMax="640">
      <contour>
        <pt x="65" y="95" on="0"/>
        <pt x="120" y="229" on="0"/>
        <pt x="174" y="300" on="1"/>
        <pt x="119" y="366" on="0"/>
        <pt x="67" y="518" on="0"/>
        <pt x="56" y="640" on="1"/>
        <pt x="128" y="640" on="1"/>
        <pt x="138" y="527" on="0"/>
        <pt x="179" y="397" on="0"/>
        <pt x="222" y="344" on="1"/>
        <pt x="268" y="395" on="0"/>
        <pt x="309" y="524" on="0"/>
        <pt x="320" y="640" on="1"/>
        <pt x="392" y="640" on="1"/>
        <pt x="381" y="518" on="0"/>
        <pt x="329" y="366" on="0"/>
        <pt x="274" y="300" on="1"/>
        <pt x="327" y="229" on="0"/>
        <pt x="382" y="96" on="0"/>
        <pt x="400" y="0" on="1"/>
        <pt x="326" y="0" on="1"/>
        <pt x="308" y="91" on="0"/>
        <pt x="266" y="200" on="0"/>
        <pt x="224" y="255" on="1"/>
        <pt x="182" y="199" on="0"/>
        <pt x="139" y="90" on="0"/>
        <pt x="121" y="0" on="1"/>
        <pt x="47" y="0" on="1"/>
      </contour>
    </TTGlyph>
    <TTGlyph name="X.sups" xMin="128" yMin="320" xMax="320" yMax="640">
      <contour>
        <pt x="192" y="640" on="1"/>
        <pt x="192" y="512" on="1"/>
        <pt x="128" y="512" on="1"/>
        <pt x="128" y="640" on="1"/>
      </contour>
      <contour>
        <pt x="256" y="512" on="1"/>
        <pt x="256" y="448" on="1"/>
        <pt x="192" y="448" on="1"/>
        <pt x="192" y="512" on="1"/>
      </contour>
      <contour>
        <pt x="192" y="448" on="1"/>
        <pt x="192" y="320" on="1"/>
        <pt x="128" y="320" on="1"/>
        <pt x="128" y="448" on="1"/>
      </contour>
      <contour>
        <pt x="320" y="448" on="1"/>
        <pt x="320" y="320" on="1"/>
        <pt x="256" y="320" on="1"/>
        <pt x="256" y="448" on="1"/>
      </contour>
      <contour>
        <pt x="320" y="640" on="1"/>
        <pt x="320" y="512" on="1"/>
        <pt x="256" y="512" on="1"/>
        <pt x="256" y="640" on="1"/>
      </contour>
    </TTGlyph>
    <TTGlyph name="Xi" xMin="50" yMin="0" xMax="398" yMax="640">
      <contour>
        <pt x="393" y="640" on="1"/>
        <pt x="393" y="576" on="1"/>
        <pt x="55" y="576" on="1"/>
        <pt x="55" y="640" on="1"/>
      </contour>
      <contour>
        <pt x="398" y="64" on="1"/>
        <pt x="398" y="0" on="1"/>
        <pt x="50" y="0" on="1"/>
        <pt x="50" y="64" on="1"/>
      </contour>
      <contour>
        <pt x="344" y="320" on="1"/>
        <pt x="344" y="256" on="1"/>
        <pt x="104" y="256" on="1"/>
        <pt x="104" y="320" on="1"/>
      </contour>
    </TTGlyph>
    <TTGlyph name="Y" xMin="36" yMin="0" xMax="412" yMax="640">
      <contour>
        <pt x="188" y="202" on="1"/>
        <pt x="126" y="285" on="0"/>
        <pt x="52" y="498" on="0"/>
        <pt x="36" y="640" on="1"/>
        <pt x="108" y="640" on="1"/>
        <pt x="122" y="519" on="0"/>
        <pt x="174" y="346" on="0"/>
        <pt x="224" y="256" on="1"/>
        <pt x="274" y="346" on="0"/>
        <pt x="326" y="519" on="0"/>
        <pt x="340" y="640" on="1"/>
        <pt x="412" y="640" on="1"/>
        <pt x="396" y="498" on="0"/>
        <pt x="322" y="285" on="0"/>
        <pt x="260" y="202" on="1"/>
        <pt x="260" y="0" on="1"/>
        <pt x="188" y="0" on="1"/>
      </contour>
    </TTGlyph>
    <TTGlyph name="Y.short" xMin="36" yMin="0" xMax="412" yMax="576">
      <contour>
        <pt x="188" y="170" on="1"/>
        <pt x="126" y="247" on="0"/>
        <pt x="52" y="444" on="0"/>
        <pt x="36" y="576" on="1"/>
        <pt x="108" y="576" on="1"/>
        <pt x="122" y="463" on="0"/>
        <pt x="174" y="303" on="0"/>
        <pt x="224" y="220" on="1"/>
        <pt x="274" y="303" on="0"/>
        <pt x="326" y="463" on="0"/>
        <pt x="340" y="576" on="1"/>
        <pt x="412" y="576" on="1"/>
        <pt x="396" y="444" on="0"/>
        <pt x="322" y="247" on="0"/>
        <pt x="260" y="170" on="1"/>
        <pt x="260" y="0" on="1"/>
        <pt x="188" y="0" on="1"/>
      </contour>
    </TTGlyph>
    <TTGlyph name="Y.sups" xMin="128" yMin="320" xMax="320" yMax="640">
      <contour>
        <pt x="192" y="640" on="1"/>
        <pt x="192" y="512" on="1"/>
        <pt x="256" y="512" on="1"/>
        <pt x="256" y="640" on="1"/>
        <pt x="320" y="640" on="1"/>
        <pt x="320" y="384" on="1"/>
        <pt x="256" y="384" on="1"/>
        <pt x="256" y="448" on="1"/>
        <pt x="128" y="448" on="1"/>
        <pt x="128" y="640" on="1"/>
      </contour>
      <contour>
        <pt x="256" y="320" on="1"/>
        <pt x="128" y="320" on="1"/>
        <pt x="128" y="384" on="1"/>
        <pt x="256" y="384" on="1"/>
      </contour>
    </TTGlyph>
    <TTGlyph name="Yacute" xMin="36" yMin="0" xMax="412" yMax="842">
      <component glyphName="Y" x="0" y="0" flags="0x400"/>
      <component glyphName="acutecomb.case" x="0" y="0" flags="0x0"/>
    </TTGlyph>
    <TTGlyph name="Ycircumflex" xMin="36" yMin="0" xMax="412" yMax="842">
      <component glyphName="Y" x="0" y="0" flags="0x400"/>
      <component glyphName="uni0302.case" x="0" y="0" flags="0x0"/>
    </TTGlyph>
    <TTGlyph name="Ydieresis" xMin="36" yMin="0" xMax="412" yMax="816">
      <component glyphName="Y" x="0" y="0" flags="0x400"/>
      <component glyphName="uni0308.case" x="0" y="0" flags="0x0"/>
    </TTGlyph>
    <TTGlyph name="Ygrave" xMin="36" yMin="0" xMax="412" yMax="842">
      <component glyphName="Y" x="0" y="0" flags="0x400"/>
      <component glyphName="gravecomb.case" x="0" y="0" flags="0x0"/>
    </TTGlyph>
    <TTGlyph name="Z" xMin="55" yMin="0" xMax="388" yMax="640">
      <contour>
        <pt x="55" y="52" on="1"/>
        <pt x="304" y="576" on="1"/>
        <pt x="67" y="576" on="1"/>
        <pt x="67" y="640" on="1"/>
        <pt x="388" y="640" on="1"/>
        <pt x="388" y="588" on="1"/>
        <pt x="139" y="64" on="1"/>
        <pt x="388" y="64" on="1"/>
        <pt x="388" y="0" on="1"/>
        <pt x="55" y="0" on="1"/>
      </contour>
    </TTGlyph>
    <TTGlyph name="Z.sups" xMin="122" yMin="320" xMax="317" yMax="640">
      <contour>
        <pt x="122" y="368" on="1"/>
        <pt x="243" y="586" on="1"/>
        <pt x="126" y="586" on="1"/>
        <pt x="126" y="640" on="1"/>
        <pt x="317" y="640" on="1"/>
        <pt x="317" y="592" on="1"/>
        <pt x="196" y="374" on="1"/>
        <pt x="317" y="374" on="1"/>
        <pt x="317" y="320" on="1"/>
        <pt x="122" y="320" on="1"/>
      </contour>
    </TTGlyph>
    <TTGlyph name="Zacute" xMin="55" yMin="0" xMax="388" yMax="842">
      <component glyphName="Z" x="0" y="0" flags="0x400"/>
      <component glyphName="acutecomb.case" x="0" y="0" flags="0x0"/>
    </TTGlyph>
    <TTGlyph name="Zcaron" xMin="55" yMin="0" xMax="388" yMax="838">
      <component glyphName="Z" x="0" y="0" flags="0x400"/>
      <component glyphName="uni030C.case" x="0" y="0" flags="0x0"/>
    </TTGlyph>
    <TTGlyph name="Zdotaccent" xMin="55" yMin="0" xMax="388" yMax="842">
      <component glyphName="Z" x="0" y="0" flags="0x400"/>
      <component glyphName="uni0307" x="0" y="192" flags="0x4"/>
    </TTGlyph>
    <TTGlyph name="Zeta" xMin="55" yMin="0" xMax="388" yMax="640">
      <component glyphName="Z" x="0" y="0" flags="0x400"/>
    </TTGlyph>
    <TTGlyph name="_part.slash.comp" xMin="73" yMin="148" xMax="375" yMax="390">
      <contour>
        <pt x="339" y="390" on="1"/>
        <pt x="375" y="338" on="1"/>
        <pt x="109" y="148" on="1"/>
        <pt x="73" y="200" on="1"/>
      </contour>
    </TTGlyph>
    <TTGlyph name="a" xMin="50" yMin="-4" xMax="382" yMax="453">
      <contour>
        <pt x="308" y="343" on="0"/>
        <pt x="267" y="388" on="0"/>
        <pt x="216" y="388" on="1"/>
        <pt x="165" y="388" on="0"/>
        <pt x="94" y="361" on="1"/>
        <pt x="73" y="419" on="1"/>
        <pt x="149" y="453" on="0"/>
        <pt x="221" y="453" on="1"/>
        <pt x="299" y="453" on="0"/>
        <pt x="380" y="379" on="0"/>
        <pt x="380" y="299" on="1"/>
        <pt x="380" y="64" on="1"/>
        <pt x="382" y="0" on="1"/>
        <pt x="316" y="0" on="1"/>
        <pt x="312" y="39" on="1"/>
        <pt x="278" y="19" on="0"/>
        <pt x="212" y="-4" on="0"/>
        <pt x="176" y="-4" on="1"/>
        <pt x="123" y="-4" on="0"/>
        <pt x="50" y="60" on="0"/>
        <pt x="50" y="119" on="1"/>
        <pt x="50" y="190" on="0"/>
        <pt x="171" y="264" on="0"/>
        <pt x="308" y="268" on="1"/>
        <pt x="308" y="285" on="1"/>
      </contour>
      <contour>
        <pt x="126" y="94" on="0"/>
        <pt x="158" y="60" on="0"/>
        <pt x="191" y="60" on="1"/>
        <pt x="217" y="60" on="0"/>
        <pt x="273" y="81" on="0"/>
        <pt x="308" y="100" on="1"/>
        <pt x="308" y="206" on="1"/>
        <pt x="209" y="203" on="0"/>
        <pt x="126" y="163" on="0"/>
        <pt x="126" y="123" on="1"/>
      </contour>
    </TTGlyph>
    <TTGlyph name="aacute" xMin="50" yMin="-4" xMax="382" yMax="704">
      <component glyphName="a" x="0" y="0" flags="0x400"/>
      <component glyphName="acutecomb" x="4" y="0" flags="0x0"/>
    </TTGlyph>
    <TTGlyph name="abreve" xMin="50" yMin="-4" xMax="382" yMax="644">
      <component glyphName="a" x="0" y="0" flags="0x400"/>
      <component glyphName="uni0306" x="4" y="0" flags="0x0"/>
    </TTGlyph>
    <TTGlyph name="acircumflex" xMin="50" yMin="-4" xMax="382" yMax="650">
      <component glyphName="a" x="0" y="0" flags="0x400"/>
      <component glyphName="uni0302" x="4" y="0" flags="0x0"/>
    </TTGlyph>
    <TTGlyph name="acute" xMin="149" yMin="384" xMax="313" yMax="640">
      <contour>
        <pt x="149" y="384" on="1"/>
        <pt x="214" y="640" on="1"/>
        <pt x="313" y="640" on="1"/>
        <pt x="221" y="384" on="1"/>
      </contour>
    </TTGlyph>
    <TTGlyph name="acutecomb" xMin="193" yMin="512" xMax="340" yMax="704">
      <contour>
        <pt x="240" y="704" on="1"/>
        <pt x="340" y="704" on="1"/>
        <pt x="255" y="512" on="1"/>
        <pt x="193" y="512" on="1"/>
      </contour>
    </TTGlyph>
    <TTGlyph name="acutecomb.alt" xMin="193" yMin="512" xMax="340" yMax="650">
      <contour>
        <pt x="240" y="650" on="1"/>
        <pt x="340" y="650" on="1"/>
        <pt x="255" y="512" on="1"/>
        <pt x="193" y="512" on="1"/>
      </contour>
    </TTGlyph>
    <TTGlyph name="acutecomb.case" xMin="193" yMin="704" xMax="340" yMax="842">
      <component glyphName="acutecomb.alt" x="0" y="192" flags="0x404"/>
    </TTGlyph>
    <TTGlyph name="adieresis" xMin="50" yMin="-4" xMax="382" yMax="648">
      <component glyphName="a" x="0" y="0" flags="0x400"/>
      <component glyphName="uni0308" x="4" y="0" flags="0x0"/>
    </TTGlyph>
    <TTGlyph name="ae" xMin="-13" yMin="-9" xMax="463" yMax="457">
      <contour>
        <pt x="263" y="-9" on="0"/>
        <pt x="223" y="46" on="1"/>
        <pt x="195" y="21" on="0"/>
        <pt x="137" y="-8" on="0"/>
        <pt x="103" y="-8" on="1"/>
        <pt x="49" y="-8" on="0"/>
        <pt x="-13" y="58" on="0"/>
        <pt x="-13" y="122" on="1"/>
        <pt x="-13" y="189" on="0"/>
        <pt x="77" y="260" on="0"/>
        <pt x="181" y="264" on="1"/>
        <pt x="181" y="285" on="1"/>
        <pt x="181" y="342" on="0"/>
        <pt x="149" y="388" on="0"/>
        <pt x="110" y="388" on="1"/>
        <pt x="70" y="388" on="0"/>
        <pt x="18" y="368" on="1"/>
        <pt x="-1" y="426" on="1"/>
        <pt x="63" y="453" on="0"/>
        <pt x="113" y="453" on="1"/>
        <pt x="195" y="453" on="0"/>
        <pt x="224" y="394" on="1"/>
        <pt x="260" y="457" on="0"/>
        <pt x="329" y="457" on="1"/>
        <pt x="400" y="457" on="0"/>
        <pt x="463" y="354" on="0"/>
        <pt x="463" y="257" on="1"/>
        <pt x="463" y="239" on="0"/>
        <pt x="461" y="201" on="1"/>
        <pt x="256" y="201" on="1"/>
        <pt x="258" y="120" on="0"/>
        <pt x="297" y="55" on="0"/>
        <pt x="344" y="55" on="1"/>
        <pt x="381" y="55" on="0"/>
        <pt x="429" y="72" on="1"/>
        <pt x="446" y="14" on="1"/>
        <pt x="394" y="-9" on="0"/>
        <pt x="340" y="-9" on="1"/>
      </contour>
      <contour>
        <pt x="150" y="56" on="0"/>
        <pt x="197" y="101" on="1"/>
        <pt x="184" y="139" on="0"/>
        <pt x="181" y="202" on="1"/>
        <pt x="115" y="198" on="0"/>
        <pt x="61" y="159" on="0"/>
        <pt x="61" y="122" on="1"/>
        <pt x="61" y="89" on="0"/>
        <pt x="89" y="56" on="0"/>
        <pt x="113" y="56" on="1"/>
      </contour>
      <contour>
        <pt x="387" y="332" on="0"/>
        <pt x="360" y="393" on="0"/>
        <pt x="326" y="393" on="1"/>
        <pt x="293" y="393" on="0"/>
        <pt x="260" y="333" on="0"/>
        <pt x="257" y="263" on="1"/>
        <pt x="387" y="263" on="1"/>
      </contour>
    </TTGlyph>
    <TTGlyph name="aeacute" xMin="-13" yMin="-9" xMax="463" yMax="704">
      <component glyphName="ae" x="0" y="0" flags="0x400"/>
      <component glyphName="acutecomb" x="0" y="0" flags="0x0"/>
    </TTGlyph>
    <TTGlyph name="agrave" xMin="50" yMin="-4" xMax="382" yMax="704">
      <component glyphName="a" x="0" y="0" flags="0x400"/>
      <component glyphName="gravecomb" x="4" y="0" flags="0x0"/>
    </TTGlyph>
    <TTGlyph name="alpha" xMin="40" yMin="-8" xMax="430" yMax="456">
      <contour>
        <pt x="328" y="-6" on="0"/>
        <pt x="314" y="32" on="1"/>
        <pt x="273" y="-8" on="0"/>
        <pt x="206" y="-8" on="1"/>
        <pt x="142" y="-8" on="0"/>
        <pt x="101" y="33" on="1"/>
        <pt x="40" y="94" on="0"/>
        <pt x="40" y="224" on="1"/>
        <pt x="40" y="285" on="0"/>
        <pt x="70" y="384" on="0"/>
        <pt x="99" y="413" on="1"/>
        <pt x="142" y="456" on="0"/>
        <pt x="207" y="456" on="1"/>
        <pt x="272" y="456" on="0"/>
        <pt x="314" y="417" on="1"/>
        <pt x="318" y="448" on="1"/>
        <pt x="379" y="448" on="1"/>
        <pt x="377" y="384" on="1"/>
        <pt x="377" y="84" on="1"/>
        <pt x="377" y="58" on="0"/>
        <pt x="404" y="58" on="1"/>
        <pt x="413" y="58" on="0"/>
        <pt x="427" y="60" on="1"/>
        <pt x="430" y="0" on="1"/>
        <pt x="405" y="-6" on="0"/>
        <pt x="379" y="-6" on="1"/>
      </contour>
      <contour>
        <pt x="118" y="165" on="0"/>
        <pt x="134" y="95" on="0"/>
        <pt x="152" y="77" on="1"/>
        <pt x="173" y="56" on="0"/>
        <pt x="215" y="56" on="1"/>
        <pt x="273" y="56" on="0"/>
        <pt x="305" y="92" on="1"/>
        <pt x="305" y="356" on="1"/>
        <pt x="273" y="392" on="0"/>
        <pt x="215" y="392" on="1"/>
        <pt x="173" y="392" on="0"/>
        <pt x="151" y="370" on="1"/>
        <pt x="133" y="352" on="0"/>
        <pt x="118" y="283" on="0"/>
        <pt x="118" y="224" on="1"/>
      </contour>
    </TTGlyph>
    <TTGlyph name="alphatonos" xMin="40" yMin="-8" xMax="430" yMax="704">
      <component glyphName="alpha" x="0" y="0" flags="0x400"/>
      <component glyphName="tonos" x="0" y="0" flags="0x0"/>
    </TTGlyph>
    <TTGlyph name="amacron" xMin="50" yMin="-4" xMax="382" yMax="624">
      <component glyphName="a" x="0" y="0" flags="0x400"/>
      <component glyphName="uni0304" x="4" y="0" flags="0x0"/>
    </TTGlyph>
    <TTGlyph name="ampersand" xMin="35" yMin="-10" xMax="428" yMax="542">
      <contour>
        <pt x="252" y="478" on="0"/>
        <pt x="214" y="478" on="1"/>
        <pt x="165" y="478" on="0"/>
        <pt x="122" y="432" on="0"/>
        <pt x="122" y="399" on="1"/>
        <pt x="122" y="363" on="0"/>
        <pt x="167" y="320" on="0"/>
        <pt x="226" y="320" on="1"/>
        <pt x="428" y="320" on="1"/>
        <pt x="428" y="256" on="1"/>
        <pt x="368" y="256" on="1"/>
        <pt x="368" y="18" on="1"/>
        <pt x="330" y="5" on="0"/>
        <pt x="243" y="-10" on="0"/>
        <pt x="208" y="-10" on="1"/>
        <pt x="118" y="-10" on="0"/>
        <pt x="35" y="77" on="0"/>
        <pt x="35" y="145" on="1"/>
        <pt x="35" y="187" on="0"/>
        <pt x="76" y="264" on="0"/>
        <pt x="125" y="288" on="1"/>
        <pt x="87" y="305" on="0"/>
        <pt x="50" y="364" on="0"/>
        <pt x="50" y="402" on="1"/>
        <pt x="50" y="465" on="0"/>
        <pt x="135" y="542" on="0"/>
        <pt x="215" y="542" on="1"/>
        <pt x="266" y="542" on="0"/>
        <pt x="320" y="529" on="1"/>
        <pt x="308" y="468" on="1"/>
      </contour>
      <contour>
        <pt x="108" y="54" on="0"/>
        <pt x="204" y="54" on="1"/>
        <pt x="253" y="54" on="0"/>
        <pt x="296" y="64" on="1"/>
        <pt x="296" y="256" on="1"/>
        <pt x="238" y="256" on="1"/>
        <pt x="166" y="256" on="0"/>
        <pt x="108" y="194" on="0"/>
        <pt x="108" y="147" on="1"/>
      </contour>
    </TTGlyph>
    <TTGlyph name="angle" xMin="64" yMin="64" xMax="384" yMax="522">
      <contour>
        <pt x="64" y="64" on="1"/>
        <pt x="64" y="128" on="1"/>
        <pt x="258" y="522" on="1"/>
        <pt x="316" y="494" on="1"/>
        <pt x="136" y="128" on="1"/>
        <pt x="384" y="128" on="1"/>
        <pt x="384" y="64" on="1"/>
      </contour>
    </TTGlyph>
    <TTGlyph name="anoteleia" xMin="160" yMin="330" xMax="288" yMax="458">
      <component glyphName="period" x="32" y="340" flags="0x404"/>
    </TTGlyph>
    <TTGlyph name="aogonek" xMin="50" yMin="-197" xMax="401" yMax="453">
      <component glyphName="a" x="0" y="0" flags="0x400"/>
      <component glyphName="uni0328" x="0" y="0" flags="0x0"/>
    </TTGlyph>
    <TTGlyph name="approxequal" xMin="24" yMin="144" xMax="424" yMax="432">
      <contour>
        <pt x="282" y="144" on="0"/>
        <pt x="233" y="163" on="0"/>
        <pt x="206" y="181" on="1"/>
        <pt x="181" y="195" on="0"/>
        <pt x="152" y="208" on="0"/>
        <pt x="135" y="208" on="1"/>
        <pt x="113" y="208" on="0"/>
        <pt x="90" y="177" on="0"/>
        <pt x="85" y="147" on="1"/>
        <pt x="24" y="152" on="1"/>
        <pt x="30" y="209" on="0"/>
        <pt x="85" y="272" on="0"/>
        <pt x="135" y="272" on="1"/>
        <pt x="166" y="272" on="0"/>
        <pt x="215" y="253" on="0"/>
        <pt x="242" y="235" on="1"/>
        <pt x="267" y="221" on="0"/>
        <pt x="296" y="208" on="0"/>
        <pt x="313" y="208" on="1"/>
        <pt x="335" y="208" on="0"/>
        <pt x="358" y="239" on="0"/>
        <pt x="363" y="269" on="1"/>
        <pt x="424" y="264" on="1"/>
        <pt x="418" y="207" on="0"/>
        <pt x="363" y="144" on="0"/>
        <pt x="313" y="144" on="1"/>
      </contour>
      <contour>
        <pt x="282" y="304" on="0"/>
        <pt x="233" y="323" on="0"/>
        <pt x="206" y="341" on="1"/>
        <pt x="181" y="355" on="0"/>
        <pt x="152" y="368" on="0"/>
        <pt x="135" y="368" on="1"/>
        <pt x="113" y="368" on="0"/>
        <pt x="90" y="337" on="0"/>
        <pt x="85" y="307" on="1"/>
        <pt x="24" y="312" on="1"/>
        <pt x="30" y="369" on="0"/>
        <pt x="85" y="432" on="0"/>
        <pt x="135" y="432" on="1"/>
        <pt x="166" y="432" on="0"/>
        <pt x="215" y="413" on="0"/>
        <pt x="242" y="395" on="1"/>
        <pt x="267" y="381" on="0"/>
        <pt x="296" y="368" on="0"/>
        <pt x="313" y="368" on="1"/>
        <pt x="335" y="368" on="0"/>
        <pt x="358" y="399" on="0"/>
        <pt x="363" y="429" on="1"/>
        <pt x="424" y="424" on="1"/>
        <pt x="418" y="367" on="0"/>
        <pt x="363" y="304" on="0"/>
        <pt x="313" y="304" on="1"/>
      </contour>
    </TTGlyph>
    <TTGlyph name="aring" xMin="50" yMin="-4" xMax="382" yMax="697">
      <component glyphName="a" x="0" y="0" flags="0x400"/>
      <component glyphName="uni030A" x="4" y="0" flags="0x0"/>
    </TTGlyph>
    <TTGlyph name="aringacute" xMin="50" yMin="-4" xMax="382" yMax="874">
      <component glyphName="a" x="0" y="0" flags="0x400"/>
      <component glyphName="uni030A" x="4" y="0" flags="0x0"/>
      <component glyphName="acutecomb.alt" x="4" y="224" flags="0x4"/>
    </TTGlyph>
    <TTGlyph name="arrowboth" xMin="-10" yMin="118" xMax="458" yMax="458">
      <contour>
        <pt x="207" y="162" on="1"/>
        <pt x="169" y="118" on="1"/>
        <pt x="-10" y="266" on="1"/>
        <pt x="-10" y="310" on="1"/>
        <pt x="169" y="458" on="1"/>
        <pt x="207" y="414" on="1"/>
        <pt x="98" y="320" on="1"/>
        <pt x="350" y="320" on="1"/>
        <pt x="241" y="414" on="1"/>
        <pt x="279" y="458" on="1"/>
        <pt x="458" y="310" on="1"/>
        <pt x="458" y="266" on="1"/>
        <pt x="279" y="118" on="1"/>
        <pt x="241" y="162" on="1"/>
        <pt x="350" y="256" on="1"/>
        <pt x="98" y="256" on="1"/>
      </contour>
    </TTGlyph>
    <TTGlyph name="arrowdown" xMin="54" yMin="54" xMax="394" yMax="512">
      <contour>
        <pt x="54" y="233" on="1"/>
        <pt x="98" y="271" on="1"/>
        <pt x="192" y="162" on="1"/>
        <pt x="192" y="512" on="1"/>
        <pt x="256" y="512" on="1"/>
        <pt x="256" y="162" on="1"/>
        <pt x="350" y="271" on="1"/>
        <pt x="394" y="233" on="1"/>
        <pt x="246" y="54" on="1"/>
        <pt x="202" y="54" on="1"/>
      </contour>
    </TTGlyph>
    <TTGlyph name="arrowleft" xMin="-10" yMin="118" xMax="448" yMax="458">
      <contour>
        <pt x="-10" y="266" on="1"/>
        <pt x="-10" y="310" on="1"/>
        <pt x="169" y="458" on="1"/>
        <pt x="207" y="414" on="1"/>
        <pt x="98" y="320" on="1"/>
        <pt x="448" y="320" on="1"/>
        <pt x="448" y="256" on="1"/>
        <pt x="98" y="256" on="1"/>
        <pt x="207" y="162" on="1"/>
        <pt x="169" y="118" on="1"/>
      </contour>
    </TTGlyph>
    <TTGlyph name="arrowright" xMin="0" yMin="118" xMax="458" yMax="458">
      <contour>
        <pt x="241" y="162" on="1"/>
        <pt x="350" y="256" on="1"/>
        <pt x="0" y="256" on="1"/>
        <pt x="0" y="320" on="1"/>
        <pt x="350" y="320" on="1"/>
        <pt x="241" y="414" on="1"/>
        <pt x="279" y="458" on="1"/>
        <pt x="458" y="310" on="1"/>
        <pt x="458" y="266" on="1"/>
        <pt x="279" y="118" on="1"/>
      </contour>
    </TTGlyph>
    <TTGlyph name="arrowup" xMin="54" yMin="64" xMax="394" yMax="522">
      <contour>
        <pt x="98" y="305" on="1"/>
        <pt x="54" y="343" on="1"/>
        <pt x="202" y="522" on="1"/>
        <pt x="246" y="522" on="1"/>
        <pt x="394" y="343" on="1"/>
        <pt x="350" y="305" on="1"/>
        <pt x="256" y="414" on="1"/>
        <pt x="256" y="64" on="1"/>
        <pt x="192" y="64" on="1"/>
        <pt x="192" y="414" on="1"/>
      </contour>
    </TTGlyph>
    <TTGlyph name="arrowupdn" xMin="54" yMin="54" xMax="394" yMax="522">
      <contour>
        <pt x="98" y="305" on="1"/>
        <pt x="54" y="343" on="1"/>
        <pt x="202" y="522" on="1"/>
        <pt x="246" y="522" on="1"/>
        <pt x="394" y="343" on="1"/>
        <pt x="350" y="305" on="1"/>
        <pt x="256" y="414" on="1"/>
        <pt x="256" y="162" on="1"/>
        <pt x="350" y="271" on="1"/>
        <pt x="394" y="233" on="1"/>
        <pt x="246" y="54" on="1"/>
        <pt x="202" y="54" on="1"/>
        <pt x="54" y="233" on="1"/>
        <pt x="98" y="271" on="1"/>
        <pt x="192" y="162" on="1"/>
        <pt x="192" y="414" on="1"/>
      </contour>
    </TTGlyph>
    <TTGlyph name="arrowupdnbse" xMin="54" yMin="0" xMax="394" yMax="522">
      <contour>
        <pt x="194" y="64" on="1"/>
        <pt x="54" y="233" on="1"/>
        <pt x="98" y="271" on="1"/>
        <pt x="192" y="162" on="1"/>
        <pt x="192" y="414" on="1"/>
        <pt x="98" y="305" on="1"/>
        <pt x="54" y="343" on="1"/>
        <pt x="202" y="522" on="1"/>
        <pt x="246" y="522" on="1"/>
        <pt x="394" y="343" on="1"/>
        <pt x="350" y="305" on="1"/>
        <pt x="256" y="414" on="1"/>
        <pt x="256" y="162" on="1"/>
        <pt x="350" y="271" on="1"/>
        <pt x="394" y="233" on="1"/>
        <pt x="254" y="64" on="1"/>
        <pt x="384" y="64" on="1"/>
        <pt x="384" y="0" on="1"/>
        <pt x="64" y="0" on="1"/>
        <pt x="64" y="64" on="1"/>
      </contour>
    </TTGlyph>
    <TTGlyph name="asciicircum" xMin="48" yMin="192" xMax="400" yMax="566">
      <contour>
        <pt x="267" y="566" on="1"/>
        <pt x="400" y="192" on="1"/>
        <pt x="324" y="192" on="1"/>
        <pt x="224" y="489" on="1"/>
        <pt x="124" y="192" on="1"/>
        <pt x="48" y="192" on="1"/>
        <pt x="181" y="566" on="1"/>
      </contour>
    </TTGlyph>
    <TTGlyph name="asciitilde" xMin="-6" yMin="192" xMax="454" yMax="384">
      <contour>
        <pt x="289" y="192" on="0"/>
        <pt x="241" y="214" on="0"/>
        <pt x="212" y="244" on="0"/>
        <pt x="193" y="269" on="1"/>
        <pt x="173" y="296" on="0"/>
        <pt x="145" y="320" on="0"/>
        <pt x="124" y="320" on="1"/>
        <pt x="91" y="320" on="0"/>
        <pt x="65" y="267" on="0"/>
        <pt x="59" y="203" on="1"/>
        <pt x="-6" y="208" on="1"/>
        <pt x="-1" y="297" on="0"/>
        <pt x="59" y="384" on="0"/>
        <pt x="126" y="384" on="1"/>
        <pt x="159" y="384" on="0"/>
        <pt x="207" y="362" on="0"/>
        <pt x="236" y="332" on="0"/>
        <pt x="255" y="307" on="1"/>
        <pt x="275" y="280" on="0"/>
        <pt x="303" y="256" on="0"/>
        <pt x="324" y="256" on="1"/>
        <pt x="357" y="256" on="0"/>
        <pt x="383" y="309" on="0"/>
        <pt x="389" y="373" on="1"/>
        <pt x="454" y="369" on="1"/>
        <pt x="449" y="279" on="0"/>
        <pt x="389" y="192" on="0"/>
        <pt x="322" y="192" on="1"/>
      </contour>
    </TTGlyph>
    <TTGlyph name="asterisk" xMin="37" yMin="74" xMax="411" yMax="502">
      <contour>
        <pt x="270" y="288" on="1"/>
        <pt x="411" y="178" on="1"/>
        <pt x="364" y="123" on="1"/>
        <pt x="254" y="223" on="1"/>
        <pt x="260" y="74" on="1"/>
        <pt x="188" y="74" on="1"/>
        <pt x="194" y="223" on="1"/>
        <pt x="84" y="123" on="1"/>
        <pt x="37" y="178" on="1"/>
        <pt x="178" y="288" on="1"/>
        <pt x="37" y="398" on="1"/>
        <pt x="84" y="453" on="1"/>
        <pt x="194" y="353" on="1"/>
        <pt x="188" y="502" on="1"/>
        <pt x="260" y="502" on="1"/>
        <pt x="254" y="353" on="1"/>
        <pt x="364" y="453" on="1"/>
        <pt x="411" y="398" on="1"/>
      </contour>
    </TTGlyph>
    <TTGlyph name="at" xMin="48" yMin="-128" xMax="388" yMax="586">
      <contour>
        <pt x="355" y="64" on="0"/>
        <pt x="306" y="64" on="1"/>
        <pt x="241" y="64" on="0"/>
        <pt x="169" y="145" on="0"/>
        <pt x="169" y="219" on="1"/>
        <pt x="169" y="289" on="0"/>
        <pt x="239" y="375" on="0"/>
        <pt x="316" y="389" on="1"/>
        <pt x="315" y="458" on="0"/>
        <pt x="277" y="522" on="0"/>
        <pt x="231" y="522" on="1"/>
        <pt x="189" y="522" on="0"/>
        <pt x="141" y="463" on="0"/>
        <pt x="120" y="333" on="0"/>
        <pt x="120" y="223" on="1"/>
        <pt x="120" y="65" on="0"/>
        <pt x="181" y="-64" on="0"/>
        <pt x="244" y="-64" on="1"/>
        <pt x="284" y="-64" on="0"/>
        <pt x="329" y="-49" on="1"/>
        <pt x="345" y="-108" on="1"/>
        <pt x="322" y="-118" on="0"/>
        <pt x="267" y="-128" on="0"/>
        <pt x="244" y="-128" on="1"/>
        <pt x="140" y="-128" on="0"/>
        <pt x="48" y="39" on="0"/>
        <pt x="48" y="223" on="1"/>
        <pt x="48" y="409" on="0"/>
        <pt x="133" y="586" on="0"/>
        <pt x="233" y="586" on="1"/>
        <pt x="311" y="586" on="0"/>
        <pt x="388" y="477" on="0"/>
        <pt x="388" y="382" on="1"/>
        <pt x="388" y="74" on="1"/>
      </contour>
      <contour>
        <pt x="243" y="172" on="0"/>
        <pt x="275" y="126" on="0"/>
        <pt x="316" y="130" on="1"/>
        <pt x="316" y="324" on="1"/>
        <pt x="274" y="315" on="0"/>
        <pt x="243" y="267" on="0"/>
        <pt x="243" y="220" on="1"/>
      </contour>
    </TTGlyph>
    <TTGlyph name="atilde" xMin="50" yMin="-4" xMax="382" yMax="645">
      <component glyphName="a" x="0" y="0" flags="0x400"/>
      <component glyphName="tildecomb" x="4" y="0" flags="0x0"/>
    </TTGlyph>
    <TTGlyph name="b" xMin="58" yMin="-8" xMax="402" yMax="640">
      <contour>
        <pt x="60" y="64" on="1"/>
        <pt x="60" y="640" on="1"/>
        <pt x="132" y="640" on="1"/>
        <pt x="132" y="420" on="1"/>
        <pt x="174" y="456" on="0"/>
        <pt x="236" y="456" on="1"/>
        <pt x="300" y="456" on="0"/>
        <pt x="341" y="415" on="1"/>
        <pt x="402" y="354" on="0"/>
        <pt x="402" y="224" on="1"/>
        <pt x="402" y="163" on="0"/>
        <pt x="372" y="64" on="0"/>
        <pt x="343" y="35" on="1"/>
        <pt x="300" y="-8" on="0"/>
        <pt x="235" y="-8" on="1"/>
        <pt x="167" y="-8" on="0"/>
        <pt x="124" y="35" on="1"/>
        <pt x="119" y="0" on="1"/>
        <pt x="58" y="0" on="1"/>
      </contour>
      <contour>
        <pt x="164" y="56" on="0"/>
        <pt x="227" y="56" on="1"/>
        <pt x="269" y="56" on="0"/>
        <pt x="291" y="78" on="1"/>
        <pt x="309" y="96" on="0"/>
        <pt x="324" y="165" on="0"/>
        <pt x="324" y="224" on="1"/>
        <pt x="324" y="283" on="0"/>
        <pt x="308" y="353" on="0"/>
        <pt x="290" y="371" on="1"/>
        <pt x="269" y="392" on="0"/>
        <pt x="227" y="392" on="1"/>
        <pt x="163" y="392" on="0"/>
        <pt x="132" y="350" on="1"/>
        <pt x="132" y="98" on="1"/>
      </contour>
    </TTGlyph>
    <TTGlyph name="backslash" xMin="119" yMin="-69" xMax="329" yMax="710">
      <contour>
        <pt x="258" y="-69" on="1"/>
        <pt x="119" y="698" on="1"/>
        <pt x="190" y="710" on="1"/>
        <pt x="329" y="-57" on="1"/>
      </contour>
    </TTGlyph>
    <TTGlyph name="bar" xMin="188" yMin="-64" xMax="260" yMax="704">
      <contour>
        <pt x="188" y="-64" on="1"/>
        <pt x="188" y="704" on="1"/>
        <pt x="260" y="704" on="1"/>
        <pt x="260" y="-64" on="1"/>
      </contour>
    </TTGlyph>
    <TTGlyph name="beta" xMin="60" yMin="-192" xMax="409" yMax="648">
      <contour>
        <pt x="60" y="558" on="0"/>
        <pt x="149" y="648" on="0"/>
        <pt x="221" y="648" on="1"/>
        <pt x="300" y="648" on="0"/>
        <pt x="379" y="555" on="0"/>
        <pt x="379" y="489" on="1"/>
        <pt x="379" y="444" on="0"/>
        <pt x="335" y="375" on="0"/>
        <pt x="293" y="357" on="1"/>
        <pt x="409" y="321" on="0"/>
        <pt x="409" y="176" on="1"/>
        <pt x="409" y="95" on="0"/>
        <pt x="323" y="-6" on="0"/>
        <pt x="240" y="-6" on="1"/>
        <pt x="178" y="-6" on="0"/>
        <pt x="132" y="28" on="1"/>
        <pt x="132" y="-192" on="1"/>
        <pt x="60" y="-192" on="1"/>
        <pt x="60" y="477" on="1"/>
      </contour>
      <contour>
        <pt x="175" y="57" on="0"/>
        <pt x="233" y="57" on="1"/>
        <pt x="286" y="57" on="0"/>
        <pt x="334" y="117" on="0"/>
        <pt x="334" y="182" on="1"/>
        <pt x="334" y="251" on="0"/>
        <pt x="274" y="321" on="0"/>
        <pt x="205" y="321" on="1"/>
        <pt x="182" y="321" on="1"/>
        <pt x="182" y="383" on="1"/>
        <pt x="205" y="383" on="1"/>
        <pt x="305" y="383" on="0"/>
        <pt x="305" y="484" on="1"/>
        <pt x="305" y="532" on="0"/>
        <pt x="261" y="584" on="0"/>
        <pt x="219" y="584" on="1"/>
        <pt x="132" y="584" on="0"/>
        <pt x="132" y="476" on="1"/>
        <pt x="132" y="97" on="1"/>
      </contour>
    </TTGlyph>
    <TTGlyph name="block" xMin="-5" yMin="-197" xMax="453" yMax="837">
      <contour>
        <pt x="-5" y="-197" on="1"/>
        <pt x="-5" y="837" on="1"/>
        <pt x="453" y="837" on="1"/>
        <pt x="453" y="-197" on="1"/>
      </contour>
    </TTGlyph>
    <TTGlyph name="braceleft" xMin="84" yMin="-64" xMax="341" yMax="704">
      <contour>
        <pt x="243" y="-53" on="0"/>
        <pt x="152" y="5" on="0"/>
        <pt x="152" y="74" on="1"/>
        <pt x="152" y="91" on="0"/>
        <pt x="158" y="127" on="1"/>
        <pt x="164" y="167" on="0"/>
        <pt x="164" y="192" on="1"/>
        <pt x="164" y="228" on="0"/>
        <pt x="125" y="269" on="0"/>
        <pt x="84" y="276" on="1"/>
        <pt x="84" y="364" on="1"/>
        <pt x="125" y="371" on="0"/>
        <pt x="164" y="412" on="0"/>
        <pt x="164" y="448" on="1"/>
        <pt x="164" y="473" on="0"/>
        <pt x="158" y="513" on="1"/>
        <pt x="152" y="549" on="0"/>
        <pt x="152" y="566" on="1"/>
        <pt x="152" y="635" on="0"/>
        <pt x="243" y="693" on="0"/>
        <pt x="331" y="704" on="1"/>
        <pt x="341" y="647" on="1"/>
        <pt x="272" y="634" on="0"/>
        <pt x="220" y="602" on="0"/>
        <pt x="220" y="566" on="1"/>
        <pt x="220" y="553" on="0"/>
        <pt x="223" y="529" on="0"/>
        <pt x="225" y="516" on="1"/>
        <pt x="232" y="479" on="0"/>
        <pt x="232" y="448" on="1"/>
        <pt x="232" y="391" on="0"/>
        <pt x="184" y="335" on="0"/>
        <pt x="134" y="320" on="1"/>
        <pt x="184" y="305" on="0"/>
        <pt x="232" y="249" on="0"/>
        <pt x="232" y="192" on="1"/>
        <pt x="232" y="161" on="0"/>
        <pt x="225" y="124" on="1"/>
        <pt x="223" y="111" on="0"/>
        <pt x="220" y="87" on="0"/>
        <pt x="220" y="74" on="1"/>
        <pt x="220" y="38" on="0"/>
        <pt x="272" y="6" on="0"/>
        <pt x="341" y="-7" on="1"/>
        <pt x="331" y="-64" on="1"/>
      </contour>
    </TTGlyph>
    <TTGlyph name="braceright" xMin="107" yMin="-64" xMax="364" yMax="704">
      <contour>
        <pt x="176" y="6" on="0"/>
        <pt x="228" y="38" on="0"/>
        <pt x="228" y="74" on="1"/>
        <pt x="228" y="87" on="0"/>
        <pt x="225" y="111" on="0"/>
        <pt x="223" y="124" on="1"/>
        <pt x="216" y="161" on="0"/>
        <pt x="216" y="192" on="1"/>
        <pt x="216" y="249" on="0"/>
        <pt x="264" y="305" on="0"/>
        <pt x="314" y="320" on="1"/>
        <pt x="264" y="335" on="0"/>
        <pt x="216" y="391" on="0"/>
        <pt x="216" y="448" on="1"/>
        <pt x="216" y="479" on="0"/>
        <pt x="223" y="516" on="1"/>
        <pt x="225" y="529" on="0"/>
        <pt x="228" y="553" on="0"/>
        <pt x="228" y="566" on="1"/>
        <pt x="228" y="602" on="0"/>
        <pt x="176" y="634" on="0"/>
        <pt x="107" y="647" on="1"/>
        <pt x="117" y="704" on="1"/>
        <pt x="205" y="693" on="0"/>
        <pt x="296" y="635" on="0"/>
        <pt x="296" y="566" on="1"/>
        <pt x="296" y="549" on="0"/>
        <pt x="290" y="513" on="1"/>
        <pt x="284" y="473" on="0"/>
        <pt x="284" y="448" on="1"/>
        <pt x="284" y="412" on="0"/>
        <pt x="323" y="371" on="0"/>
        <pt x="364" y="364" on="1"/>
        <pt x="364" y="276" on="1"/>
        <pt x="323" y="269" on="0"/>
        <pt x="284" y="228" on="0"/>
        <pt x="284" y="192" on="1"/>
        <pt x="284" y="167" on="0"/>
        <pt x="290" y="127" on="1"/>
        <pt x="296" y="91" on="0"/>
        <pt x="296" y="74" on="1"/>
        <pt x="296" y="5" on="0"/>
        <pt x="205" y="-53" on="0"/>
        <pt x="117" y="-64" on="1"/>
        <pt x="107" y="-7" on="1"/>
      </contour>
    </TTGlyph>
    <TTGlyph name="bracketleft" xMin="144" yMin="-64" xMax="340" yMax="704">
      <contour>
        <pt x="216" y="640" on="1"/>
        <pt x="216" y="0" on="1"/>
        <pt x="340" y="0" on="1"/>
        <pt x="340" y="-64" on="1"/>
        <pt x="144" y="-64" on="1"/>
        <pt x="144" y="704" on="1"/>
        <pt x="340" y="704" on="1"/>
        <pt x="340" y="640" on="1"/>
      </contour>
    </TTGlyph>
    <TTGlyph name="bracketright" xMin="108" yMin="-64" xMax="304" yMax="704">
      <contour>
        <pt x="108" y="-64" on="1"/>
        <pt x="108" y="0" on="1"/>
        <pt x="232" y="0" on="1"/>
        <pt x="232" y="640" on="1"/>
        <pt x="108" y="640" on="1"/>
        <pt x="108" y="704" on="1"/>
        <pt x="304" y="704" on="1"/>
        <pt x="304" y="-64" on="1"/>
      </contour>
    </TTGlyph>
    <TTGlyph name="breve" xMin="93" yMin="502" xMax="355" yMax="644">
      <component glyphName="uni0306" x="0" y="0" flags="0x400"/>
    </TTGlyph>
    <TTGlyph name="brokenbar" xMin="190" yMin="-192" xMax="258" yMax="704">
      <contour>
        <pt x="190" y="320" on="1"/>
        <pt x="190" y="704" on="1"/>
        <pt x="258" y="704" on="1"/>
        <pt x="258" y="320" on="1"/>
      </contour>
      <contour>
        <pt x="190" y="-192" on="1"/>
        <pt x="190" y="192" on="1"/>
        <pt x="258" y="192" on="1"/>
        <pt x="258" y="-192" on="1"/>
      </contour>
    </TTGlyph>
    <TTGlyph name="bullet" xMin="122" yMin="120" xMax="326" yMax="328">
      <contour>
        <pt x="267" y="328" on="0"/>
        <pt x="326" y="268" on="0"/>
        <pt x="326" y="224" on="1"/>
        <pt x="326" y="180" on="0"/>
        <pt x="267" y="120" on="0"/>
        <pt x="224" y="120" on="1"/>
        <pt x="181" y="120" on="0"/>
        <pt x="122" y="180" on="0"/>
        <pt x="122" y="224" on="1"/>
        <pt x="122" y="268" on="0"/>
        <pt x="181" y="328" on="0"/>
        <pt x="224" y="328" on="1"/>
      </contour>
    </TTGlyph>
    <TTGlyph name="c" xMin="50" yMin="-7" xMax="358" yMax="455">
      <contour>
        <pt x="291" y="391" on="0"/>
        <pt x="242" y="391" on="1"/>
        <pt x="198" y="391" on="0"/>
        <pt x="148" y="359" on="0"/>
        <pt x="126" y="288" on="0"/>
        <pt x="126" y="224" on="1"/>
        <pt x="126" y="160" on="0"/>
        <pt x="148" y="89" on="0"/>
        <pt x="198" y="57" on="0"/>
        <pt x="242" y="57" on="1"/>
        <pt x="291" y="57" on="0"/>
        <pt x="345" y="72" on="1"/>
        <pt x="358" y="12" on="1"/>
        <pt x="302" y="-7" on="0"/>
        <pt x="238" y="-7" on="1"/>
        <pt x="50" y="-7" on="0"/>
        <pt x="50" y="224" on="1"/>
        <pt x="50" y="455" on="0"/>
        <pt x="238" y="455" on="1"/>
        <pt x="302" y="455" on="0"/>
        <pt x="358" y="436" on="1"/>
        <pt x="345" y="376" on="1"/>
      </contour>
    </TTGlyph>
    <TTGlyph name="cacute" xMin="50" yMin="-7" xMax="358" yMax="704">
      <component glyphName="c" x="0" y="0" flags="0x400"/>
      <component glyphName="acutecomb" x="16" y="0" flags="0x0"/>
    </TTGlyph>
    <TTGlyph name="caron" xMin="85" yMin="507" xMax="363" yMax="646">
      <component glyphName="uni030C" x="0" y="0" flags="0x400"/>
    </TTGlyph>
    <TTGlyph name="carriagereturn" xMin="0" yMin="54" xMax="428" yMax="448">
      <contour>
        <pt x="217" y="98" on="1"/>
        <pt x="179" y="54" on="1"/>
        <pt x="0" y="202" on="1"/>
        <pt x="0" y="246" on="1"/>
        <pt x="179" y="394" on="1"/>
        <pt x="217" y="350" on="1"/>
        <pt x="108" y="256" on="1"/>
        <pt x="360" y="256" on="1"/>
        <pt x="360" y="448" on="1"/>
        <pt x="428" y="448" on="1"/>
        <pt x="428" y="192" on="1"/>
        <pt x="108" y="192" on="1"/>
      </contour>
    </TTGlyph>
    <TTGlyph name="ccaron" xMin="50" yMin="-7" xMax="379" yMax="646">
      <component glyphName="c" x="0" y="0" flags="0x400"/>
      <component glyphName="uni030C" x="16" y="0" flags="0x0"/>
    </TTGlyph>
    <TTGlyph name="ccedilla" xMin="50" yMin="-192" xMax="358" yMax="455">
      <component glyphName="c" x="0" y="0" flags="0x400"/>
      <component glyphName="uni0327" x="-22" y="0" flags="0x0"/>
    </TTGlyph>
    <TTGlyph name="ccircumflex" xMin="50" yMin="-7" xMax="379" yMax="650">
      <component glyphName="c" x="0" y="0" flags="0x400"/>
      <component glyphName="uni0302" x="16" y="0" flags="0x0"/>
    </TTGlyph>
    <TTGlyph name="cdotaccent" xMin="50" yMin="-7" xMax="358" yMax="650">
      <component glyphName="c" x="0" y="0" flags="0x400"/>
      <component glyphName="uni0307" x="16" y="0" flags="0x0"/>
    </TTGlyph>
    <TTGlyph name="cedilla" xMin="126" yMin="-192" xMax="322" yMax="10">
      <component glyphName="uni0327" x="0" y="0" flags="0x400"/>
    </TTGlyph>
    <TTGlyph name="cent" xMin="50" yMin="-64" xMax="358" yMax="640">
      <contour>
        <pt x="291" y="455" on="0"/>
        <pt x="242" y="455" on="1"/>
        <pt x="198" y="455" on="0"/>
        <pt x="148" y="423" on="0"/>
        <pt x="126" y="352" on="0"/>
        <pt x="126" y="288" on="1"/>
        <pt x="126" y="224" on="0"/>
        <pt x="148" y="153" on="0"/>
        <pt x="198" y="121" on="0"/>
        <pt x="242" y="121" on="1"/>
        <pt x="291" y="121" on="0"/>
        <pt x="345" y="136" on="1"/>
        <pt x="358" y="76" on="1"/>
        <pt x="313" y="60" on="0"/>
        <pt x="256" y="57" on="1"/>
        <pt x="256" y="-64" on="1"/>
        <pt x="192" y="-64" on="1"/>
        <pt x="192" y="61" on="1"/>
        <pt x="50" y="87" on="0"/>
        <pt x="50" y="288" on="1"/>
        <pt x="50" y="489" on="0"/>
        <pt x="192" y="515" on="1"/>
        <pt x="192" y="640" on="1"/>
        <pt x="256" y="640" on="1"/>
        <pt x="256" y="519" on="1"/>
        <pt x="313" y="516" on="0"/>
        <pt x="358" y="500" on="1"/>
        <pt x="345" y="440" on="1"/>
      </contour>
    </TTGlyph>
    <TTGlyph name="chi" xMin="25" yMin="-192" xMax="399" yMax="448">
      <contour>
        <pt x="399" y="448" on="1"/>
        <pt x="263" y="158" on="1"/>
        <pt x="324" y="89" on="0"/>
        <pt x="381" y="-65" on="0"/>
        <pt x="393" y="-192" on="1"/>
        <pt x="321" y="-192" on="1"/>
        <pt x="311" y="-82" on="0"/>
        <pt x="272" y="42" on="0"/>
        <pt x="231" y="91" on="1"/>
        <pt x="98" y="-192" on="1"/>
        <pt x="25" y="-192" on="1"/>
        <pt x="180" y="138" on="1"/>
        <pt x="124" y="210" on="0"/>
        <pt x="68" y="345" on="0"/>
        <pt x="48" y="448" on="1"/>
        <pt x="123" y="448" on="1"/>
        <pt x="138" y="366" on="0"/>
        <pt x="177" y="259" on="0"/>
        <pt x="212" y="207" on="1"/>
        <pt x="325" y="448" on="1"/>
      </contour>
    </TTGlyph>
    <TTGlyph name="circle" xMin="54" yMin="120" xMax="394" yMax="456">
      <contour>
        <pt x="177" y="120" on="0"/>
        <pt x="99" y="164" on="0"/>
        <pt x="54" y="241" on="0"/>
        <pt x="54" y="288" on="1"/>
        <pt x="54" y="335" on="0"/>
        <pt x="99" y="412" on="0"/>
        <pt x="177" y="456" on="0"/>
        <pt x="224" y="456" on="1"/>
        <pt x="271" y="456" on="0"/>
        <pt x="349" y="412" on="0"/>
        <pt x="394" y="335" on="0"/>
        <pt x="394" y="288" on="1"/>
        <pt x="394" y="241" on="0"/>
        <pt x="349" y="164" on="0"/>
        <pt x="271" y="120" on="0"/>
        <pt x="224" y="120" on="1"/>
      </contour>
      <contour>
        <pt x="267" y="184" on="0"/>
        <pt x="324" y="244" on="0"/>
        <pt x="324" y="288" on="1"/>
        <pt x="324" y="332" on="0"/>
        <pt x="267" y="392" on="0"/>
        <pt x="224" y="392" on="1"/>
        <pt x="181" y="392" on="0"/>
        <pt x="124" y="332" on="0"/>
        <pt x="124" y="288" on="1"/>
        <pt x="124" y="244" on="0"/>
        <pt x="181" y="184" on="0"/>
        <pt x="224" y="184" on="1"/>
      </contour>
    </TTGlyph>
    <TTGlyph name="circumflex" xMin="85" yMin="511" xMax="363" yMax="650">
      <component glyphName="uni0302" x="0" y="0" flags="0x400"/>
    </TTGlyph>
    <TTGlyph name="club" xMin="64" yMin="64" xMax="384" yMax="512">
      <contour>
        <pt x="384" y="384" on="1"/>
        <pt x="384" y="192" on="1"/>
        <pt x="320" y="192" on="1"/>
        <pt x="320" y="256" on="1"/>
        <pt x="256" y="256" on="1"/>
        <pt x="256" y="128" on="1"/>
        <pt x="384" y="128" on="1"/>
        <pt x="384" y="64" on="1"/>
        <pt x="64" y="64" on="1"/>
        <pt x="64" y="128" on="1"/>
        <pt x="192" y="128" on="1"/>
        <pt x="192" y="256" on="1"/>
        <pt x="128" y="256" on="1"/>
        <pt x="128" y="192" on="1"/>
        <pt x="64" y="192" on="1"/>
        <pt x="64" y="384" on="1"/>
        <pt x="128" y="384" on="1"/>
        <pt x="128" y="320" on="1"/>
        <pt x="192" y="320" on="1"/>
        <pt x="192" y="448" on="1"/>
        <pt x="128" y="448" on="1"/>
        <pt x="128" y="512" on="1"/>
        <pt x="320" y="512" on="1"/>
        <pt x="320" y="448" on="1"/>
        <pt x="256" y="448" on="1"/>
        <pt x="256" y="320" on="1"/>
        <pt x="320" y="320" on="1"/>
        <pt x="320" y="384" on="1"/>
      </contour>
    </TTGlyph>
    <TTGlyph name="colon" xMin="128" yMin="-10" xMax="256" yMax="458">
      <contour>
        <pt x="164" y="-10" on="0"/>
        <pt x="128" y="24" on="0"/>
        <pt x="128" y="54" on="1"/>
        <pt x="128" y="84" on="0"/>
        <pt x="165" y="118" on="0"/>
        <pt x="192" y="118" on="1"/>
        <pt x="219" y="118" on="0"/>
        <pt x="256" y="84" on="0"/>
        <pt x="256" y="54" on="1"/>
        <pt x="256" y="24" on="0"/>
        <pt x="220" y="-10" on="0"/>
        <pt x="192" y="-10" on="1"/>
      </contour>
      <contour>
        <pt x="164" y="330" on="0"/>
        <pt x="128" y="364" on="0"/>
        <pt x="128" y="394" on="1"/>
        <pt x="128" y="424" on="0"/>
        <pt x="165" y="458" on="0"/>
        <pt x="192" y="458" on="1"/>
        <pt x="219" y="458" on="0"/>
        <pt x="256" y="424" on="0"/>
        <pt x="256" y="394" on="1"/>
        <pt x="256" y="364" on="0"/>
        <pt x="220" y="330" on="0"/>
        <pt x="192" y="330" on="1"/>
      </contour>
    </TTGlyph>
    <TTGlyph name="comma" xMin="128" yMin="-133" xMax="258" yMax="118">
      <contour>
        <pt x="157" y="-70" on="0"/>
        <pt x="185" y="-33" on="0"/>
        <pt x="189" y="-10" on="1"/>
        <pt x="160" y="-9" on="0"/>
        <pt x="128" y="26" on="0"/>
        <pt x="128" y="54" on="1"/>
        <pt x="128" y="83" on="0"/>
        <pt x="164" y="118" on="0"/>
        <pt x="190" y="118" on="1"/>
        <pt x="220" y="118" on="0"/>
        <pt x="258" y="76" on="0"/>
        <pt x="258" y="32" on="1"/>
        <pt x="258" y="-17" on="0"/>
        <pt x="210" y="-100" on="0"/>
        <pt x="172" y="-133" on="1"/>
        <pt x="134" y="-91" on="1"/>
      </contour>
    </TTGlyph>
    <TTGlyph name="copyright" xMin="8" yMin="11" xMax="440" yMax="501">
      <contour>
        <pt x="168" y="11" on="0"/>
        <pt x="69" y="67" on="0"/>
        <pt x="8" y="178" on="0"/>
        <pt x="8" y="256" on="1"/>
        <pt x="8" y="335" on="0"/>
        <pt x="69" y="446" on="0"/>
        <pt x="168" y="501" on="0"/>
        <pt x="224" y="501" on="1"/>
        <pt x="280" y="501" on="0"/>
        <pt x="379" y="446" on="0"/>
        <pt x="440" y="335" on="0"/>
        <pt x="440" y="256" on="1"/>
        <pt x="440" y="178" on="0"/>
        <pt x="379" y="67" on="0"/>
        <pt x="280" y="11" on="0"/>
        <pt x="224" y="11" on="1"/>
      </contour>
      <contour>
        <pt x="171" y="120" on="0"/>
        <pt x="112" y="196" on="0"/>
        <pt x="112" y="258" on="1"/>
        <pt x="112" y="321" on="0"/>
        <pt x="171" y="397" on="0"/>
        <pt x="234" y="397" on="1"/>
        <pt x="276" y="397" on="0"/>
        <pt x="314" y="381" on="1"/>
        <pt x="298" y="336" on="1"/>
        <pt x="270" y="348" on="0"/>
        <pt x="237" y="348" on="1"/>
        <pt x="199" y="348" on="0"/>
        <pt x="168" y="310" on="0"/>
        <pt x="168" y="259" on="1"/>
        <pt x="168" y="208" on="0"/>
        <pt x="199" y="170" on="0"/>
        <pt x="237" y="170" on="1"/>
        <pt x="265" y="170" on="0"/>
        <pt x="301" y="181" on="1"/>
        <pt x="314" y="136" on="1"/>
        <pt x="271" y="120" on="0"/>
        <pt x="234" y="120" on="1"/>
      </contour>
      <contour>
        <pt x="299" y="59" on="0"/>
        <pt x="388" y="161" on="0"/>
        <pt x="388" y="256" on="1"/>
        <pt x="388" y="351" on="0"/>
        <pt x="299" y="453" on="0"/>
        <pt x="224" y="453" on="1"/>
        <pt x="149" y="453" on="0"/>
        <pt x="60" y="351" on="0"/>
        <pt x="60" y="256" on="1"/>
        <pt x="60" y="161" on="0"/>
        <pt x="149" y="59" on="0"/>
        <pt x="224" y="59" on="1"/>
      </contour>
    </TTGlyph>
    <TTGlyph name="currency" xMin="43" yMin="57" xMax="405" yMax="519">
      <contour>
        <pt x="265" y="464" on="0"/>
        <pt x="301" y="447" on="1"/>
        <pt x="353" y="519" on="1"/>
        <pt x="405" y="481" on="1"/>
        <pt x="353" y="410" on="1"/>
        <pt x="376" y="387" on="0"/>
        <pt x="402" y="324" on="0"/>
        <pt x="402" y="288" on="1"/>
        <pt x="402" y="252" on="0"/>
        <pt x="377" y="189" on="0"/>
        <pt x="353" y="165" on="1"/>
        <pt x="405" y="95" on="1"/>
        <pt x="353" y="57" on="1"/>
        <pt x="301" y="128" on="1"/>
        <pt x="264" y="112" on="0"/>
        <pt x="224" y="112" on="1"/>
        <pt x="184" y="112" on="0"/>
        <pt x="147" y="128" on="1"/>
        <pt x="95" y="57" on="1"/>
        <pt x="43" y="95" on="1"/>
        <pt x="95" y="165" on="1"/>
        <pt x="71" y="189" on="0"/>
        <pt x="46" y="252" on="0"/>
        <pt x="46" y="288" on="1"/>
        <pt x="46" y="324" on="0"/>
        <pt x="72" y="387" on="0"/>
        <pt x="95" y="410" on="1"/>
        <pt x="43" y="481" on="1"/>
        <pt x="95" y="519" on="1"/>
        <pt x="147" y="447" on="1"/>
        <pt x="183" y="464" on="0"/>
        <pt x="224" y="464" on="1"/>
      </contour>
      <contour>
        <pt x="271" y="176" on="0"/>
        <pt x="334" y="241" on="0"/>
        <pt x="334" y="288" on="1"/>
        <pt x="334" y="335" on="0"/>
        <pt x="271" y="400" on="0"/>
        <pt x="224" y="400" on="1"/>
        <pt x="177" y="400" on="0"/>
        <pt x="114" y="335" on="0"/>
        <pt x="114" y="288" on="1"/>
        <pt x="114" y="241" on="0"/>
        <pt x="177" y="176" on="0"/>
        <pt x="224" y="176" on="1"/>
      </contour>
    </TTGlyph>
    <TTGlyph name="d" xMin="46" yMin="-8" xMax="390" yMax="640">
      <contour>
        <pt x="324" y="36" on="1"/>
        <pt x="281" y="-8" on="0"/>
        <pt x="212" y="-8" on="1"/>
        <pt x="148" y="-8" on="0"/>
        <pt x="107" y="33" on="1"/>
        <pt x="46" y="94" on="0"/>
        <pt x="46" y="224" on="1"/>
        <pt x="46" y="285" on="0"/>
        <pt x="76" y="384" on="0"/>
        <pt x="105" y="413" on="1"/>
        <pt x="148" y="456" on="0"/>
        <pt x="213" y="456" on="1"/>
        <pt x="276" y="456" on="0"/>
        <pt x="316" y="420" on="1"/>
        <pt x="316" y="640" on="1"/>
        <pt x="388" y="640" on="1"/>
        <pt x="388" y="64" on="1"/>
        <pt x="390" y="0" on="1"/>
        <pt x="329" y="0" on="1"/>
      </contour>
      <contour>
        <pt x="124" y="165" on="0"/>
        <pt x="140" y="95" on="0"/>
        <pt x="158" y="77" on="1"/>
        <pt x="179" y="56" on="0"/>
        <pt x="221" y="56" on="1"/>
        <pt x="285" y="56" on="0"/>
        <pt x="316" y="98" on="1"/>
        <pt x="316" y="350" on="1"/>
        <pt x="284" y="392" on="0"/>
        <pt x="221" y="392" on="1"/>
        <pt x="179" y="392" on="0"/>
        <pt x="157" y="370" on="1"/>
        <pt x="139" y="352" on="0"/>
        <pt x="124" y="283" on="0"/>
        <pt x="124" y="224" on="1"/>
      </contour>
    </TTGlyph>
    <TTGlyph name="dagger" xMin="64" yMin="0" xMax="384" yMax="640">
      <contour>
        <pt x="258" y="458" on="1"/>
        <pt x="384" y="458" on="1"/>
        <pt x="384" y="394" on="1"/>
        <pt x="258" y="394" on="1"/>
        <pt x="258" y="0" on="1"/>
        <pt x="190" y="0" on="1"/>
        <pt x="190" y="394" on="1"/>
        <pt x="64" y="394" on="1"/>
        <pt x="64" y="458" on="1"/>
        <pt x="190" y="458" on="1"/>
        <pt x="190" y="640" on="1"/>
        <pt x="258" y="640" on="1"/>
      </contour>
    </TTGlyph>
    <TTGlyph name="daggerdbl" xMin="64" yMin="0" xMax="384" yMax="640">
      <contour>
        <pt x="258" y="458" on="1"/>
        <pt x="384" y="458" on="1"/>
        <pt x="384" y="394" on="1"/>
        <pt x="258" y="394" on="1"/>
        <pt x="258" y="246" on="1"/>
        <pt x="384" y="246" on="1"/>
        <pt x="384" y="182" on="1"/>
        <pt x="258" y="182" on="1"/>
        <pt x="258" y="0" on="1"/>
        <pt x="190" y="0" on="1"/>
        <pt x="190" y="182" on="1"/>
        <pt x="64" y="182" on="1"/>
        <pt x="64" y="246" on="1"/>
        <pt x="190" y="246" on="1"/>
        <pt x="190" y="394" on="1"/>
        <pt x="64" y="394" on="1"/>
        <pt x="64" y="458" on="1"/>
        <pt x="190" y="458" on="1"/>
        <pt x="190" y="640" on="1"/>
        <pt x="258" y="640" on="1"/>
      </contour>
    </TTGlyph>
    <TTGlyph name="dcaron" xMin="16" yMin="-8" xMax="480" yMax="640">
      <component glyphName="d" x="-30" y="0" flags="0x400"/>
      <component glyphName="uni030C.alt" x="44" y="0" flags="0x0"/>
    </TTGlyph>
    <TTGlyph name="dcroat" xMin="46" yMin="-8" xMax="438" yMax="640">
      <component glyphName="d" x="0" y="0" flags="0x400"/>
      <component glyphName="uni0335" x="86" y="310" flags="0x4"/>
    </TTGlyph>
    <TTGlyph name="degree" xMin="55" yMin="377" xMax="329" yMax="647">
      <contour>
        <pt x="231" y="647" on="0"/>
        <pt x="294" y="610" on="0"/>
        <pt x="329" y="548" on="0"/>
        <pt x="329" y="512" on="1"/>
        <pt x="329" y="476" on="0"/>
        <pt x="294" y="414" on="0"/>
        <pt x="231" y="377" on="0"/>
        <pt x="192" y="377" on="1"/>
        <pt x="153" y="377" on="0"/>
        <pt x="90" y="414" on="0"/>
        <pt x="55" y="476" on="0"/>
        <pt x="55" y="512" on="1"/>
        <pt x="55" y="548" on="0"/>
        <pt x="90" y="610" on="0"/>
        <pt x="153" y="647" on="0"/>
        <pt x="192" y="647" on="1"/>
      </contour>
      <contour>
        <pt x="227" y="433" on="0"/>
        <pt x="266" y="478" on="0"/>
        <pt x="266" y="512" on="1"/>
        <pt x="266" y="546" on="0"/>
        <pt x="227" y="591" on="0"/>
        <pt x="192" y="591" on="1"/>
        <pt x="157" y="591" on="0"/>
        <pt x="118" y="546" on="0"/>
        <pt x="118" y="512" on="1"/>
        <pt x="118" y="478" on="0"/>
        <pt x="157" y="433" on="0"/>
        <pt x="192" y="433" on="1"/>
      </contour>
    </TTGlyph>
    <TTGlyph name="delta" xMin="50" yMin="-13" xMax="398" yMax="642">
      <contour>
        <pt x="315" y="578" on="0"/>
        <pt x="278" y="578" on="1"/>
        <pt x="192" y="578" on="0"/>
        <pt x="192" y="516" on="1"/>
        <pt x="192" y="492" on="0"/>
        <pt x="218" y="457" on="0"/>
        <pt x="257" y="429" on="1"/>
        <pt x="317" y="386" on="0"/>
        <pt x="398" y="276" on="0"/>
        <pt x="398" y="192" on="1"/>
        <pt x="398" y="139" on="0"/>
        <pt x="362" y="46" on="0"/>
        <pt x="282" y="-13" on="0"/>
        <pt x="221" y="-13" on="1"/>
        <pt x="162" y="-13" on="0"/>
        <pt x="85" y="44" on="0"/>
        <pt x="50" y="131" on="0"/>
        <pt x="50" y="177" on="1"/>
        <pt x="50" y="247" on="0"/>
        <pt x="121" y="360" on="0"/>
        <pt x="184" y="396" on="1"/>
        <pt x="151" y="421" on="0"/>
        <pt x="117" y="478" on="0"/>
        <pt x="117" y="518" on="1"/>
        <pt x="117" y="572" on="0"/>
        <pt x="193" y="642" on="0"/>
        <pt x="278" y="642" on="1"/>
        <pt x="323" y="642" on="0"/>
        <pt x="384" y="635" on="1"/>
        <pt x="378" y="573" on="1"/>
      </contour>
      <contour>
        <pt x="125" y="118" on="0"/>
        <pt x="175" y="51" on="0"/>
        <pt x="221" y="51" on="1"/>
        <pt x="272" y="51" on="0"/>
        <pt x="324" y="122" on="0"/>
        <pt x="324" y="192" on="1"/>
        <pt x="324" y="291" on="0"/>
        <pt x="240" y="357" on="1"/>
        <pt x="175" y="320" on="0"/>
        <pt x="125" y="236" on="0"/>
        <pt x="125" y="176" on="1"/>
      </contour>
    </TTGlyph>
    <TTGlyph name="diamond" xMin="64" yMin="80" xMax="384" yMax="456">
      <contour>
        <pt x="202" y="456" on="1"/>
        <pt x="246" y="456" on="1"/>
        <pt x="384" y="284" on="1"/>
        <pt x="384" y="252" on="1"/>
        <pt x="246" y="80" on="1"/>
        <pt x="202" y="80" on="1"/>
        <pt x="64" y="252" on="1"/>
        <pt x="64" y="284" on="1"/>
      </contour>
    </TTGlyph>
    <TTGlyph name="dieresis" xMin="82" yMin="534" xMax="366" yMax="648">
      <component glyphName="uni0308" x="0" y="0" flags="0x400"/>
    </TTGlyph>
    <TTGlyph name="dieresistonos" xMin="38" yMin="512" xMax="410" yMax="704">
      <contour>
        <pt x="276" y="704" on="1"/>
        <pt x="246" y="512" on="1"/>
        <pt x="182" y="512" on="1"/>
        <pt x="192" y="704" on="1"/>
      </contour>
      <contour>
        <pt x="113" y="648" on="0"/>
        <pt x="144" y="618" on="0"/>
        <pt x="144" y="591" on="1"/>
        <pt x="144" y="564" on="0"/>
        <pt x="113" y="534" on="0"/>
        <pt x="91" y="534" on="1"/>
        <pt x="69" y="534" on="0"/>
        <pt x="38" y="564" on="0"/>
        <pt x="38" y="591" on="1"/>
        <pt x="38" y="618" on="0"/>
        <pt x="69" y="648" on="0"/>
        <pt x="91" y="648" on="1"/>
      </contour>
      <contour>
        <pt x="379" y="648" on="0"/>
        <pt x="410" y="618" on="0"/>
        <pt x="410" y="591" on="1"/>
        <pt x="410" y="564" on="0"/>
        <pt x="379" y="534" on="0"/>
        <pt x="357" y="534" on="1"/>
        <pt x="335" y="534" on="0"/>
        <pt x="304" y="564" on="0"/>
        <pt x="304" y="591" on="1"/>
        <pt x="304" y="618" on="0"/>
        <pt x="335" y="648" on="0"/>
        <pt x="357" y="648" on="1"/>
      </contour>
    </TTGlyph>
    <TTGlyph name="divide" xMin="24" yMin="62" xMax="424" yMax="514">
      <contour>
        <pt x="24" y="320" on="1"/>
        <pt x="424" y="320" on="1"/>
        <pt x="424" y="256" on="1"/>
        <pt x="24" y="256" on="1"/>
      </contour>
      <contour>
        <pt x="196" y="62" on="0"/>
        <pt x="160" y="96" on="0"/>
        <pt x="160" y="126" on="1"/>
        <pt x="160" y="156" on="0"/>
        <pt x="197" y="190" on="0"/>
        <pt x="224" y="190" on="1"/>
        <pt x="251" y="190" on="0"/>
        <pt x="288" y="156" on="0"/>
        <pt x="288" y="126" on="1"/>
        <pt x="288" y="96" on="0"/>
        <pt x="252" y="62" on="0"/>
        <pt x="224" y="62" on="1"/>
      </contour>
      <contour>
        <pt x="196" y="386" on="0"/>
        <pt x="160" y="420" on="0"/>
        <pt x="160" y="450" on="1"/>
        <pt x="160" y="480" on="0"/>
        <pt x="197" y="514" on="0"/>
        <pt x="224" y="514" on="1"/>
        <pt x="251" y="514" on="0"/>
        <pt x="288" y="480" on="0"/>
        <pt x="288" y="450" on="1"/>
        <pt x="288" y="420" on="0"/>
        <pt x="252" y="386" on="0"/>
        <pt x="224" y="386" on="1"/>
      </contour>
    </TTGlyph>
    <TTGlyph name="dkshade" xMin="0" yMin="-192" xMax="384" yMax="832">
      <contour>
        <pt x="64" y="64" on="1"/>
        <pt x="64" y="128" on="1"/>
        <pt x="0" y="128" on="1"/>
        <pt x="0" y="320" on="1"/>
        <pt x="64" y="320" on="1"/>
        <pt x="64" y="384" on="1"/>
        <pt x="0" y="384" on="1"/>
        <pt x="0" y="576" on="1"/>
        <pt x="64" y="576" on="1"/>
        <pt x="64" y="640" on="1"/>
        <pt x="0" y="640" on="1"/>
        <pt x="0" y="832" on="1"/>
        <pt x="384" y="832" on="1"/>
        <pt x="384" y="768" on="1"/>
        <pt x="320" y="768" on="1"/>
        <pt x="320" y="704" on="1"/>
        <pt x="384" y="704" on="1"/>
        <pt x="384" y="512" on="1"/>
        <pt x="320" y="512" on="1"/>
        <pt x="320" y="448" on="1"/>
        <pt x="384" y="448" on="1"/>
        <pt x="384" y="256" on="1"/>
        <pt x="320" y="256" on="1"/>
        <pt x="320" y="192" on="1"/>
        <pt x="384" y="192" on="1"/>
        <pt x="384" y="0" on="1"/>
        <pt x="320" y="0" on="1"/>
        <pt x="320" y="-64" on="1"/>
        <pt x="384" y="-64" on="1"/>
        <pt x="384" y="-192" on="1"/>
        <pt x="320" y="-192" on="1"/>
        <pt x="320" y="-128" on="1"/>
        <pt x="256" y="-128" on="1"/>
        <pt x="256" y="-192" on="1"/>
        <pt x="192" y="-192" on="1"/>
        <pt x="192" y="-128" on="1"/>
        <pt x="128" y="-128" on="1"/>
        <pt x="128" y="-192" on="1"/>
        <pt x="64" y="-192" on="1"/>
        <pt x="64" y="-128" on="1"/>
        <pt x="0" y="-128" on="1"/>
        <pt x="0" y="64" on="1"/>
      </contour>
      <contour>
        <pt x="128" y="-64" on="1"/>
        <pt x="128" y="0" on="1"/>
        <pt x="64" y="0" on="1"/>
        <pt x="64" y="-64" on="1"/>
      </contour>
      <contour>
        <pt x="256" y="-64" on="1"/>
        <pt x="256" y="0" on="1"/>
        <pt x="192" y="0" on="1"/>
        <pt x="192" y="-64" on="1"/>
      </contour>
      <contour>
        <pt x="192" y="64" on="1"/>
        <pt x="192" y="128" on="1"/>
        <pt x="128" y="128" on="1"/>
        <pt x="128" y="64" on="1"/>
      </contour>
      <contour>
        <pt x="320" y="64" on="1"/>
        <pt x="320" y="128" on="1"/>
        <pt x="256" y="128" on="1"/>
        <pt x="256" y="64" on="1"/>
      </contour>
      <contour>
        <pt x="128" y="448" on="1"/>
        <pt x="128" y="512" on="1"/>
        <pt x="64" y="512" on="1"/>
        <pt x="64" y="448" on="1"/>
      </contour>
      <contour>
        <pt x="128" y="704" on="1"/>
        <pt x="128" y="768" on="1"/>
        <pt x="64" y="768" on="1"/>
        <pt x="64" y="704" on="1"/>
      </contour>
      <contour>
        <pt x="256" y="704" on="1"/>
        <pt x="256" y="768" on="1"/>
        <pt x="192" y="768" on="1"/>
        <pt x="192" y="704" on="1"/>
      </contour>
      <contour>
        <pt x="192" y="576" on="1"/>
        <pt x="192" y="640" on="1"/>
        <pt x="128" y="640" on="1"/>
        <pt x="128" y="576" on="1"/>
      </contour>
      <contour>
        <pt x="320" y="576" on="1"/>
        <pt x="320" y="640" on="1"/>
        <pt x="256" y="640" on="1"/>
        <pt x="256" y="576" on="1"/>
      </contour>
      <contour>
        <pt x="256" y="512" on="1"/>
        <pt x="192" y="512" on="1"/>
        <pt x="192" y="448" on="1"/>
        <pt x="256" y="448" on="1"/>
      </contour>
      <contour>
        <pt x="320" y="384" on="1"/>
        <pt x="256" y="384" on="1"/>
        <pt x="256" y="320" on="1"/>
        <pt x="320" y="320" on="1"/>
      </contour>
      <contour>
        <pt x="128" y="384" on="1"/>
        <pt x="128" y="320" on="1"/>
        <pt x="192" y="320" on="1"/>
        <pt x="192" y="384" on="1"/>
      </contour>
      <contour>
        <pt x="64" y="256" on="1"/>
        <pt x="64" y="192" on="1"/>
        <pt x="128" y="192" on="1"/>
        <pt x="128" y="256" on="1"/>
      </contour>
      <contour>
        <pt x="192" y="256" on="1"/>
        <pt x="192" y="192" on="1"/>
        <pt x="256" y="192" on="1"/>
        <pt x="256" y="256" on="1"/>
      </contour>
    </TTGlyph>
    <TTGlyph name="dnblock" xMin="-5" yMin="-197" xMax="453" yMax="325">
      <contour>
        <pt x="-5" y="-197" on="1"/>
        <pt x="-5" y="325" on="1"/>
        <pt x="453" y="325" on="1"/>
        <pt x="453" y="-197" on="1"/>
      </contour>
    </TTGlyph>
    <TTGlyph name="dollar" xMin="51" yMin="-128" xMax="391" yMax="704">
      <contour>
        <pt x="70" y="82" on="1"/>
        <pt x="103" y="69" on="0"/>
        <pt x="163" y="56" on="0"/>
        <pt x="198" y="56" on="1"/>
        <pt x="262" y="56" on="0"/>
        <pt x="315" y="99" on="0"/>
        <pt x="315" y="136" on="1"/>
        <pt x="315" y="163" on="0"/>
        <pt x="287" y="200" on="0"/>
        <pt x="246" y="223" on="0"/>
        <pt x="210" y="238" on="1"/>
        <pt x="161" y="259" on="0"/>
        <pt x="102" y="295" on="0"/>
        <pt x="59" y="365" on="0"/>
        <pt x="59" y="420" on="1"/>
        <pt x="59" y="480" on="0"/>
        <pt x="127" y="564" on="0"/>
        <pt x="192" y="578" on="1"/>
        <pt x="192" y="704" on="1"/>
        <pt x="256" y="704" on="1"/>
        <pt x="256" y="584" on="1"/>
        <pt x="286" y="584" on="0"/>
        <pt x="351" y="575" on="0"/>
        <pt x="376" y="566" on="1"/>
        <pt x="360" y="502" on="1"/>
        <pt x="308" y="520" on="0"/>
        <pt x="256" y="520" on="1"/>
        <pt x="186" y="520" on="0"/>
        <pt x="135" y="470" on="0"/>
        <pt x="135" y="425" on="1"/>
        <pt x="135" y="390" on="0"/>
        <pt x="167" y="344" on="0"/>
        <pt x="215" y="316" on="0"/>
        <pt x="254" y="299" on="1"/>
        <pt x="299" y="280" on="0"/>
        <pt x="353" y="246" on="0"/>
        <pt x="391" y="186" on="0"/>
        <pt x="391" y="140" on="1"/>
        <pt x="391" y="79" on="0"/>
        <pt x="322" y="7" on="0"/>
        <pt x="256" y="-4" on="1"/>
        <pt x="256" y="-128" on="1"/>
        <pt x="192" y="-128" on="1"/>
        <pt x="192" y="-8" on="1"/>
        <pt x="118" y="-8" on="0"/>
        <pt x="51" y="18" on="1"/>
      </contour>
    </TTGlyph>
    <TTGlyph name="dotaccent" xMin="165" yMin="532" xMax="283" yMax="650">
      <component glyphName="uni0307" x="0" y="0" flags="0x400"/>
    </TTGlyph>
    <TTGlyph name="dotbelowcomb" xMin="165" yMin="-178" xMax="283" yMax="-60">
      <component glyphName="uni0307" x="0" y="-710" flags="0x404"/>
    </TTGlyph>
    <TTGlyph name="dotlessi" xMin="74" yMin="0" xMax="270" yMax="448">
      <contour>
        <pt x="198" y="382" on="1"/>
        <pt x="74" y="390" on="1"/>
        <pt x="74" y="448" on="1"/>
        <pt x="270" y="448" on="1"/>
        <pt x="270" y="0" on="1"/>
        <pt x="198" y="0" on="1"/>
      </contour>
    </TTGlyph>
    <TTGlyph name="dotlessi.cv02" xMin="188" yMin="0" xMax="260" yMax="448">
      <contour>
        <pt x="188" y="448" on="1"/>
        <pt x="260" y="448" on="1"/>
        <pt x="260" y="0" on="1"/>
        <pt x="188" y="0" on="1"/>
      </contour>
    </TTGlyph>
    <TTGlyph name="dotmath" xMin="160" yMin="224" xMax="288" yMax="352">
      <component glyphName="period" x="32" y="234" flags="0x404"/>
    </TTGlyph>
    <TTGlyph name="e" xMin="50" yMin="-13" xMax="396" yMax="461">
      <contour>
        <pt x="50" y="331" on="0"/>
        <pt x="133" y="461" on="0"/>
        <pt x="224" y="461" on="1"/>
        <pt x="307" y="461" on="0"/>
        <pt x="396" y="343" on="0"/>
        <pt x="396" y="239" on="1"/>
        <pt x="396" y="214" on="0"/>
        <pt x="395" y="201" on="1"/>
        <pt x="126" y="201" on="1"/>
        <pt x="129" y="118" on="0"/>
        <pt x="183" y="51" on="0"/>
        <pt x="246" y="51" on="1"/>
        <pt x="294" y="51" on="0"/>
        <pt x="361" y="74" on="1"/>
        <pt x="375" y="16" on="1"/>
        <pt x="310" y="-13" on="0"/>
        <pt x="242" y="-13" on="1"/>
        <pt x="50" y="-13" on="0"/>
        <pt x="50" y="224" on="1"/>
      </contour>
      <contour>
        <pt x="321" y="263" on="1"/>
        <pt x="319" y="332" on="0"/>
        <pt x="271" y="397" on="0"/>
        <pt x="224" y="397" on="1"/>
        <pt x="177" y="397" on="0"/>
        <pt x="131" y="335" on="0"/>
        <pt x="127" y="263" on="1"/>
      </contour>
    </TTGlyph>
    <TTGlyph name="eacute" xMin="50" yMin="-13" xMax="396" yMax="704">
      <component glyphName="e" x="0" y="0" flags="0x400"/>
      <component glyphName="acutecomb" x="0" y="0" flags="0x0"/>
    </TTGlyph>
    <TTGlyph name="ebreve" xMin="50" yMin="-13" xMax="396" yMax="644">
      <component glyphName="e" x="0" y="0" flags="0x400"/>
      <component glyphName="uni0306" x="0" y="0" flags="0x0"/>
    </TTGlyph>
    <TTGlyph name="ecaron" xMin="50" yMin="-13" xMax="396" yMax="646">
      <component glyphName="e" x="0" y="0" flags="0x400"/>
      <component glyphName="uni030C" x="0" y="0" flags="0x0"/>
    </TTGlyph>
    <TTGlyph name="ecircumflex" xMin="50" yMin="-13" xMax="396" yMax="650">
      <component glyphName="e" x="0" y="0" flags="0x400"/>
      <component glyphName="uni0302" x="0" y="0" flags="0x0"/>
    </TTGlyph>
    <TTGlyph name="edieresis" xMin="50" yMin="-13" xMax="396" yMax="648">
      <component glyphName="e" x="0" y="0" flags="0x400"/>
      <component glyphName="uni0308" x="0" y="0" flags="0x0"/>
    </TTGlyph>
    <TTGlyph name="edotaccent" xMin="50" yMin="-13" xMax="396" yMax="650">
      <component glyphName="e" x="0" y="0" flags="0x400"/>
      <component glyphName="uni0307" x="0" y="0" flags="0x0"/>
    </TTGlyph>
    <TTGlyph name="egrave" xMin="50" yMin="-13" xMax="396" yMax="704">
      <component glyphName="e" x="0" y="0" flags="0x400"/>
      <component glyphName="gravecomb" x="0" y="0" flags="0x0"/>
    </TTGlyph>
    <TTGlyph name="eight" xMin="34" yMin="-11" xMax="415" yMax="586">
      <contour>
        <pt x="134" y="-11" on="0"/>
        <pt x="34" y="81" on="0"/>
        <pt x="34" y="152" on="1"/>
        <pt x="34" y="200" on="0"/>
        <pt x="84" y="279" on="0"/>
        <pt x="126" y="307" on="1"/>
        <pt x="89" y="337" on="0"/>
        <pt x="58" y="399" on="0"/>
        <pt x="58" y="435" on="1"/>
        <pt x="58" y="478" on="0"/>
        <pt x="101" y="547" on="0"/>
        <pt x="177" y="586" on="0"/>
        <pt x="224" y="586" on="1"/>
        <pt x="297" y="586" on="0"/>
        <pt x="390" y="499" on="0"/>
        <pt x="390" y="427" on="1"/>
        <pt x="390" y="388" on="0"/>
        <pt x="352" y="308" on="0"/>
        <pt x="312" y="276" on="1"/>
        <pt x="365" y="247" on="0"/>
        <pt x="415" y="183" on="0"/>
        <pt x="415" y="137" on="1"/>
        <pt x="415" y="98" on="0"/>
        <pt x="369" y="30" on="0"/>
        <pt x="283" y="-11" on="0"/>
        <pt x="224" y="-11" on="1"/>
      </contour>
      <contour>
        <pt x="108" y="110" on="0"/>
        <pt x="165" y="53" on="0"/>
        <pt x="224" y="53" on="1"/>
        <pt x="282" y="53" on="0"/>
        <pt x="341" y="105" on="0"/>
        <pt x="341" y="137" on="1"/>
        <pt x="341" y="158" on="0"/>
        <pt x="321" y="191" on="0"/>
        <pt x="265" y="230" on="0"/>
        <pt x="211" y="256" on="1"/>
        <pt x="177" y="274" on="1"/>
        <pt x="138" y="248" on="0"/>
        <pt x="108" y="188" on="0"/>
        <pt x="108" y="152" on="1"/>
      </contour>
      <contour>
        <pt x="132" y="409" on="0"/>
        <pt x="150" y="372" on="0"/>
        <pt x="204" y="330" on="0"/>
        <pt x="257" y="305" on="1"/>
        <pt x="289" y="333" on="0"/>
        <pt x="316" y="394" on="0"/>
        <pt x="316" y="429" on="1"/>
        <pt x="316" y="469" on="0"/>
        <pt x="271" y="522" on="0"/>
        <pt x="224" y="522" on="1"/>
        <pt x="176" y="522" on="0"/>
        <pt x="132" y="471" on="0"/>
        <pt x="132" y="434" on="1"/>
      </contour>
    </TTGlyph>
    <TTGlyph name="eight.dnom" xMin="176" yMin="-198" xMax="400" yMax="134">
      <component glyphName="uni2078" x="128" y="-512" flags="0x404"/>
    </TTGlyph>
    <TTGlyph name="eight.numr" xMin="48" yMin="314" xMax="272" yMax="646">
      <component glyphName="uni2078" x="0" y="0" flags="0x400"/>
    </TTGlyph>
    <TTGlyph name="eight.osf" xMin="34" yMin="-11" xMax="415" yMax="586">
      <component glyphName="eight" x="0" y="0" flags="0x400"/>
    </TTGlyph>
    <TTGlyph name="eight_fraction_nine" xMin="41" yMin="-198" xMax="406" yMax="646">
      <component glyphName="eight.numr" x="0" y="0" flags="0x400"/>
      <component glyphName="fraction.alt" x="0" y="0" flags="0x0"/>
      <component glyphName="nine.dnom" x="0" y="0" flags="0x0"/>
    </TTGlyph>
    <TTGlyph name="ellipsis" xMin="11" yMin="-10" xMax="437" yMax="118">
      <component glyphName="period" x="-117" y="0" flags="0x400"/>
      <component glyphName="period" x="32" y="0" flags="0x0"/>
      <component glyphName="period" x="181" y="0" flags="0x0"/>
    </TTGlyph>
    <TTGlyph name="emacron" xMin="50" yMin="-13" xMax="396" yMax="624">
      <component glyphName="e" x="0" y="0" flags="0x400"/>
      <component glyphName="uni0304" x="0" y="0" flags="0x0"/>
    </TTGlyph>
    <TTGlyph name="emdash" xMin="-10" yMin="256" xMax="458" yMax="320">
      <contour>
        <pt x="-10" y="256" on="1"/>
        <pt x="-10" y="320" on="1"/>
        <pt x="458" y="320" on="1"/>
        <pt x="458" y="256" on="1"/>
      </contour>
    </TTGlyph>
    <TTGlyph name="emoji.eyes" xMin="50" yMin="378" xMax="398" yMax="518">
      <contour>
        <pt x="77" y="378" on="0"/>
        <pt x="50" y="419" on="0"/>
        <pt x="50" y="448" on="1"/>
        <pt x="50" y="477" on="0"/>
        <pt x="77" y="518" on="0"/>
        <pt x="96" y="518" on="1"/>
        <pt x="115" y="518" on="0"/>
        <pt x="142" y="477" on="0"/>
        <pt x="142" y="448" on="1"/>
        <pt x="142" y="419" on="0"/>
        <pt x="115" y="378" on="0"/>
        <pt x="96" y="378" on="1"/>
      </contour>
      <contour>
        <pt x="333" y="378" on="0"/>
        <pt x="306" y="419" on="0"/>
        <pt x="306" y="448" on="1"/>
        <pt x="306" y="477" on="0"/>
        <pt x="333" y="518" on="0"/>
        <pt x="352" y="518" on="1"/>
        <pt x="371" y="518" on="0"/>
        <pt x="398" y="477" on="0"/>
        <pt x="398" y="448" on="1"/>
        <pt x="398" y="419" on="0"/>
        <pt x="371" y="378" on="0"/>
        <pt x="352" y="378" on="1"/>
      </contour>
    </TTGlyph>
    <TTGlyph name="emoji.eyes.angry" xMin="0" yMin="378" xMax="448" yMax="518">
      <contour>
        <pt x="0" y="518" on="1"/>
        <pt x="192" y="478" on="1"/>
        <pt x="192" y="414" on="1"/>
        <pt x="140" y="427" on="1"/>
        <pt x="135" y="406" on="0"/>
        <pt x="111" y="378" on="0"/>
        <pt x="96" y="378" on="1"/>
        <pt x="77" y="378" on="0"/>
        <pt x="50" y="419" on="0"/>
        <pt x="50" y="448" on="1"/>
        <pt x="56" y="448" on="1"/>
        <pt x="0" y="462" on="1"/>
      </contour>
      <contour>
        <pt x="256" y="478" on="1"/>
        <pt x="448" y="518" on="1"/>
        <pt x="448" y="462" on="1"/>
        <pt x="392" y="448" on="1"/>
        <pt x="398" y="448" on="1"/>
        <pt x="398" y="419" on="0"/>
        <pt x="371" y="378" on="0"/>
        <pt x="352" y="378" on="1"/>
        <pt x="337" y="378" on="0"/>
        <pt x="313" y="406" on="0"/>
        <pt x="308" y="427" on="1"/>
        <pt x="256" y="414" on="1"/>
      </contour>
    </TTGlyph>
    <TTGlyph name="emoji.eyes.smiling" xMin="0" yMin="384" xMax="448" yMax="512">
      <contour>
        <pt x="64" y="512" on="1"/>
        <pt x="128" y="512" on="1"/>
        <pt x="192" y="384" on="1"/>
        <pt x="133" y="384" on="1"/>
        <pt x="101" y="448" on="1"/>
        <pt x="91" y="448" on="1"/>
        <pt x="59" y="384" on="1"/>
        <pt x="0" y="384" on="1"/>
      </contour>
      <contour>
        <pt x="320" y="512" on="1"/>
        <pt x="384" y="512" on="1"/>
        <pt x="448" y="384" on="1"/>
        <pt x="389" y="384" on="1"/>
        <pt x="357" y="448" on="1"/>
        <pt x="347" y="448" on="1"/>
        <pt x="315" y="384" on="1"/>
        <pt x="256" y="384" on="1"/>
      </contour>
    </TTGlyph>
    <TTGlyph name="emoji.mouth" xMin="0" yMin="130" xMax="448" yMax="256">
      <contour>
        <pt x="61" y="130" on="0"/>
        <pt x="0" y="194" on="0"/>
        <pt x="0" y="249" on="1"/>
        <pt x="0" y="256" on="1"/>
        <pt x="64" y="256" on="1"/>
        <pt x="64" y="251" on="1"/>
        <pt x="64" y="221" on="0"/>
        <pt x="88" y="190" on="0"/>
        <pt x="116" y="190" on="1"/>
        <pt x="332" y="190" on="1"/>
        <pt x="360" y="190" on="0"/>
        <pt x="384" y="221" on="0"/>
        <pt x="384" y="251" on="1"/>
        <pt x="384" y="256" on="1"/>
        <pt x="448" y="256" on="1"/>
        <pt x="448" y="249" on="1"/>
        <pt x="448" y="194" on="0"/>
        <pt x="387" y="130" on="0"/>
        <pt x="332" y="130" on="1"/>
        <pt x="116" y="130" on="1"/>
      </contour>
    </TTGlyph>
    <TTGlyph name="emoji.mouth.grinning" xMin="0" yMin="66" xMax="448" yMax="254">
      <contour>
        <pt x="61" y="66" on="0"/>
        <pt x="0" y="130" on="0"/>
        <pt x="0" y="185" on="1"/>
        <pt x="0" y="254" on="1"/>
        <pt x="448" y="254" on="1"/>
        <pt x="448" y="185" on="1"/>
        <pt x="448" y="130" on="0"/>
        <pt x="387" y="66" on="0"/>
        <pt x="332" y="66" on="1"/>
        <pt x="116" y="66" on="1"/>
      </contour>
      <contour>
        <pt x="360" y="126" on="0"/>
        <pt x="384" y="157" on="0"/>
        <pt x="384" y="187" on="1"/>
        <pt x="384" y="194" on="1"/>
        <pt x="320" y="194" on="1"/>
        <pt x="320" y="126" on="1"/>
        <pt x="332" y="126" on="1"/>
      </contour>
      <contour>
        <pt x="64" y="157" on="0"/>
        <pt x="88" y="126" on="0"/>
        <pt x="116" y="126" on="1"/>
        <pt x="128" y="126" on="1"/>
        <pt x="128" y="194" on="1"/>
        <pt x="64" y="194" on="1"/>
        <pt x="64" y="187" on="1"/>
      </contour>
      <contour>
        <pt x="256" y="126" on="1"/>
        <pt x="256" y="194" on="1"/>
        <pt x="192" y="194" on="1"/>
        <pt x="192" y="126" on="1"/>
      </contour>
    </TTGlyph>
    <TTGlyph name="endash" xMin="84" yMin="256" xMax="364" yMax="320">
      <component glyphName="hyphen" x="0" y="0" flags="0x400"/>
    </TTGlyph>
    <TTGlyph name="eng" xMin="58" yMin="-196" xMax="388" yMax="452">
      <contour>
        <pt x="60" y="384" on="1"/>
        <pt x="58" y="448" on="1"/>
        <pt x="124" y="448" on="1"/>
        <pt x="129" y="393" on="1"/>
        <pt x="191" y="452" on="0"/>
        <pt x="259" y="452" on="1"/>
        <pt x="317" y="452" on="0"/>
        <pt x="388" y="379" on="0"/>
        <pt x="388" y="303" on="1"/>
        <pt x="388" y="-5" on="1"/>
        <pt x="388" y="-77" on="0"/>
        <pt x="334" y="-168" on="0"/>
        <pt x="268" y="-196" on="1"/>
        <pt x="239" y="-136" on="1"/>
        <pt x="284" y="-117" on="0"/>
        <pt x="316" y="-66" on="0"/>
        <pt x="316" y="-13" on="1"/>
        <pt x="316" y="301" on="1"/>
        <pt x="316" y="388" on="0"/>
        <pt x="245" y="388" on="1"/>
        <pt x="190" y="388" on="0"/>
        <pt x="132" y="330" on="1"/>
        <pt x="132" y="0" on="1"/>
        <pt x="60" y="0" on="1"/>
      </contour>
    </TTGlyph>
    <TTGlyph name="eogonek" xMin="50" yMin="-197" xMax="396" yMax="461">
      <component glyphName="e" x="0" y="0" flags="0x400"/>
      <component glyphName="uni0328" x="-53" y="0" flags="0x0"/>
    </TTGlyph>
    <TTGlyph name="epsilon" xMin="52" yMin="-7" xMax="380" yMax="455">
      <contour>
        <pt x="139" y="-7" on="0"/>
        <pt x="52" y="63" on="0"/>
        <pt x="52" y="118" on="1"/>
        <pt x="52" y="158" on="0"/>
        <pt x="94" y="215" on="0"/>
        <pt x="137" y="230" on="1"/>
        <pt x="58" y="256" on="0"/>
        <pt x="58" y="328" on="1"/>
        <pt x="58" y="382" on="0"/>
        <pt x="144" y="455" on="0"/>
        <pt x="238" y="455" on="1"/>
        <pt x="314" y="455" on="0"/>
        <pt x="368" y="436" on="1"/>
        <pt x="355" y="376" on="1"/>
        <pt x="303" y="391" on="0"/>
        <pt x="240" y="391" on="1"/>
        <pt x="185" y="391" on="0"/>
        <pt x="132" y="357" on="0"/>
        <pt x="132" y="327" on="1"/>
        <pt x="132" y="297" on="0"/>
        <pt x="179" y="263" on="0"/>
        <pt x="226" y="263" on="1"/>
        <pt x="324" y="263" on="1"/>
        <pt x="324" y="201" on="1"/>
        <pt x="226" y="201" on="1"/>
        <pt x="177" y="201" on="0"/>
        <pt x="126" y="160" on="0"/>
        <pt x="126" y="131" on="1"/>
        <pt x="126" y="96" on="0"/>
        <pt x="184" y="57" on="0"/>
        <pt x="243" y="57" on="1"/>
        <pt x="305" y="57" on="0"/>
        <pt x="367" y="73" on="1"/>
        <pt x="380" y="13" on="1"/>
        <pt x="317" y="-7" on="0"/>
        <pt x="237" y="-7" on="1"/>
      </contour>
    </TTGlyph>
    <TTGlyph name="epsilontonos" xMin="52" yMin="-7" xMax="380" yMax="704">
      <component glyphName="epsilon" x="0" y="0" flags="0x400"/>
      <component glyphName="tonos" x="0" y="0" flags="0x0"/>
    </TTGlyph>
    <TTGlyph name="equal" xMin="32" yMin="176" xMax="416" yMax="400">
      <contour>
        <pt x="32" y="176" on="1"/>
        <pt x="32" y="240" on="1"/>
        <pt x="416" y="240" on="1"/>
        <pt x="416" y="176" on="1"/>
      </contour>
      <contour>
        <pt x="32" y="336" on="1"/>
        <pt x="32" y="400" on="1"/>
        <pt x="416" y="400" on="1"/>
        <pt x="416" y="336" on="1"/>
      </contour>
    </TTGlyph>
    <TTGlyph name="equivalence" xMin="32" yMin="118" xMax="416" yMax="458">
      <contour>
        <pt x="32" y="118" on="1"/>
        <pt x="32" y="182" on="1"/>
        <pt x="416" y="182" on="1"/>
        <pt x="416" y="118" on="1"/>
      </contour>
      <contour>
        <pt x="32" y="256" on="1"/>
        <pt x="32" y="320" on="1"/>
        <pt x="416" y="320" on="1"/>
        <pt x="416" y="256" on="1"/>
      </contour>
      <contour>
        <pt x="32" y="394" on="1"/>
        <pt x="32" y="458" on="1"/>
        <pt x="416" y="458" on="1"/>
        <pt x="416" y="394" on="1"/>
      </contour>
    </TTGlyph>
    <TTGlyph name="estimated" xMin="50" yMin="-13" xMax="398" yMax="461">
      <contour>
        <pt x="296" y="-13" on="0"/>
        <pt x="238" y="-13" on="1"/>
        <pt x="138" y="-13" on="0"/>
        <pt x="50" y="122" on="0"/>
        <pt x="50" y="224" on="1"/>
        <pt x="50" y="326" on="0"/>
        <pt x="139" y="461" on="0"/>
        <pt x="229" y="461" on="1"/>
        <pt x="317" y="461" on="0"/>
        <pt x="398" y="333" on="0"/>
        <pt x="398" y="224" on="1"/>
        <pt x="398" y="191" on="1"/>
        <pt x="164" y="191" on="1"/>
        <pt x="166" y="109" on="0"/>
        <pt x="202" y="41" on="0"/>
        <pt x="249" y="41" on="1"/>
        <pt x="297" y="41" on="0"/>
        <pt x="348" y="57" on="1"/>
        <pt x="362" y="8" on="1"/>
      </contour>
      <contour>
        <pt x="284" y="247" on="1"/>
        <pt x="282" y="335" on="0"/>
        <pt x="256" y="407" on="0"/>
        <pt x="225" y="407" on="1"/>
        <pt x="192" y="407" on="0"/>
        <pt x="166" y="335" on="0"/>
        <pt x="164" y="247" on="1"/>
      </contour>
    </TTGlyph>
    <TTGlyph name="eta" xMin="58" yMin="-192" xMax="388" yMax="452">
      <contour>
        <pt x="60" y="384" on="1"/>
        <pt x="58" y="448" on="1"/>
        <pt x="124" y="448" on="1"/>
        <pt x="129" y="393" on="1"/>
        <pt x="191" y="452" on="0"/>
        <pt x="259" y="452" on="1"/>
        <pt x="317" y="452" on="0"/>
        <pt x="388" y="379" on="0"/>
        <pt x="388" y="303" on="1"/>
        <pt x="388" y="-192" on="1"/>
        <pt x="316" y="-192" on="1"/>
        <pt x="316" y="301" on="1"/>
        <pt x="316" y="388" on="0"/>
        <pt x="245" y="388" on="1"/>
        <pt x="190" y="388" on="0"/>
        <pt x="132" y="330" on="1"/>
        <pt x="132" y="0" on="1"/>
        <pt x="60" y="0" on="1"/>
      </contour>
    </TTGlyph>
    <TTGlyph name="etatonos" xMin="58" yMin="-192" xMax="388" yMax="704">
      <component glyphName="eta" x="0" y="0" flags="0x400"/>
      <component glyphName="tonos" x="0" y="0" flags="0x0"/>
    </TTGlyph>
    <TTGlyph name="eth" xMin="47" yMin="-8" xMax="400" yMax="648">
      <contour>
        <pt x="215" y="616" on="0"/>
        <pt x="245" y="590" on="1"/>
        <pt x="310" y="635" on="1"/>
        <pt x="341" y="591" on="1"/>
        <pt x="284" y="552" on="1"/>
        <pt x="400" y="427" on="0"/>
        <pt x="400" y="252" on="1"/>
        <pt x="400" y="124" on="0"/>
        <pt x="308" y="-8" on="0"/>
        <pt x="221" y="-8" on="1"/>
        <pt x="141" y="-8" on="0"/>
        <pt x="47" y="106" on="0"/>
        <pt x="47" y="203" on="1"/>
        <pt x="47" y="269" on="0"/>
        <pt x="91" y="364" on="0"/>
        <pt x="168" y="414" on="0"/>
        <pt x="215" y="414" on="1"/>
        <pt x="263" y="414" on="0"/>
        <pt x="306" y="391" on="1"/>
        <pt x="283" y="458" on="0"/>
        <pt x="230" y="514" on="1"/>
        <pt x="154" y="461" on="1"/>
        <pt x="123" y="505" on="1"/>
        <pt x="190" y="552" on="1"/>
        <pt x="168" y="572" on="0"/>
        <pt x="132" y="596" on="1"/>
        <pt x="168" y="648" on="1"/>
      </contour>
      <contour>
        <pt x="121" y="56" on="0"/>
        <pt x="224" y="56" on="1"/>
        <pt x="282" y="56" on="0"/>
        <pt x="327" y="154" on="0"/>
        <pt x="327" y="247" on="1"/>
        <pt x="327" y="289" on="0"/>
        <pt x="323" y="320" on="1"/>
        <pt x="275" y="350" on="0"/>
        <pt x="223" y="350" on="1"/>
        <pt x="166" y="350" on="0"/>
        <pt x="121" y="270" on="0"/>
        <pt x="121" y="203" on="1"/>
      </contour>
    </TTGlyph>
    <TTGlyph name="exclam" xMin="160" yMin="-10" xMax="288" yMax="640">
      <contour>
        <pt x="178" y="640" on="1"/>
        <pt x="270" y="640" on="1"/>
        <pt x="256" y="192" on="1"/>
        <pt x="192" y="192" on="1"/>
      </contour>
      <contour>
        <pt x="196" y="-10" on="0"/>
        <pt x="160" y="24" on="0"/>
        <pt x="160" y="54" on="1"/>
        <pt x="160" y="84" on="0"/>
        <pt x="197" y="118" on="0"/>
        <pt x="224" y="118" on="1"/>
        <pt x="251" y="118" on="0"/>
        <pt x="288" y="84" on="0"/>
        <pt x="288" y="54" on="1"/>
        <pt x="288" y="24" on="0"/>
        <pt x="252" y="-10" on="0"/>
        <pt x="224" y="-10" on="1"/>
      </contour>
    </TTGlyph>
    <TTGlyph name="exclamdbl" xMin="64" yMin="-10" xMax="384" yMax="640">
      <component glyphName="exclam" x="-96" y="0" flags="0x400"/>
      <component glyphName="exclam" x="96" y="0" flags="0x0"/>
    </TTGlyph>
    <TTGlyph name="exclamdown" xMin="160" yMin="-192" xMax="288" yMax="458">
      <contour>
        <pt x="270" y="-192" on="1"/>
        <pt x="178" y="-192" on="1"/>
        <pt x="192" y="256" on="1"/>
        <pt x="256" y="256" on="1"/>
      </contour>
      <contour>
        <pt x="252" y="458" on="0"/>
        <pt x="288" y="424" on="0"/>
        <pt x="288" y="394" on="1"/>
        <pt x="288" y="364" on="0"/>
        <pt x="251" y="330" on="0"/>
        <pt x="224" y="330" on="1"/>
        <pt x="197" y="330" on="0"/>
        <pt x="160" y="364" on="0"/>
        <pt x="160" y="394" on="1"/>
        <pt x="160" y="424" on="0"/>
        <pt x="196" y="458" on="0"/>
        <pt x="224" y="458" on="1"/>
      </contour>
    </TTGlyph>
    <TTGlyph name="f" xMin="59" yMin="0" xMax="378" yMax="648">
      <contour>
        <pt x="59" y="386" on="1"/>
        <pt x="59" y="448" on="1"/>
        <pt x="134" y="448" on="1"/>
        <pt x="134" y="504" on="1"/>
        <pt x="134" y="577" on="0"/>
        <pt x="208" y="648" on="0"/>
        <pt x="270" y="648" on="1"/>
        <pt x="324" y="648" on="0"/>
        <pt x="378" y="638" on="1"/>
        <pt x="367" y="575" on="1"/>
        <pt x="308" y="584" on="0"/>
        <pt x="274" y="584" on="1"/>
        <pt x="206" y="584" on="0"/>
        <pt x="206" y="509" on="1"/>
        <pt x="206" y="448" on="1"/>
        <pt x="350" y="448" on="1"/>
        <pt x="350" y="384" on="1"/>
        <pt x="206" y="384" on="1"/>
        <pt x="206" y="0" on="1"/>
        <pt x="134" y="0" on="1"/>
        <pt x="134" y="383" on="1"/>
      </contour>
    </TTGlyph>
    <TTGlyph name="f.italic" xMin="59" yMin="-202" xMax="378" yMax="648">
      <contour>
        <pt x="125" y="-135" on="0"/>
        <pt x="149" y="-70" on="0"/>
        <pt x="148" y="-12" on="1"/>
        <pt x="137" y="383" on="1"/>
        <pt x="59" y="386" on="1"/>
        <pt x="59" y="448" on="1"/>
        <pt x="135" y="448" on="1"/>
        <pt x="134" y="498" on="1"/>
        <pt x="132" y="574" on="0"/>
        <pt x="207" y="648" on="0"/>
        <pt x="270" y="648" on="1"/>
        <pt x="324" y="648" on="0"/>
        <pt x="378" y="638" on="1"/>
        <pt x="367" y="575" on="1"/>
        <pt x="308" y="584" on="0"/>
        <pt x="274" y="584" on="1"/>
        <pt x="204" y="584" on="0"/>
        <pt x="206" y="502" on="1"/>
        <pt x="207" y="448" on="1"/>
        <pt x="350" y="448" on="1"/>
        <pt x="350" y="384" on="1"/>
        <pt x="209" y="384" on="1"/>
        <pt x="219" y="-11" on="1"/>
        <pt x="221" y="-79" on="0"/>
        <pt x="186" y="-162" on="0"/>
        <pt x="151" y="-202" on="1"/>
        <pt x="100" y="-170" on="1"/>
      </contour>
    </TTGlyph>
    <TTGlyph name="female" xMin="54" yMin="-114" xMax="394" yMax="456">
      <contour>
        <pt x="190" y="-16" on="1"/>
        <pt x="94" y="-16" on="1"/>
        <pt x="94" y="48" on="1"/>
        <pt x="190" y="48" on="1"/>
        <pt x="190" y="123" on="1"/>
        <pt x="130" y="134" on="0"/>
        <pt x="54" y="226" on="0"/>
        <pt x="54" y="288" on="1"/>
        <pt x="54" y="335" on="0"/>
        <pt x="99" y="412" on="0"/>
        <pt x="177" y="456" on="0"/>
        <pt x="224" y="456" on="1"/>
        <pt x="271" y="456" on="0"/>
        <pt x="349" y="412" on="0"/>
        <pt x="394" y="335" on="0"/>
        <pt x="394" y="288" on="1"/>
        <pt x="394" y="226" on="0"/>
        <pt x="318" y="134" on="0"/>
        <pt x="258" y="123" on="1"/>
        <pt x="258" y="48" on="1"/>
        <pt x="354" y="48" on="1"/>
        <pt x="354" y="-16" on="1"/>
        <pt x="258" y="-16" on="1"/>
        <pt x="258" y="-114" on="1"/>
        <pt x="190" y="-114" on="1"/>
      </contour>
      <contour>
        <pt x="267" y="184" on="0"/>
        <pt x="324" y="244" on="0"/>
        <pt x="324" y="288" on="1"/>
        <pt x="324" y="332" on="0"/>
        <pt x="267" y="392" on="0"/>
        <pt x="224" y="392" on="1"/>
        <pt x="181" y="392" on="0"/>
        <pt x="124" y="332" on="0"/>
        <pt x="124" y="288" on="1"/>
        <pt x="124" y="244" on="0"/>
        <pt x="181" y="184" on="0"/>
        <pt x="224" y="184" on="1"/>
      </contour>
    </TTGlyph>
    <TTGlyph name="filledbox" xMin="62" yMin="128" xMax="386" yMax="448">
      <contour>
        <pt x="386" y="128" on="1"/>
        <pt x="62" y="128" on="1"/>
        <pt x="62" y="448" on="1"/>
        <pt x="386" y="448" on="1"/>
      </contour>
    </TTGlyph>
    <TTGlyph name="filledrect" xMin="16" yMin="192" xMax="432" yMax="384">
      <contour>
        <pt x="432" y="192" on="1"/>
        <pt x="16" y="192" on="1"/>
        <pt x="16" y="384" on="1"/>
        <pt x="432" y="384" on="1"/>
      </contour>
    </TTGlyph>
    <TTGlyph name="five" xMin="53" yMin="-10" xMax="396" yMax="576">
      <contour>
        <pt x="153" y="54" on="0"/>
        <pt x="209" y="54" on="1"/>
        <pt x="268" y="54" on="0"/>
        <pt x="320" y="104" on="0"/>
        <pt x="320" y="159" on="1"/>
        <pt x="320" y="217" on="0"/>
        <pt x="276" y="261" on="0"/>
        <pt x="216" y="261" on="1"/>
        <pt x="170" y="261" on="0"/>
        <pt x="92" y="248" on="1"/>
        <pt x="68" y="271" on="1"/>
        <pt x="81" y="576" on="1"/>
        <pt x="374" y="576" on="1"/>
        <pt x="374" y="512" on="1"/>
        <pt x="151" y="512" on="1"/>
        <pt x="142" y="316" on="1"/>
        <pt x="183" y="325" on="0"/>
        <pt x="236" y="325" on="1"/>
        <pt x="306" y="325" on="0"/>
        <pt x="396" y="248" on="0"/>
        <pt x="396" y="163" on="1"/>
        <pt x="396" y="-10" on="0"/>
        <pt x="213" y="-10" on="1"/>
        <pt x="138" y="-10" on="0"/>
        <pt x="53" y="12" on="1"/>
        <pt x="68" y="74" on="1"/>
      </contour>
    </TTGlyph>
    <TTGlyph name="five.dnom" xMin="176" yMin="-198" xMax="392" yMax="128">
      <component glyphName="uni2075" x="128" y="-512" flags="0x404"/>
    </TTGlyph>
    <TTGlyph name="five.numr" xMin="48" yMin="314" xMax="264" yMax="640">
      <component glyphName="uni2075" x="0" y="0" flags="0x400"/>
    </TTGlyph>
    <TTGlyph name="five.osf" xMin="53" yMin="-128" xMax="396" yMax="448">
      <contour>
        <pt x="153" y="-64" on="0"/>
        <pt x="209" y="-64" on="1"/>
        <pt x="268" y="-64" on="0"/>
        <pt x="320" y="-17" on="0"/>
        <pt x="320" y="36" on="1"/>
        <pt x="320" y="91" on="0"/>
        <pt x="276" y="133" on="0"/>
        <pt x="216" y="133" on="1"/>
        <pt x="170" y="133" on="0"/>
        <pt x="92" y="120" on="1"/>
        <pt x="68" y="143" on="1"/>
        <pt x="81" y="448" on="1"/>
        <pt x="374" y="448" on="1"/>
        <pt x="374" y="384" on="1"/>
        <pt x="151" y="384" on="1"/>
        <pt x="142" y="188" on="1"/>
        <pt x="183" y="197" on="0"/>
        <pt x="236" y="197" on="1"/>
        <pt x="306" y="197" on="0"/>
        <pt x="396" y="122" on="0"/>
        <pt x="396" y="40" on="1"/>
        <pt x="396" y="-128" on="0"/>
        <pt x="213" y="-128" on="1"/>
        <pt x="138" y="-128" on="0"/>
        <pt x="53" y="-106" on="1"/>
        <pt x="68" y="-44" on="1"/>
      </contour>
    </TTGlyph>
    <TTGlyph name="five_fraction_nine" xMin="41" yMin="-198" xMax="406" yMax="640">
      <component glyphName="five.numr" x="0" y="0" flags="0x400"/>
      <component glyphName="fraction.alt" x="0" y="0" flags="0x0"/>
      <component glyphName="nine.dnom" x="0" y="0" flags="0x0"/>
    </TTGlyph>
    <TTGlyph name="five_fraction_seven" xMin="41" yMin="-198" xMax="406" yMax="640">
      <component glyphName="five.numr" x="0" y="0" flags="0x400"/>
      <component glyphName="fraction.alt" x="0" y="0" flags="0x0"/>
      <component glyphName="seven.dnom" x="0" y="0" flags="0x0"/>
    </TTGlyph>
    <TTGlyph name="fiveeighths" xMin="41" yMin="-198" xMax="406" yMax="640">
      <component glyphName="five.numr" x="0" y="0" flags="0x400"/>
      <component glyphName="fraction.alt" x="0" y="0" flags="0x0"/>
      <component glyphName="eight.dnom" x="0" y="0" flags="0x0"/>
    </TTGlyph>
    <TTGlyph name="florin" xMin="77" yMin="-196" xMax="398" yMax="648">
      <contour>
        <pt x="120" y="-115" on="0"/>
        <pt x="154" y="-62" on="0"/>
        <pt x="154" y="-13" on="1"/>
        <pt x="154" y="383" on="1"/>
        <pt x="79" y="386" on="1"/>
        <pt x="79" y="448" on="1"/>
        <pt x="154" y="448" on="1"/>
        <pt x="154" y="504" on="1"/>
        <pt x="154" y="577" on="0"/>
        <pt x="228" y="648" on="0"/>
        <pt x="290" y="648" on="1"/>
        <pt x="344" y="648" on="0"/>
        <pt x="398" y="638" on="1"/>
        <pt x="387" y="575" on="1"/>
        <pt x="328" y="584" on="0"/>
        <pt x="294" y="584" on="1"/>
        <pt x="226" y="584" on="0"/>
        <pt x="226" y="509" on="1"/>
        <pt x="226" y="448" on="1"/>
        <pt x="370" y="448" on="1"/>
        <pt x="370" y="384" on="1"/>
        <pt x="226" y="384" on="1"/>
        <pt x="226" y="-5" on="1"/>
        <pt x="226" y="-78" on="0"/>
        <pt x="172" y="-166" on="0"/>
        <pt x="106" y="-196" on="1"/>
        <pt x="77" y="-136" on="1"/>
      </contour>
    </TTGlyph>
    <TTGlyph name="four" xMin="41" yMin="0" xMax="423" yMax="592">
      <contour>
        <pt x="267" y="128" on="1"/>
        <pt x="41" y="128" on="1"/>
        <pt x="50" y="333" on="0"/>
        <pt x="194" y="559" on="0"/>
        <pt x="339" y="592" on="1"/>
        <pt x="339" y="192" on="1"/>
        <pt x="423" y="192" on="1"/>
        <pt x="423" y="128" on="1"/>
        <pt x="339" y="128" on="1"/>
        <pt x="339" y="0" on="1"/>
        <pt x="267" y="0" on="1"/>
      </contour>
      <contour>
        <pt x="267" y="192" on="1"/>
        <pt x="267" y="494" on="1"/>
        <pt x="201" y="458" on="0"/>
        <pt x="130" y="308" on="0"/>
        <pt x="118" y="192" on="1"/>
      </contour>
    </TTGlyph>
    <TTGlyph name="four.dnom" xMin="184" yMin="-192" xMax="414" yMax="138">
      <component glyphName="uni2074" x="128" y="-512" flags="0x404"/>
    </TTGlyph>
    <TTGlyph name="four.numr" xMin="56" yMin="320" xMax="286" yMax="650">
      <component glyphName="uni2074" x="0" y="0" flags="0x400"/>
    </TTGlyph>
    <TTGlyph name="four.osf" xMin="41" yMin="-128" xMax="423" yMax="464">
      <contour>
        <pt x="267" y="0" on="1"/>
        <pt x="41" y="0" on="1"/>
        <pt x="50" y="205" on="0"/>
        <pt x="194" y="431" on="0"/>
        <pt x="339" y="464" on="1"/>
        <pt x="339" y="64" on="1"/>
        <pt x="423" y="64" on="1"/>
        <pt x="423" y="0" on="1"/>
        <pt x="339" y="0" on="1"/>
        <pt x="339" y="-128" on="1"/>
        <pt x="267" y="-128" on="1"/>
      </contour>
      <contour>
        <pt x="267" y="64" on="1"/>
        <pt x="267" y="366" on="1"/>
        <pt x="201" y="330" on="0"/>
        <pt x="130" y="180" on="0"/>
        <pt x="118" y="64" on="1"/>
      </contour>
    </TTGlyph>
    <TTGlyph name="four_fraction_nine" xMin="41" yMin="-198" xMax="406" yMax="650">
      <component glyphName="four.numr" x="0" y="0" flags="0x400"/>
      <component glyphName="fraction.alt" x="0" y="0" flags="0x0"/>
      <component glyphName="nine.dnom" x="0" y="0" flags="0x0"/>
    </TTGlyph>
    <TTGlyph name="four_fraction_seven" xMin="41" yMin="-198" xMax="406" yMax="650">
      <component glyphName="four.numr" x="0" y="0" flags="0x400"/>
      <component glyphName="fraction.alt" x="0" y="0" flags="0x0"/>
      <component glyphName="seven.dnom" x="0" y="0" flags="0x0"/>
    </TTGlyph>
    <TTGlyph name="fraction" xMin="119" yMin="-69" xMax="329" yMax="710">
      <component glyphName="slash" x="0" y="0" flags="0x400"/>
    </TTGlyph>
    <TTGlyph name="fraction.alt" xMin="41" yMin="171" xMax="406" yMax="277">
      <contour>
        <pt x="398" y="277" on="1"/>
        <pt x="406" y="222" on="1"/>
        <pt x="49" y="171" on="1"/>
        <pt x="41" y="226" on="1"/>
      </contour>
    </TTGlyph>
    <TTGlyph name="fraction.percent" xMin="23" yMin="182" xMax="425" yMax="458">
      <contour>
        <pt x="392" y="458" on="1"/>
        <pt x="425" y="403" on="1"/>
        <pt x="55" y="182" on="1"/>
        <pt x="23" y="237" on="1"/>
      </contour>
    </TTGlyph>
    <TTGlyph name="franc" xMin="10" yMin="0" xMax="384" yMax="576">
      <contour>
        <pt x="60" y="174" on="1"/>
        <pt x="60" y="576" on="1"/>
        <pt x="384" y="576" on="1"/>
        <pt x="384" y="512" on="1"/>
        <pt x="132" y="512" on="1"/>
        <pt x="132" y="320" on="1"/>
        <pt x="320" y="320" on="1"/>
        <pt x="320" y="256" on="1"/>
        <pt x="132" y="256" on="1"/>
        <pt x="132" y="174" on="1"/>
        <pt x="266" y="174" on="1"/>
        <pt x="266" y="114" on="1"/>
        <pt x="132" y="114" on="1"/>
        <pt x="132" y="0" on="1"/>
        <pt x="60" y="0" on="1"/>
        <pt x="60" y="114" on="1"/>
        <pt x="10" y="114" on="1"/>
        <pt x="10" y="174" on="1"/>
      </contour>
    </TTGlyph>
    <TTGlyph name="g" xMin="46" yMin="-196" xMax="390" yMax="456">
      <contour>
        <pt x="162" y="-196" on="0"/>
        <pt x="102" y="-181" on="1"/>
        <pt x="112" y="-123" on="1"/>
        <pt x="156" y="-132" on="0"/>
        <pt x="222" y="-132" on="1"/>
        <pt x="277" y="-132" on="0"/>
        <pt x="316" y="-93" on="0"/>
        <pt x="316" y="-49" on="1"/>
        <pt x="316" y="28" on="1"/>
        <pt x="274" y="-8" on="0"/>
        <pt x="212" y="-8" on="1"/>
        <pt x="148" y="-8" on="0"/>
        <pt x="107" y="33" on="1"/>
        <pt x="46" y="94" on="0"/>
        <pt x="46" y="224" on="1"/>
        <pt x="46" y="285" on="0"/>
        <pt x="76" y="384" on="0"/>
        <pt x="105" y="413" on="1"/>
        <pt x="148" y="456" on="0"/>
        <pt x="213" y="456" on="1"/>
        <pt x="281" y="456" on="0"/>
        <pt x="324" y="413" on="1"/>
        <pt x="329" y="448" on="1"/>
        <pt x="390" y="448" on="1"/>
        <pt x="388" y="384" on="1"/>
        <pt x="388" y="-36" on="1"/>
        <pt x="388" y="-120" on="0"/>
        <pt x="300" y="-196" on="0"/>
        <pt x="223" y="-196" on="1"/>
      </contour>
      <contour>
        <pt x="124" y="165" on="0"/>
        <pt x="140" y="95" on="0"/>
        <pt x="158" y="77" on="1"/>
        <pt x="179" y="56" on="0"/>
        <pt x="221" y="56" on="1"/>
        <pt x="285" y="56" on="0"/>
        <pt x="316" y="98" on="1"/>
        <pt x="316" y="350" on="1"/>
        <pt x="284" y="392" on="0"/>
        <pt x="221" y="392" on="1"/>
        <pt x="179" y="392" on="0"/>
        <pt x="157" y="370" on="1"/>
        <pt x="139" y="352" on="0"/>
        <pt x="124" y="283" on="0"/>
        <pt x="124" y="224" on="1"/>
      </contour>
    </TTGlyph>
    <TTGlyph name="g.cv01" xMin="37" yMin="-200" xMax="429" yMax="456">
      <contour>
        <pt x="253" y="456" on="0"/>
        <pt x="280" y="448" on="1"/>
        <pt x="428" y="448" on="1"/>
        <pt x="428" y="390" on="1"/>
        <pt x="364" y="387" on="1"/>
        <pt x="387" y="349" on="0"/>
        <pt x="387" y="299" on="1"/>
        <pt x="387" y="232" on="0"/>
        <pt x="300" y="142" on="0"/>
        <pt x="220" y="142" on="1"/>
        <pt x="175" y="142" on="0"/>
        <pt x="145" y="155" on="1"/>
        <pt x="132" y="146" on="0"/>
        <pt x="118" y="120" on="0"/>
        <pt x="118" y="107" on="1"/>
        <pt x="118" y="75" on="0"/>
        <pt x="162" y="75" on="1"/>
        <pt x="268" y="75" on="1"/>
        <pt x="349" y="75" on="0"/>
        <pt x="429" y="2" on="0"/>
        <pt x="429" y="-57" on="1"/>
        <pt x="429" y="-127" on="0"/>
        <pt x="331" y="-200" on="0"/>
        <pt x="233" y="-200" on="1"/>
        <pt x="129" y="-200" on="0"/>
        <pt x="37" y="-124" on="0"/>
        <pt x="37" y="-68" on="1"/>
        <pt x="37" y="-43" on="0"/>
        <pt x="59" y="7" on="0"/>
        <pt x="81" y="25" on="1"/>
        <pt x="47" y="50" on="0"/>
        <pt x="47" y="97" on="1"/>
        <pt x="47" y="122" on="0"/>
        <pt x="75" y="167" on="0"/>
        <pt x="98" y="183" on="1"/>
        <pt x="53" y="225" on="0"/>
        <pt x="53" y="299" on="1"/>
        <pt x="53" y="368" on="0"/>
        <pt x="140" y="456" on="0"/>
        <pt x="220" y="456" on="1"/>
      </contour>
      <contour>
        <pt x="310" y="202" on="0"/>
        <pt x="310" y="299" on="1"/>
        <pt x="310" y="346" on="0"/>
        <pt x="265" y="396" on="0"/>
        <pt x="220" y="396" on="1"/>
        <pt x="175" y="396" on="0"/>
        <pt x="130" y="346" on="0"/>
        <pt x="130" y="299" on="1"/>
        <pt x="130" y="202" on="0"/>
        <pt x="220" y="202" on="1"/>
      </contour>
      <contour>
        <pt x="109" y="-93" on="0"/>
        <pt x="160" y="-136" on="0"/>
        <pt x="233" y="-136" on="1"/>
        <pt x="302" y="-136" on="0"/>
        <pt x="355" y="-97" on="0"/>
        <pt x="355" y="-62" on="1"/>
        <pt x="355" y="3" on="0"/>
        <pt x="265" y="3" on="1"/>
        <pt x="168" y="3" on="1"/>
        <pt x="146" y="3" on="0"/>
        <pt x="129" y="6" on="1"/>
        <pt x="119" y="-9" on="0"/>
        <pt x="109" y="-43" on="0"/>
        <pt x="109" y="-57" on="1"/>
      </contour>
    </TTGlyph>
    <TTGlyph name="gamma" xMin="42" yMin="-192" xMax="406" yMax="448">
      <contour>
        <pt x="117" y="448" on="1"/>
        <pt x="128" y="323" on="0"/>
        <pt x="178" y="165" on="0"/>
        <pt x="224" y="86" on="1"/>
        <pt x="270" y="165" on="0"/>
        <pt x="320" y="323" on="0"/>
        <pt x="331" y="448" on="1"/>
        <pt x="406" y="448" on="1"/>
        <pt x="395" y="314" on="0"/>
        <pt x="322" y="110" on="0"/>
        <pt x="260" y="15" on="1"/>
        <pt x="260" y="-192" on="1"/>
        <pt x="188" y="-192" on="1"/>
        <pt x="188" y="15" on="1"/>
        <pt x="126" y="110" on="0"/>
        <pt x="53" y="314" on="0"/>
        <pt x="42" y="448" on="1"/>
      </contour>
    </TTGlyph>
    <TTGlyph name="gbreve" xMin="46" yMin="-196" xMax="390" yMax="644">
      <component glyphName="g" x="0" y="0" flags="0x400"/>
      <component glyphName="uni0306" x="0" y="0" flags="0x0"/>
    </TTGlyph>
    <TTGlyph name="gbreve.cv01" xMin="37" yMin="-200" xMax="429" yMax="644">
      <component glyphName="g.cv01" x="0" y="0" flags="0x400"/>
      <component glyphName="uni0306" x="5" y="0" flags="0x0"/>
    </TTGlyph>
    <TTGlyph name="gcaron" xMin="46" yMin="-196" xMax="390" yMax="646">
      <component glyphName="g" x="0" y="0" flags="0x400"/>
      <component glyphName="uni030C" x="0" y="0" flags="0x0"/>
    </TTGlyph>
    <TTGlyph name="gcaron.cv01" xMin="37" yMin="-200" xMax="429" yMax="646">
      <component glyphName="g.cv01" x="0" y="0" flags="0x400"/>
      <component glyphName="uni030C" x="5" y="0" flags="0x0"/>
    </TTGlyph>
    <TTGlyph name="gcircumflex" xMin="46" yMin="-196" xMax="390" yMax="650">
      <component glyphName="g" x="0" y="0" flags="0x400"/>
      <component glyphName="uni0302" x="0" y="0" flags="0x0"/>
    </TTGlyph>
    <TTGlyph name="gcircumflex.cv01" xMin="37" yMin="-200" xMax="429" yMax="650">
      <component glyphName="g.cv01" x="0" y="0" flags="0x400"/>
      <component glyphName="uni0302" x="5" y="0" flags="0x0"/>
    </TTGlyph>
    <TTGlyph name="gdotaccent" xMin="46" yMin="-196" xMax="390" yMax="650">
      <component glyphName="g" x="0" y="0" flags="0x400"/>
      <component glyphName="uni0307" x="0" y="0" flags="0x0"/>
    </TTGlyph>
    <TTGlyph name="gdotaccent.cv01" xMin="37" yMin="-200" xMax="429" yMax="650">
      <component glyphName="g.cv01" x="0" y="0" flags="0x400"/>
      <component glyphName="uni0307" x="5" y="0" flags="0x0"/>
    </TTGlyph>
    <TTGlyph name="germandbls" xMin="60" yMin="-8" xMax="408" yMax="648">
      <contour>
        <pt x="60" y="574" on="0"/>
        <pt x="146" y="648" on="0"/>
        <pt x="217" y="648" on="1"/>
        <pt x="284" y="648" on="0"/>
        <pt x="370" y="579" on="0"/>
        <pt x="370" y="516" on="1"/>
        <pt x="370" y="474" on="0"/>
        <pt x="337" y="423" on="0"/>
        <pt x="306" y="396" on="1"/>
        <pt x="283" y="376" on="0"/>
        <pt x="262" y="348" on="0"/>
        <pt x="262" y="328" on="1"/>
        <pt x="262" y="304" on="0"/>
        <pt x="293" y="269" on="0"/>
        <pt x="324" y="246" on="1"/>
        <pt x="364" y="217" on="0"/>
        <pt x="408" y="162" on="0"/>
        <pt x="408" y="117" on="1"/>
        <pt x="408" y="56" on="0"/>
        <pt x="332" y="-8" on="0"/>
        <pt x="274" y="-8" on="1"/>
        <pt x="229" y="-8" on="0"/>
        <pt x="188" y="4" on="1"/>
        <pt x="200" y="67" on="1"/>
        <pt x="238" y="58" on="0"/>
        <pt x="267" y="58" on="1"/>
        <pt x="301" y="58" on="0"/>
        <pt x="332" y="86" on="0"/>
        <pt x="332" y="117" on="1"/>
        <pt x="332" y="143" on="0"/>
        <pt x="303" y="176" on="0"/>
        <pt x="270" y="199" on="1"/>
        <pt x="230" y="226" on="0"/>
        <pt x="186" y="280" on="0"/>
        <pt x="186" y="327" on="1"/>
        <pt x="186" y="364" on="0"/>
        <pt x="216" y="408" on="0"/>
        <pt x="244" y="431" on="1"/>
        <pt x="269" y="451" on="0"/>
        <pt x="294" y="486" on="0"/>
        <pt x="294" y="513" on="1"/>
        <pt x="294" y="584" on="0"/>
        <pt x="215" y="584" on="1"/>
        <pt x="132" y="584" on="0"/>
        <pt x="132" y="502" on="1"/>
        <pt x="132" y="0" on="1"/>
        <pt x="60" y="0" on="1"/>
        <pt x="60" y="496" on="1"/>
      </contour>
    </TTGlyph>
</ttFont>
